<?xml version="1.0" encoding="UTF-8"?>
<svg id="Layer_1" data-name="Layer 1" xmlns="http://www.w3.org/2000/svg" viewBox="0 0 1920 4123.95">
  <defs>
    <style>
      .cls-1 {
        fill: #e2e2e0;
      }

      .cls-2 {
        opacity: .44;
      }

      .cls-3 {
        fill: #fff;
      }

      .cls-3, .cls-4 {
        opacity: .51;
        stroke: #231f20;
        stroke-miterlimit: 10;
      }

      .cls-4 {
        fill: #231f20;
      }
    </style>
  </defs>
  <rect class="cls-1" width="1920" height="4123.95"/>
  <g class="cls-2">
    <line class="cls-4" x1="52.87" x2="52.87" y2="2061.97"/>
    <line class="cls-4" x1="105.74" x2="105.74" y2="2061.97"/>
    <line class="cls-4" x1="158.61" x2="158.61" y2="2061.97"/>
    <line class="cls-4" x1="211.48" x2="211.48" y2="2061.97"/>
    <line class="cls-4" x1="264.36" x2="264.36" y2="2061.97"/>
    <line class="cls-4" x1="317.23" x2="317.23" y2="2061.97"/>
    <line class="cls-4" x1="370.1" x2="370.1" y2="2061.97"/>
    <line class="cls-4" x1="422.97" x2="422.97" y2="2061.97"/>
    <line class="cls-4" x1="475.84" x2="475.84" y2="2061.97"/>
    <line class="cls-4" x1="528.71" x2="528.71" y2="2061.97"/>
    <line class="cls-4" x1="581.58" x2="581.58" y2="2061.97"/>
    <line class="cls-4" x1="634.45" x2="634.45" y2="2061.97"/>
    <line class="cls-4" x1="687.32" x2="687.32" y2="2061.97"/>
    <line class="cls-4" x1="740.2" x2="740.2" y2="2061.97"/>
    <line class="cls-4" x1="793.07" x2="793.07" y2="2061.97"/>
    <line class="cls-4" x1="845.94" x2="845.94" y2="2061.97"/>
    <line class="cls-4" x1="898.81" x2="898.81" y2="2061.97"/>
    <line class="cls-4" x1="960" x2="960" y2="2061.97"/>
    <line class="cls-3" y1="52.87" x2="960" y2="52.87"/>
    <line class="cls-3" y1="105.74" x2="960" y2="105.74"/>
    <line class="cls-3" y1="158.61" x2="960" y2="158.61"/>
    <line class="cls-3" y1="211.48" x2="960" y2="211.48"/>
    <line class="cls-3" y1="264.36" x2="960" y2="264.36"/>
    <line class="cls-3" y1="317.23" x2="960" y2="317.23"/>
    <line class="cls-3" y1="370.1" x2="960" y2="370.1"/>
    <line class="cls-3" y1="422.97" x2="960" y2="422.97"/>
    <line class="cls-3" y1="475.84" x2="960" y2="475.84"/>
    <line class="cls-3" y1="528.71" x2="960" y2="528.71"/>
    <line class="cls-3" y1="581.58" x2="960" y2="581.58"/>
    <line class="cls-3" y1="634.45" x2="960" y2="634.45"/>
    <line class="cls-3" y1="687.32" x2="960" y2="687.32"/>
    <line class="cls-3" y1="740.2" x2="960" y2="740.2"/>
    <line class="cls-3" y1="793.07" x2="960" y2="793.07"/>
    <line class="cls-3" y1="845.94" x2="960" y2="845.94"/>
    <line class="cls-3" y1="898.81" x2="960" y2="898.81"/>
    <line class="cls-3" y1="951.68" x2="960" y2="951.68"/>
    <line class="cls-3" y1="1004.55" x2="960" y2="1004.55"/>
    <line class="cls-3" y1="1057.42" x2="960" y2="1057.42"/>
    <line class="cls-3" y1="1110.29" x2="960" y2="1110.29"/>
    <line class="cls-3" y1="1163.16" x2="960" y2="1163.16"/>
    <line class="cls-3" y1="1216.04" x2="960" y2="1216.04"/>
    <line class="cls-3" y1="1268.91" x2="960" y2="1268.91"/>
    <line class="cls-3" y1="1321.78" x2="960" y2="1321.78"/>
    <line class="cls-4" y1="1374.65" x2="960" y2="1374.65"/>
    <line class="cls-4" y1="1427.52" x2="960" y2="1427.52"/>
    <line class="cls-4" y1="1480.39" x2="960" y2="1480.39"/>
    <line class="cls-4" y1="1533.26" x2="960" y2="1533.26"/>
    <line class="cls-4" y1="1586.13" x2="960" y2="1586.13"/>
    <line class="cls-4" y1="1639.01" x2="960" y2="1639.01"/>
    <line class="cls-4" y1="1691.88" x2="960" y2="1691.88"/>
    <line class="cls-4" y1="1744.75" x2="960" y2="1744.75"/>
    <line class="cls-4" y1="1797.62" x2="960" y2="1797.62"/>
    <line class="cls-4" y1="1850.49" x2="960" y2="1850.49"/>
    <line class="cls-4" y1="1903.36" x2="960" y2="1903.36"/>
    <line class="cls-3" y1="1956.23" x2="960" y2="1956.23"/>
    <line class="cls-3" y1="2009.1" x2="960" y2="2009.1"/>
    <line class="cls-3" y1="2061.97" x2="960" y2="2061.97"/>
    <line class="cls-4" x1="1012.87" x2="1012.87" y2="2061.97"/>
    <line class="cls-4" x1="1065.74" x2="1065.74" y2="2061.97"/>
    <line class="cls-4" x1="1118.61" x2="1118.61" y2="2061.97"/>
    <line class="cls-4" x1="1171.48" x2="1171.48" y2="2061.97"/>
    <line class="cls-4" x1="1224.36" x2="1224.36" y2="2061.97"/>
    <line class="cls-4" x1="1277.23" x2="1277.23" y2="2061.97"/>
    <line class="cls-4" x1="1330.1" x2="1330.1" y2="2061.97"/>
    <line class="cls-4" x1="1382.97" x2="1382.97" y2="2061.97"/>
    <line class="cls-4" x1="1435.84" x2="1435.84" y2="2061.97"/>
    <line class="cls-4" x1="1488.71" x2="1488.71" y2="2061.97"/>
    <line class="cls-4" x1="1541.58" x2="1541.58" y2="2061.97"/>
    <line class="cls-4" x1="1594.45" x2="1594.45" y2="2061.97"/>
    <line class="cls-4" x1="1647.32" x2="1647.32" y2="2061.97"/>
    <line class="cls-4" x1="1700.2" x2="1700.2" y2="2061.97"/>
    <line class="cls-4" x1="1753.07" x2="1753.07" y2="2061.97"/>
    <line class="cls-4" x1="1805.94" x2="1805.94" y2="2061.97"/>
    <line class="cls-4" x1="1858.81" x2="1858.81" y2="2061.97"/>
    <line class="cls-4" x1="1920" x2="1920" y2="2061.97"/>
    <line class="cls-3" x1="960" y1="52.87" x2="1920" y2="52.87"/>
    <line class="cls-3" x1="960" y1="105.74" x2="1920" y2="105.74"/>
    <line class="cls-3" x1="960" y1="158.61" x2="1920" y2="158.61"/>
    <line class="cls-3" x1="960" y1="211.48" x2="1920" y2="211.48"/>
    <line class="cls-3" x1="960" y1="264.36" x2="1920" y2="264.36"/>
    <line class="cls-3" x1="960" y1="317.23" x2="1920" y2="317.23"/>
    <line class="cls-3" x1="960" y1="370.1" x2="1920" y2="370.1"/>
    <line class="cls-3" x1="960" y1="422.97" x2="1920" y2="422.97"/>
    <line class="cls-3" x1="960" y1="475.84" x2="1920" y2="475.84"/>
    <line class="cls-3" x1="960" y1="528.71" x2="1920" y2="528.71"/>
    <line class="cls-3" x1="960" y1="581.58" x2="1920" y2="581.58"/>
    <line class="cls-3" x1="960" y1="634.45" x2="1920" y2="634.45"/>
    <line class="cls-3" x1="960" y1="687.32" x2="1920" y2="687.32"/>
    <line class="cls-3" x1="960" y1="740.2" x2="1920" y2="740.2"/>
    <line class="cls-3" x1="960" y1="793.07" x2="1920" y2="793.07"/>
    <line class="cls-3" x1="960" y1="845.94" x2="1920" y2="845.94"/>
    <line class="cls-3" x1="960" y1="898.81" x2="1920" y2="898.81"/>
    <line class="cls-3" x1="960" y1="951.68" x2="1920" y2="951.68"/>
    <line class="cls-3" x1="960" y1="1004.55" x2="1920" y2="1004.55"/>
    <line class="cls-3" x1="960" y1="1057.42" x2="1920" y2="1057.42"/>
    <line class="cls-3" x1="960" y1="1110.29" x2="1920" y2="1110.29"/>
    <line class="cls-3" x1="960" y1="1163.16" x2="1920" y2="1163.16"/>
    <line class="cls-3" x1="960" y1="1216.04" x2="1920" y2="1216.04"/>
    <line class="cls-3" x1="960" y1="1268.91" x2="1920" y2="1268.91"/>
    <line class="cls-3" x1="960" y1="1321.78" x2="1920" y2="1321.78"/>
    <line class="cls-4" x1="960" y1="1374.65" x2="1920" y2="1374.65"/>
    <line class="cls-4" x1="960" y1="1427.52" x2="1920" y2="1427.52"/>
    <line class="cls-4" x1="960" y1="1480.39" x2="1920" y2="1480.39"/>
    <line class="cls-4" x1="960" y1="1533.26" x2="1920" y2="1533.26"/>
    <line class="cls-4" x1="960" y1="1586.13" x2="1920" y2="1586.13"/>
    <line class="cls-4" x1="960" y1="1639.01" x2="1920" y2="1639.01"/>
    <line class="cls-4" x1="960" y1="1691.88" x2="1920" y2="1691.88"/>
    <line class="cls-4" x1="960" y1="1744.75" x2="1920" y2="1744.75"/>
    <line class="cls-4" x1="960" y1="1797.62" x2="1920" y2="1797.62"/>
    <line class="cls-4" x1="960" y1="1850.49" x2="1920" y2="1850.49"/>
    <line class="cls-4" x1="960" y1="1903.36" x2="1920" y2="1903.36"/>
    <line class="cls-3" x1="960" y1="1956.23" x2="1920" y2="1956.23"/>
    <line class="cls-3" x1="960" y1="2009.1" x2="1920" y2="2009.1"/>
    <line class="cls-3" x1="960" y1="2061.97" x2="1920" y2="2061.97"/>
    <line class="cls-4" x1="52.87" y1="2061.97" x2="52.87" y2="4123.95"/>
    <line class="cls-4" x1="105.74" y1="2061.97" x2="105.74" y2="4123.95"/>
    <line class="cls-4" x1="158.61" y1="2061.97" x2="158.61" y2="4123.95"/>
    <line class="cls-4" x1="211.48" y1="2061.97" x2="211.48" y2="4123.95"/>
    <line class="cls-4" x1="264.36" y1="2061.97" x2="264.36" y2="4123.95"/>
    <line class="cls-4" x1="317.23" y1="2061.97" x2="317.23" y2="4123.95"/>
    <line class="cls-4" x1="370.1" y1="2061.97" x2="370.1" y2="4123.95"/>
    <line class="cls-4" x1="422.97" y1="2061.97" x2="422.97" y2="4123.95"/>
    <line class="cls-4" x1="475.84" y1="2061.97" x2="475.84" y2="4123.95"/>
    <line class="cls-4" x1="528.71" y1="2061.97" x2="528.71" y2="4123.95"/>
    <line class="cls-4" x1="581.58" y1="2061.97" x2="581.58" y2="4123.95"/>
    <line class="cls-4" x1="634.45" y1="2061.97" x2="634.45" y2="4123.95"/>
    <line class="cls-4" x1="687.32" y1="2061.97" x2="687.32" y2="4123.95"/>
    <line class="cls-4" x1="740.2" y1="2061.97" x2="740.2" y2="4123.95"/>
    <line class="cls-4" x1="793.07" y1="2061.97" x2="793.07" y2="4123.95"/>
    <line class="cls-4" x1="845.94" y1="2061.97" x2="845.94" y2="4123.95"/>
    <line class="cls-4" x1="898.81" y1="2061.97" x2="898.81" y2="4123.95"/>
    <line class="cls-4" x1="960" y1="2061.97" x2="960" y2="4123.95"/>
    <line class="cls-3" y1="2114.85" x2="960" y2="2114.85"/>
    <line class="cls-3" y1="2167.72" x2="960" y2="2167.72"/>
    <line class="cls-3" y1="2220.59" x2="960" y2="2220.59"/>
    <line class="cls-3" y1="2273.46" x2="960" y2="2273.46"/>
    <line class="cls-3" y1="2326.33" x2="960" y2="2326.33"/>
    <line class="cls-3" y1="2379.2" x2="960" y2="2379.2"/>
    <line class="cls-3" y1="2432.07" x2="960" y2="2432.07"/>
    <line class="cls-3" y1="2484.94" x2="960" y2="2484.94"/>
    <line class="cls-3" y1="2537.81" x2="960" y2="2537.81"/>
    <line class="cls-3" y1="2590.69" x2="960" y2="2590.69"/>
    <line class="cls-3" y1="2643.56" x2="960" y2="2643.56"/>
    <line class="cls-3" y1="2696.43" x2="960" y2="2696.43"/>
    <line class="cls-3" y1="2749.3" x2="960" y2="2749.3"/>
    <line class="cls-3" y1="2802.17" x2="960" y2="2802.17"/>
    <line class="cls-3" y1="2855.04" x2="960" y2="2855.04"/>
    <line class="cls-3" y1="2907.91" x2="960" y2="2907.91"/>
    <line class="cls-3" y1="2960.78" x2="960" y2="2960.78"/>
    <line class="cls-3" y1="3013.65" x2="960" y2="3013.65"/>
    <line class="cls-3" y1="3066.53" x2="960" y2="3066.53"/>
    <line class="cls-3" y1="3119.4" x2="960" y2="3119.4"/>
    <line class="cls-3" y1="3172.27" x2="960" y2="3172.27"/>
    <line class="cls-3" y1="3225.14" x2="960" y2="3225.14"/>
    <line class="cls-3" y1="3278.01" x2="960" y2="3278.01"/>
    <line class="cls-3" y1="3330.88" x2="960" y2="3330.88"/>
    <line class="cls-3" y1="3383.75" x2="960" y2="3383.75"/>
    <line class="cls-4" y1="3436.62" x2="960" y2="3436.62"/>
    <line class="cls-4" y1="3489.49" x2="960" y2="3489.49"/>
    <line class="cls-4" y1="3542.37" x2="960" y2="3542.37"/>
    <line class="cls-4" y1="3595.24" x2="960" y2="3595.24"/>
    <line class="cls-4" y1="3648.11" x2="960" y2="3648.11"/>
    <line class="cls-4" y1="3700.98" x2="960" y2="3700.98"/>
    <line class="cls-4" y1="3753.85" x2="960" y2="3753.85"/>
    <line class="cls-4" y1="3806.72" x2="960" y2="3806.72"/>
    <line class="cls-4" y1="3859.59" x2="960" y2="3859.59"/>
    <line class="cls-4" y1="3912.46" x2="960" y2="3912.46"/>
    <line class="cls-4" y1="3965.33" x2="960" y2="3965.33"/>
    <line class="cls-3" y1="4018.21" x2="960" y2="4018.21"/>
    <line class="cls-3" y1="4071.08" x2="960" y2="4071.08"/>
    <line class="cls-3" y1="4123.95" x2="960" y2="4123.95"/>
    <line class="cls-4" x1="1012.87" y1="2061.97" x2="1012.87" y2="4123.95"/>
    <line class="cls-4" x1="1065.74" y1="2061.97" x2="1065.74" y2="4123.95"/>
    <line class="cls-4" x1="1118.61" y1="2061.97" x2="1118.61" y2="4123.95"/>
    <line class="cls-4" x1="1171.48" y1="2061.97" x2="1171.48" y2="4123.95"/>
    <line class="cls-4" x1="1224.36" y1="2061.97" x2="1224.36" y2="4123.95"/>
    <line class="cls-4" x1="1277.23" y1="2061.97" x2="1277.23" y2="4123.95"/>
    <line class="cls-4" x1="1330.1" y1="2061.97" x2="1330.1" y2="4123.95"/>
    <line class="cls-4" x1="1382.97" y1="2061.97" x2="1382.97" y2="4123.95"/>
    <line class="cls-4" x1="1435.84" y1="2061.97" x2="1435.84" y2="4123.95"/>
    <line class="cls-4" x1="1488.71" y1="2061.97" x2="1488.71" y2="4123.95"/>
    <line class="cls-4" x1="1541.58" y1="2061.97" x2="1541.58" y2="4123.95"/>
    <line class="cls-4" x1="1594.45" y1="2061.97" x2="1594.45" y2="4123.95"/>
    <line class="cls-4" x1="1647.32" y1="2061.97" x2="1647.32" y2="4123.95"/>
    <line class="cls-4" x1="1700.2" y1="2061.97" x2="1700.2" y2="4123.95"/>
    <line class="cls-4" x1="1753.07" y1="2061.97" x2="1753.07" y2="4123.95"/>
    <line class="cls-4" x1="1805.94" y1="2061.97" x2="1805.94" y2="4123.95"/>
    <line class="cls-4" x1="1858.81" y1="2061.97" x2="1858.81" y2="4123.95"/>
    <line class="cls-4" x1="1920" y1="2061.97" x2="1920" y2="4123.95"/>
    <line class="cls-3" x1="960" y1="2114.85" x2="1920" y2="2114.85"/>
    <line class="cls-3" x1="960" y1="2167.72" x2="1920" y2="2167.72"/>
    <line class="cls-3" x1="960" y1="2220.59" x2="1920" y2="2220.59"/>
    <line class="cls-3" x1="960" y1="2273.46" x2="1920" y2="2273.46"/>
    <line class="cls-3" x1="960" y1="2326.33" x2="1920" y2="2326.33"/>
    <line class="cls-3" x1="960" y1="2379.2" x2="1920" y2="2379.2"/>
    <line class="cls-3" x1="960" y1="2432.07" x2="1920" y2="2432.07"/>
    <line class="cls-3" x1="960" y1="2484.94" x2="1920" y2="2484.94"/>
    <line class="cls-3" x1="960" y1="2537.81" x2="1920" y2="2537.81"/>
    <line class="cls-3" x1="960" y1="2590.69" x2="1920" y2="2590.69"/>
    <line class="cls-3" x1="960" y1="2643.56" x2="1920" y2="2643.56"/>
    <line class="cls-3" x1="960" y1="2696.43" x2="1920" y2="2696.43"/>
    <line class="cls-3" x1="960" y1="2749.3" x2="1920" y2="2749.3"/>
    <line class="cls-3" x1="960" y1="2802.17" x2="1920" y2="2802.17"/>
    <line class="cls-3" x1="960" y1="2855.04" x2="1920" y2="2855.04"/>
    <line class="cls-3" x1="960" y1="2907.91" x2="1920" y2="2907.91"/>
    <line class="cls-3" x1="960" y1="2960.78" x2="1920" y2="2960.78"/>
    <line class="cls-3" x1="960" y1="3013.65" x2="1920" y2="3013.65"/>
    <line class="cls-3" x1="960" y1="3066.53" x2="1920" y2="3066.53"/>
    <line class="cls-3" x1="960" y1="3119.4" x2="1920" y2="3119.4"/>
    <line class="cls-3" x1="960" y1="3172.27" x2="1920" y2="3172.27"/>
    <line class="cls-3" x1="960" y1="3225.14" x2="1920" y2="3225.14"/>
    <line class="cls-3" x1="960" y1="3278.01" x2="1920" y2="3278.01"/>
    <line class="cls-3" x1="960" y1="3330.88" x2="1920" y2="3330.88"/>
    <line class="cls-3" x1="960" y1="3383.75" x2="1920" y2="3383.75"/>
    <line class="cls-4" x1="960" y1="3436.62" x2="1920" y2="3436.62"/>
    <line class="cls-4" x1="960" y1="3489.49" x2="1920" y2="3489.49"/>
    <line class="cls-4" x1="960" y1="3542.37" x2="1920" y2="3542.37"/>
    <line class="cls-4" x1="960" y1="3595.24" x2="1920" y2="3595.24"/>
    <line class="cls-4" x1="960" y1="3648.11" x2="1920" y2="3648.11"/>
    <line class="cls-4" x1="960" y1="3700.98" x2="1920" y2="3700.98"/>
    <line class="cls-4" x1="960" y1="3753.85" x2="1920" y2="3753.85"/>
    <line class="cls-4" x1="960" y1="3806.72" x2="1920" y2="3806.72"/>
    <line class="cls-4" x1="960" y1="3859.59" x2="1920" y2="3859.59"/>
    <line class="cls-4" x1="960" y1="3912.46" x2="1920" y2="3912.46"/>
    <line class="cls-4" x1="960" y1="3965.33" x2="1920" y2="3965.33"/>
    <line class="cls-3" x1="960" y1="4018.21" x2="1920" y2="4018.21"/>
    <line class="cls-3" x1="960" y1="4071.08" x2="1920" y2="4071.08"/>
    <line class="cls-3" x1="960" y1="4123.95" x2="1920" y2="4123.95"/>
  </g>
</svg>