<?xml version="1.0" encoding="UTF-8"?>
<svg id="Layer_1" data-name="Layer 1" xmlns="http://www.w3.org/2000/svg" viewBox="0 0 2219.29 812.58">
  <defs>
    <style>
      .cls-1 {
        stroke-width: 3px;
      }

      .cls-1, .cls-2, .cls-3, .cls-4, .cls-5, .cls-6, .cls-7, .cls-8, .cls-9, .cls-10, .cls-11 {
        stroke-miterlimit: 10;
      }

      .cls-1, .cls-2, .cls-3, .cls-4, .cls-9, .cls-10, .cls-11 {
        fill: none;
      }

      .cls-1, .cls-3, .cls-11 {
        stroke: #333232;
      }

      .cls-12 {
        letter-spacing: -.02em;
      }

      .cls-2 {
        stroke: #f8c647;
      }

      .cls-2, .cls-3 {
        stroke-width: 6px;
      }

      .cls-13 {
        font-size: 54.38px;
      }

      .cls-13, .cls-14, .cls-15, .cls-16, .cls-17, .cls-18 {
        fill: #fff;
      }

      .cls-13, .cls-15, .cls-16, .cls-17, .cls-18 {
        font-family: Unbounded-Regular, Unbounded;
        font-variation-settings: 'wght' 400;
      }

      .cls-19 {
        letter-spacing: -.02em;
      }

      .cls-4 {
        stroke-width: 15px;
      }

      .cls-4, .cls-5, .cls-6, .cls-7, .cls-8 {
        stroke: #d7a828;
      }

      .cls-20 {
        fill: #f8c646;
      }

      .cls-21 {
        fill: #f8c647;
      }

      .cls-22 {
        fill: #ee2f7f;
      }

      .cls-23, .cls-5, .cls-6 {
        fill: #ffc616;
      }

      .cls-24 {
        fill: #fcd57e;
      }

      .cls-25, .cls-8 {
        fill: #333232;
      }

      .cls-26, .cls-7 {
        fill: #d7a828;
      }

      .cls-27 {
        fill: #3f3e3e;
      }

      .cls-28 {
        fill: #3f3c3c;
      }

      .cls-29 {
        fill: #545eaa;
      }

      .cls-30 {
        letter-spacing: -.03em;
      }

      .cls-5 {
        stroke-width: 2px;
      }

      .cls-31 {
        letter-spacing: -.18em;
      }

      .cls-15 {
        font-size: 48px;
      }

      .cls-32 {
        letter-spacing: -.02em;
      }

      .cls-16 {
        font-size: 16px;
      }

      .cls-17 {
        font-size: 51px;
      }

      .cls-18 {
        font-size: 46px;
      }

      .cls-33 {
        letter-spacing: -.03em;
      }

      .cls-9 {
        stroke: #ee2f7f;
      }

      .cls-9, .cls-10, .cls-11 {
        stroke-width: 4px;
      }

      .cls-10 {
        stroke: #ffc616;
      }

      .cls-34 {
        letter-spacing: -.03em;
      }

      .cls-35 {
        letter-spacing: 0em;
      }

      .cls-36 {
        letter-spacing: -.02em;
      }

      .cls-37 {
        letter-spacing: 0em;
      }
    </style>
  </defs>
  <g>
    <g>
      <path class="cls-6" d="m514.58,594.3s65.88-2.01,109.5-22.56c43.62-20.55,130.97-24.96,135.38-22.75,4.4,2.2,6.61,31.86,19.08,36.85s22.75,24.76,23.49,34.33-2.2,34.52-3.67,49.2-10.28,34.5-16.88,38.9c-6.61,4.4-36.85,19.36-59.9,17.02,0,0-51.68,26.29-84.71,34.36,0,0-65.33,30.83-88.82,33.77s-57.25-1.09-74.87-41.65c-17.62-40.56-26.42-48.54-25.69-69.88s-4.49-32.34-.04-52.16c4.45-19.82,9.58-33.03,9.58-33.03,0,0,19.82-6.61,32.3-2.94s7.63-1.61,25.25.54"/>
      <path class="cls-7" d="m487.31,644.35c2.78-7.05,11.16-9.53,18.14-8.81,21.01,2.12,33.27,28.16,43.75,43.92,0,0,11.27,17.95,11.27,17.95,2.83,4.44,6.04,9.45,6.59,14.97.64,5.47-.52,11.01-1.7,16.24-2.89,12.22-7.33,24.12-13.81,34.93-7.17,11.56-19.76,9.59-30.9,6.08-12.14-3.71-24.28-9.3-32.67-19.18-2.43-2.84-4.39-6.11-5.94-9.51-2.86-6.69-4.12-13.46-7.04-20.02-2.02-4.84-4.44-9.72-6.18-14.76-5.38-15.46-3.39-32.05-1.03-47.81l.46.05c-.73,13.93-1.79,28.18,2.15,41.7,1.95,6.72,5.34,12.8,8.31,19.19,3.06,6.28,4.66,13.51,7.52,19.77,5.77,12.56,18.31,19.88,30.87,24.63,8.35,2.95,20.6,7.89,28.21,1.4,2.35-2.03,4.08-4.97,5.73-8.03,4.96-9.19,8.76-19.03,11.28-29.18,1.22-5.04,2.39-10.06,1.89-15.19-.49-5.18-3.25-9.43-5.96-13.91,0,0-10.98-18.13-10.98-18.13-3.28-5.25-7.69-12.97-10.97-18.11-7.15-11.3-16.72-24.29-30.93-26.04-6.69-.85-14.79,1.31-17.62,8.02,0,0-.42-.18-.42-.18h0Z"/>
      <path class="cls-7" d="m494.21,652.6c-1.18,6.06-6.65,34.79-7.69,40.16-1,4.85-1.51,6.99,2.83,10.26,6.47,4.45,7.85,10.77,9.82,17.83.85,2.92,1.74,5.78,3.32,8.3,1.87,3.24,5.28,5.3,7.26,8.51,5.86,10.77,14.83,19.26,26.69,22.79,0,0-1.54.87-1.54.87,2.19-8.87,6.86-17.13,13.35-23.58,4.82-4.47,5.59-6.57,5-13.11-1.54-23.15-15.56-42.95-29.78-60.42-2.98-3.5-6.42-8.39-10.92-9.85-5.23-1.56-6.53,3.98-7.33,8.07,0,0-1.13,5.23-1.13,5.23-.59,2.95-1.7,7.34-2.1,10.25-.5,3.4,1.2,5.66,2.78,8.77,2.94,5.98,4.42,14.63,6.14,20.97,0,0,2.53,10.39,2.53,10.39.36,1.44.68,2.93,1.5,3.98,1.57,1.7,4.32,1.76,6.41,3.14,2.64,1.53,4.45,4.5,5.9,6.76.87,1.3,1.59,2.52,2.85,3.4,1.09.78,2.52,1.23,3.52,1.13,2.57-.21,1.61-4.4,1.27-6.1-.75-3.13-2.35-6.25-3.76-9.63-1.08-2.55-2.04-5.43-2.29-8.28-.24-2.72.21-5.61.22-8.17.02-5.12-1.51-10.12-3.6-14.78-1.41-3.19-3.1-6.29-4.79-9.42-.82-1.51-2.73-4.22-4.57-3.76-1.28.5-1.38,2.27-1.61,3.61-.39,2.57-.47,5.18-.25,7.78.59,6.94,3.3,13.74,7.78,19.23l-.34.3c-4.93-5.24-8.1-12.13-9.09-19.35-.38-2.71-.44-5.49-.16-8.22.13-1.41.3-3.13,1.31-4.38,3.12-3.58,7.58.43,9.23,3.47,4.64,7.75,9.42,16.17,9.65,25.48.07,2.78-.3,5.24-.03,7.85.3,2.48,1.13,4.72,2.18,7.06,2.26,5,7.67,14.71,3.04,19.87-1.81,1.95-4.86,2.19-7.21,1.43-5.44-1.56-6.84-6.37-10.05-10.01-1.09-1.16-2.03-1.6-3.59-2.14-1.92-.64-4.21-1.46-5.65-3.27-1.45-1.76-1.96-3.87-2.45-5.85,0,0-2.55-10.38-2.55-10.38-1.52-5.74-3.09-14.88-5.62-20.07-2.81-5.22-4.12-7.92-2.57-14.16.86-3.76,2.16-9.26,3.03-13.03,1.03-5.09,3.03-11.04,9.3-11.41,3.18-.15,6.29,1.64,8.56,3.51,2.58,2.03,5.32,5.69,7.4,8.24,14.4,18.13,28.51,38.72,29.79,62.61.2,2.74.3,5.79-.72,8.51-.99,2.73-3.36,4.88-5.28,6.73-1.24,1.22-2.41,2.49-3.52,3.82-4.69,5.68-8.02,12.47-9.72,19.65,0,0-1.22-.38-1.22-.38-12.26-3.76-21.74-12.9-27.56-24.06-1.97-3.21-5.32-5.31-7.15-8.67-1.65-2.71-2.56-5.81-3.37-8.77-1.41-5.11-2.41-10.66-6.1-14.61-1.8-2.05-4.42-3.3-5.94-5.75-1.67-2.51-.7-5.67-.15-8.37,1.09-5.24,7.09-34.19,8.31-40.04,0,0,.45.09.45.09h0Z"/>
      <polygon class="cls-7" points="617.17 616.21 626.27 608.58 620.73 619.08 617.17 616.21 617.17 616.21"/>
      <path class="cls-7" d="m632.87,639.23c.05-2.49-.02-4.94-.28-7.39-.11-1.11-.24-2.48-.51-3.56,0,0-.31-1.16-.31-1.16-.45-1.57-.3-3.18-.02-4.77.17-.91.39-1.78.79-2.68,0,0,.44-.12.44-.12,1.52,1.15,2.48,2.82,3.04,4.61.57,1.69.12,3.53-.04,5.24-.07.65-.24,1.94-.34,2.58-.12.63-.41,1.91-.57,2.53-.46,1.66-1.01,3.29-1.75,4.83l-.45-.1h0Z"/>
      <path class="cls-7" d="m642.56,659.63c.38-2.03.83-4.81,1.14-6.86.09-.56.06-1.14.07-1.71,0-1.2.64-2.15,1.42-3.07.43-.48.93-.96,1.67-1.42l.45.07c.96,1.22,1.31,2.49,1.31,3.9.03,1.28-.89,2.29-1.44,3.36-.55,1.09-1.19,2.13-1.9,3.12-.72.99-1.46,1.94-2.32,2.81l-.41-.21h0Z"/>
      <path class="cls-7" d="m651.53,687.79c5.79,3.9,11.19,8.25,16.15,12.98-5.88-3.52-12.01-6.5-18.28-8.93l2.13-4.05h0Z"/>
      <path class="cls-7" d="m649.74,680.5c4.31-1.51,8.81-.67,11.89,1.57-3.71-.86-7.45.31-9.67,2.43l-2.22-4h0Z"/>
      <path class="cls-7" d="m636.23,680c-.36,8.4-1.31,16.72-2.82,24.88,0-8.3-.6-16.55-1.75-24.66l4.57-.22h0Z"/>
      <g>
        <path class="cls-8" d="m535.16,591.33s51.99,11.76,69.92,38.96c17.94,27.2,37.61,61.91,32.98,90.85-4.63,28.93-19.99,47.75-24.62,48.9,0,0,25.57-2.71,31.94-13.13,6.37-10.42,24.51-25.36,16.99-47.93-7.52-22.57-23.72-70.22-38.48-88.92-14.76-18.7-27.49-29.12-40.22-31.43-12.73-2.31-18.52-2.89-18.52-2.89l-30,5.6Z"/>
        <path class="cls-7" d="m537.43,590.92c-.05-.59-.52-1.28-1.02-1.54-.31-.2-.71-.26-.57-.23h.06c.35.09,1.23.32,1.61.42,22.65,6.18,49.73,16.71,65.5,34.76.7.89,1.74,2.1,2.36,3.03,10.03,14.91,19.26,30.48,26.25,47.09,5.66,13.83,9.86,28.79,8.33,43.88-2.19,16.81-8.86,34.91-19.89,47.93-1.8,1.94-3.71,4.14-6.32,5,0,0-.44-2.47-.44-2.47,5.2-.61,10.46-1.66,15.48-3.16,5.19-1.63,10.54-3.65,14.38-7.62.64-.76,1.11-1.38,1.67-2.28,2.22-3.39,4.86-6.49,7.28-9.69,6.4-8.2,11.9-17.94,11.05-28.63-.18-2.59-.69-5.17-1.48-7.66-4.12-12.7-8.47-25.36-13.17-37.87-5.68-14.95-11.69-29.92-19.76-43.76-5.51-9.1-12.68-17.21-20.24-24.67-5.77-5.49-12.25-10.47-19.79-13.21-2.51-.9-5.11-1.43-7.75-1.89-5.26-.94-10.54-1.85-15.85-2.49-9,1.66-18.49,3.33-27.71,5.05h0Zm-4.49.83c10.72-1.99,21.42-4.1,32.23-6.15,5.33.6,10.61,1.46,15.89,2.35,2.63.43,5.3.95,7.84,1.84,2.52.92,5.02,2.04,7.31,3.4,11.56,6.92,20.63,17.25,28.86,27.75,4.78,6.36,8.64,13.74,12.12,20.88,10.41,21.78,18.42,44.57,26.15,67.41.85,2.6,1.41,5.31,1.62,8.05,1.01,11.11-4.64,21.52-11.19,30.02-2.88,3.77-5.71,7.39-8.28,11.36-3.97,4.91-10.2,7.34-16.02,9.23-7.69,2.51-16.77,3.55-24.83,4.48,0,0,8.48-3.56,8.48-3.56.2-.07.38-.15.57-.25,1.71-1.01,3.09-2.51,4.42-4.02,1.57-1.8,2.99-3.76,4.32-5.77,5.3-8.11,9.15-17.19,11.7-26.53,1.27-4.65,2.26-9.48,2.79-14.24,1.34-14.53-2.89-28.96-8.47-42.26-6.74-15.74-15.7-30.45-25.2-44.68-.54-.74-1.49-2.14-2.11-2.84-14.72-17.92-42.75-28.48-64.77-34.26,0,0-.88-.21-.88-.21l-.44-.1-.22-.05h-.05c.11.01-.33-.07-.68-.27-.55-.28-1.07-.97-1.19-1.59h0Z"/>
      </g>
      <path class="cls-7" d="m734.04,600.75c7.97,1.53,16.4,1.51,24.65-.18-7.81,3.14-16.37,4.8-25.09,4.73l.44-4.55h0Z"/>
      <polygon class="cls-7" points="733.18 595.52 741.82 591.33 736.1 599.04 733.18 595.52 733.18 595.52"/>
      <path class="cls-7" d="m746.12,639.95c1.49-1.1,2.76-2.4,3.52-4.02,0,0,.16-.54.16-.54.31-1.04,1.47-1.29,2.39-1.67.28-.09.57-.2.97-.3l.44.13c.45.56.68,1.15.79,1.81.21,1.46-.45,2.75-1.8,3.35-1.1.66-2.22,1.32-3.47,1.55-.97.21-1.95.28-2.89.12l-.1-.45h0Z"/>
      <polygon class="cls-7" points="749.05 647.96 759.98 650.25 749.05 652.54 749.05 647.96 749.05 647.96"/>
      <path class="cls-7" d="m750.26,674.31c4.64.22,9.55-.76,14.06-2.98-3.63,3.48-8.3,6.14-13.53,7.53l-.53-4.54h0Z"/>
      <polygon class="cls-7" points="751.97 685.1 762.89 687.39 751.97 689.67 751.97 685.1 751.97 685.1"/>
      <path class="cls-8" d="m650.46,562.19s53.57,11.97,66.3,39.74c12.73,27.77,23.15,45.13,21.99,64.81-1.16,19.67-15.04,53.81-17.36,58.44s13.03.88,21.06-1.64c13.85-4.34,17.71-65.48,7.3-90.37-10.42-24.88-10.99-45.13-31.83-56.71-20.83-11.57-36.89-19.16-46.73-19.16s-20.73,4.88-20.73,4.88Z"/>
      <path class="cls-7" d="m530.39,621.5c-3.99,3.63-7.35,8.2-9.69,13.4.88-5.63,2.96-11.23,6.17-16.31l3.52,2.92h0Z"/>
      <path class="cls-7" d="m555.47,653.25c-3.01,1.15-5.98,2.24-8.45,4.27-2.39,1.98-4.17,5.06-3.72,8.32-1.93-5.19,1.79-10.62,5.85-13.66,1.38-1.1,2.83-2.06,4.21-3l2.11,4.06h0Z"/>
      <polygon class="cls-7" points="497.24 617 496.38 632.72 492.68 617.41 497.24 617 497.24 617"/>
      <path class="cls-7" d="m479.31,618.21c-4.84-3.09-9.91-5.87-15.17-8.31,5.53,1.73,10.97,3.83,16.27,6.31l-1.1,2.01h0Z"/>
      <path class="cls-7" d="m486.79,768.39c3.6,1.77,7.54,3.09,11.68,3.87-4.15.75-8.49.95-12.89.55l1.2-4.41h0Z"/>
      <path class="cls-7" d="m513.47,764.94c-2.25,3.27-1.64,8.02.68,11.19.85,1.17,1.96,2.18,3.3,2.9-4.78-1.19-8.18-5.83-8.72-10.69-.2-1.73-.03-3.59.61-5.36l4.13,1.97h0Z"/>
      <path class="cls-7" d="m553.57,778.78c6.84-2.28,14.34-4.91,18.12-11.5,1.22-2.11,1.97-4.55,1.85-7.05.31,2.48-.25,5.04-1.34,7.32-2.19,4.64-6.48,7.95-10.96,10.24-2.25,1.17-4.57,2.16-6.86,3.13l-.81-2.14h0Z"/>
      <path class="cls-7" d="m574.37,724.72c6.98-6.17,10.29-16.38,8.39-25.69,1.71,4.6,2.13,9.76,1.29,14.78-.85,5.02-2.96,9.95-6.36,14.06l-3.31-3.16h0Z"/>
      <rect class="cls-4" x="609.02" y="628.96" width="36.94" height="35.3" rx="8.45" ry="8.45" transform="translate(-199.93 289.92) rotate(-22.54)"/>
      <rect class="cls-4" x="716.18" y="605.58" width="36.94" height="35.3" rx="10.62" ry="10.62" transform="translate(-182.78 329.21) rotate(-22.54)"/>
      <rect class="cls-6" x="617.45" y="620.65" width="10.32" height="28.41" rx="4.02" ry="4.02" transform="translate(-195.79 287.15) rotate(-22.54)"/>
      <rect class="cls-6" x="726.03" y="595.51" width="10.32" height="28.41" rx="4.02" ry="4.02" transform="translate(-177.86 326.85) rotate(-22.54)"/>
      <path class="cls-7" d="m455.04,629.51c1.65-12.74,12.86-22.62,25.13-25.05,25.46-4.98,49.86,11.59,64.48,31.27,11.3,15.14,18.64,32.7,24.8,50.41,6.07,17.81,9.9,36.95,6.84,55.75-2.48,15.7-9.96,31.13-22.88,40.8-9.66,7.27-21.99,11.4-34.12,9.97-24.11-3.01-39.25-25.16-49.26-45.25-11.46-23.22-20.12-48.07-23.5-73.85-1.24-10.24-2.4-20.76-.13-30.98,3.35-15.46,16.27-25,31.45-27.02,23.11-3.45,42.91,11.25,57.74,27.35,2.13,2.29,4.18,4.64,6.22,6.99l-.34.31c-10.62-11.11-22.16-22.03-36.49-28.07-9.71-4.21-20.82-5.27-31.04-2.44-7.09,1.96-13.86,5.86-18.28,11.81-5.41,7.23-6.55,16.57-6.22,25.39,1.68,30.83,11.32,60.8,24.65,88.5,9.24,19.06,22.99,40.39,45.65,43.54,6.65.84,13.53-.13,19.78-2.53,12.87-4.76,22.98-15.13,28.55-27.57,7.67-16.87,7.81-36.17,3.93-54.07-5.7-23.87-14.61-47.82-28.83-67.98-14.09-19.46-37.81-36.04-62.82-31.47-12.02,2.23-23.11,11.77-24.87,24.21,0,0-.45-.06-.45-.06h0Z"/>
      <path class="cls-7" d="m457.47,664.15c-4.26-19.15,10.8-37.38,30.3-36.09-18.04.18-31.3,17.98-25.87,34.91,0,0-4.42,1.17-4.42,1.17h0Z"/>
    </g>
    <g>
      <polygon class="cls-21" points="989.34 529.36 958.95 542.45 926.98 516.43 928.43 534.39 958.99 560.82 990.65 546.91 989.34 529.36"/>
      <polygon class="cls-27" points="989.34 529.36 989.34 549.5 1052.56 518.66 1053.84 499.25 989.34 529.36"/>
      <polygon class="cls-22" points="999.8 527.19 999.8 540.42 1041.34 520.15 1042.19 507.4 999.8 527.19"/>
      <polygon class="cls-24" points="957.81 501.75 926.98 516.43 959.55 542.91 989.34 529.36 957.81 501.75"/>
      <path class="cls-22" d="m937.28,521.14c-.48.53-.43.67.16.4l.7-.15c.83-.16,1.67-.24,2.51-.36.69-.09,1.37-.19,2.05-.33.23-.04.45-.09.68-.16.73-.1.61-.22-.37-.37l-.45-3.51c-.37.42-.59.81-.76,1.34-.24.71.01,1.67.57,2.17,1.08.96,2.28.84,3.48.19l-2.71-3.51c-.36.3-1.85,1.08-2.6,1.48-.57.31-2.98,1.1-2.61,1.78l-1.33,3.28c.67-.11,1.34-.22,2.01-.33,2.13-.34,2.14-3.97,0-4.31-1.21-.19-2.27-1.13-3.55-.75-1.12.33-1.79,1.43-1.97,2.53-.41,2.49,2.08,4.71,4.49,3.74,2.63-1.07,1.48-5.39-1.19-4.31l.85,1.77-1.58.65c-.9-.01-.56-.08.22.25.52.22.99.34,1.55.42v-4.31c-.67.11-1.34.22-2.01.33-1.48.24-1.96,2.14-1.33,3.28,1.46,2.66,4.29,1.9,6.57.89,1.93-.86,4.04-1.87,5.65-3.25,1.98-1.69-.55-4.69-2.71-3.51-.17.12-.21.13-.13.04l2.17.57-.11-.1.57,2.17-.38.63c.99-1.1.8-2.7-.45-3.51-.96-.62-2.04-.31-3.07-.08-1.38.31-2.78.47-4.18.68-2.41.36-5.36,1.19-5.18,4.21.17,2.86,4.64,2.87,4.46,0h0Z"/>
      <polyline class="cls-27" points="942.44 517.14 944.01 518.19 943.5 520.85 969.58 511.42 965.88 509.78 943.5 516.9"/>
      <path class="cls-22" d="m943.68,524.23c-.54.89-.52,1.16.06.83.45-.15.9-.28,1.36-.4.68-.18,1.38-.32,2.07-.48s1.37-.34,2.05-.56c.19-.07.39-.14.58-.21.7-.16.49-.29-.65-.4l-.8-3.05c-.19.26-.31.59-.38.91-.25,1.05.19,1.91,1.03,2.52.94.68,2.13.36,3.01-.24l-2.71-3.51c-.8.83-1.91,1.46-2.87,2.08-.58.38-1.18.75-1.79,1.08-.25.14-.51.27-.77.4-.66.15-.49.33.53.54l-1.33,3.28c.66-.17,1.32-.35,1.97-.52,2.51-.66,1.86-4.24-.59-4.39-1.27-.08-2.28-.95-3.55-.21-.98.56-1.46,1.83-1.41,2.91.12,2.7,2.92,3.96,5.17,2.77,2.55-1.34.29-5.19-2.25-3.86l1.19,1.68-1.58.65c.25-.02,1.8.48,2.42.52l-.59-4.39c-.66.17-1.32.35-1.97.52-1.32.35-2.15,2.08-1.33,3.28,1.65,2.41,4.09,1.91,6.35.67,1.87-1.03,4.06-2.31,5.56-3.86,1.7-1.76-.54-4.98-2.71-3.51-.18.09-.21.12-.1.1l1.72.23-.12-.09,1.03,2.52-.07.16c.69-.94.19-2.54-.8-3.05s-1.78-.33-2.79-.05c-1.45.41-2.89.81-4.35,1.17-2.77.69-5.41,1.81-4.88,5.14.45,2.83,4.75,1.63,4.31-1.19h0Z"/>
      <polyline class="cls-27" points="948.49 520.12 950.16 521.02 949.91 523.71 974.95 511.78 971.11 510.51 949.52 519.78"/>
      <path class="cls-22" d="m953.1,524.22c-.54.89-.52,1.16.06.83.45-.15.9-.28,1.36-.4.68-.18,1.38-.32,2.07-.48s1.37-.34,2.05-.56c.19-.07.39-.14.58-.21.7-.16.49-.29-.65-.4l-.8-3.05c-.19.26-.31.59-.38.91-.25,1.05.19,1.91,1.03,2.52.94.68,2.13.36,3.01-.24l-2.71-3.51c-.8.83-1.91,1.46-2.87,2.08-.58.38-1.18.75-1.79,1.08-.25.14-.51.27-.77.4-.66.15-.49.33.53.54l-1.33,3.28c.66-.17,1.32-.35,1.97-.52,2.51-.66,1.86-4.24-.59-4.39-1.27-.08-2.28-.95-3.55-.21-.98.56-1.46,1.83-1.41,2.91.12,2.7,2.92,3.96,5.17,2.77,2.55-1.34.29-5.19-2.25-3.86l1.19,1.68-1.58.65c.25-.02,1.8.48,2.42.52l-.59-4.39c-.66.17-1.32.35-1.97.52-1.32.35-2.15,2.08-1.33,3.28,1.65,2.41,4.09,1.91,6.35.67,1.87-1.03,4.06-2.31,5.56-3.86,1.7-1.76-.54-4.98-2.71-3.51-.18.09-.21.12-.1.1l1.72.23-.12-.09,1.03,2.52-.07.16c.69-.94.19-2.54-.8-3.05s-1.78-.33-2.79-.05c-1.45.41-2.89.81-4.35,1.17-2.77.69-5.41,1.81-4.88,5.14.45,2.83,4.75,1.63,4.31-1.19h0Z"/>
      <polyline class="cls-27" points="957.91 520.11 959.58 521.01 959.33 523.7 984.37 511.77 980.53 510.5 958.94 519.77"/>
      <path class="cls-22" d="m951.36,529.95c-.54.89-.52,1.16.06.83.45-.15.9-.28,1.36-.4.68-.18,1.38-.32,2.07-.48s1.37-.34,2.05-.56c.19-.07.39-.14.58-.21.7-.16.49-.29-.65-.4l-.8-3.05c-.19.26-.31.59-.38.91-.25,1.05.19,1.91,1.03,2.52.94.68,2.13.36,3.01-.24l-2.71-3.51c-.8.83-1.91,1.46-2.87,2.08-.58.38-1.18.75-1.79,1.08-.25.14-.51.27-.77.4-.66.15-.49.33.53.54l-1.33,3.28c.66-.17,1.32-.35,1.97-.52,2.51-.66,1.86-4.24-.59-4.39-1.27-.08-2.28-.95-3.55-.21-.98.56-1.46,1.83-1.41,2.91.12,2.7,2.92,3.96,5.17,2.77,2.55-1.34.29-5.19-2.25-3.86l1.19,1.68-1.58.65c.25-.02,1.8.48,2.42.52l-.59-4.39c-.66.17-1.32.35-1.97.52-1.32.35-2.15,2.08-1.33,3.28,1.65,2.41,4.09,1.91,6.35.67,1.87-1.03,4.06-2.31,5.56-3.86,1.7-1.76-.54-4.98-2.71-3.51-.18.09-.21.12-.1.1l1.72.23-.12-.09,1.03,2.52-.07.16c.69-.94.19-2.54-.8-3.05s-1.78-.33-2.79-.05c-1.45.41-2.89.81-4.35,1.17-2.77.69-5.41,1.81-4.88,5.14.45,2.83,4.75,1.63,4.31-1.19h0Z"/>
      <polyline class="cls-27" points="956.17 525.84 957.84 526.73 957.59 529.43 982.63 517.5 978.79 516.23 957.2 525.5"/>
      <path class="cls-22" d="m956.08,533.53c-.54.89-.52,1.16.06.83.45-.15.9-.28,1.36-.4.68-.18,1.38-.32,2.07-.48s1.37-.34,2.05-.56c.19-.07.39-.14.58-.21.7-.16.49-.29-.65-.4l-.8-3.05c-.19.26-.31.59-.38.91-.25,1.05.19,1.91,1.03,2.52.94.68,2.13.36,3.01-.24l-2.71-3.51c-.8.83-1.91,1.46-2.87,2.08-.58.38-1.18.75-1.79,1.08-.25.14-.51.27-.77.4-.66.15-.49.33.53.54l-1.33,3.28c.66-.17,1.32-.35,1.97-.52,2.51-.66,1.86-4.24-.59-4.39-1.27-.08-2.28-.95-3.55-.21-.98.56-1.46,1.83-1.41,2.91.12,2.7,2.92,3.96,5.17,2.77,2.55-1.34.29-5.19-2.25-3.86l1.19,1.68-1.58.65c.25-.02,1.8.48,2.42.52l-.59-4.39c-.66.17-1.32.35-1.97.52-1.32.35-2.15,2.08-1.33,3.28,1.65,2.41,4.09,1.91,6.35.67,1.87-1.03,4.06-2.31,5.56-3.86,1.7-1.76-.54-4.98-2.71-3.51-.18.09-.21.12-.1.1l1.72.23-.12-.09,1.03,2.52-.07.16c.69-.94.19-2.54-.8-3.05s-1.78-.33-2.79-.05c-1.45.41-2.89.81-4.35,1.17-2.77.69-5.41,1.81-4.88,5.14.45,2.83,4.75,1.63,4.31-1.19h0Z"/>
      <polyline class="cls-27" points="960.89 529.42 962.56 530.32 962.31 533.01 987.35 521.08 983.51 519.82 961.92 529.08"/>
      <path class="cls-22" d="m965.08,534.93c-.54.89-.52,1.16.06.83.45-.15.9-.28,1.36-.4.68-.18,1.38-.32,2.07-.48s1.37-.34,2.05-.56c.19-.07.39-.14.58-.21.7-.16.49-.29-.65-.4l-.8-3.05c-.19.26-.31.59-.38.91-.25,1.05.19,1.91,1.03,2.52.94.68,2.13.36,3.01-.24l-2.71-3.51c-.8.83-1.91,1.46-2.87,2.08-.58.38-1.18.75-1.79,1.08-.25.14-.51.27-.77.4-.66.15-.49.33.53.54l-1.33,3.28c.66-.17,1.32-.35,1.97-.52,2.51-.66,1.86-4.24-.59-4.39-1.27-.08-2.28-.95-3.55-.21-.98.56-1.46,1.83-1.41,2.91.12,2.7,2.92,3.96,5.17,2.77,2.55-1.34.29-5.19-2.25-3.86l1.19,1.68-1.58.65c.25-.02,1.8.48,2.42.52l-.59-4.39c-.66.17-1.32.35-1.97.52-1.32.35-2.15,2.08-1.33,3.28,1.65,2.41,4.09,1.91,6.35.67,1.87-1.03,4.06-2.31,5.56-3.86,1.7-1.76-.54-4.98-2.71-3.51-.18.09-.21.12-.1.1l1.72.23-.12-.09,1.03,2.52-.07.16c.69-.94.19-2.54-.8-3.05s-1.78-.33-2.79-.05c-1.45.41-2.89.81-4.35,1.17-2.77.69-5.41,1.81-4.88,5.14.45,2.83,4.75,1.63,4.31-1.19h0Z"/>
      <polyline class="cls-27" points="969.9 530.82 971.56 531.72 971.31 534.41 996.36 522.48 992.51 521.21 970.93 530.48"/>
      <path class="cls-22" d="m961.22,528.87c-.54.89-.52,1.16.06.83.45-.15.9-.28,1.36-.4.68-.18,1.38-.32,2.07-.48s1.37-.34,2.05-.56c.19-.07.39-.14.58-.21.7-.16.49-.29-.65-.4l-.8-3.05c-.19.26-.31.59-.38.91-.25,1.05.19,1.91,1.03,2.52.94.68,2.13.36,3.01-.24l-2.71-3.51c-.8.83-1.91,1.46-2.87,2.08-.58.38-1.18.75-1.79,1.08-.25.14-.51.27-.77.4-.66.15-.49.33.53.54l-1.33,3.28c.66-.17,1.32-.35,1.97-.52,2.51-.66,1.86-4.24-.59-4.39-1.27-.08-2.28-.95-3.55-.21-.98.56-1.46,1.83-1.41,2.91.12,2.7,2.92,3.96,5.17,2.77,2.55-1.34.29-5.19-2.25-3.86l1.19,1.68-1.58.65c.25-.02,1.8.48,2.42.52l-.59-4.39c-.66.17-1.32.35-1.97.52-1.32.35-2.15,2.08-1.33,3.28,1.65,2.41,4.09,1.91,6.35.67,1.87-1.03,4.06-2.31,5.56-3.86,1.7-1.76-.54-4.98-2.71-3.51-.18.09-.21.12-.1.1l1.72.23-.12-.09,1.03,2.52-.07.16c.69-.94.19-2.54-.8-3.05s-1.78-.33-2.79-.05c-1.45.41-2.89.81-4.35,1.17-2.77.69-5.41,1.81-4.88,5.14.45,2.83,4.75,1.63,4.31-1.19h0Z"/>
      <polyline class="cls-27" points="966.03 524.75 967.7 525.65 967.45 528.34 992.49 516.41 988.65 515.15 967.06 524.41"/>
      <path class="cls-22" d="m943.92,514.65c-.54.89-.52,1.16.06.83.45-.15.9-.28,1.36-.4.68-.18,1.38-.32,2.07-.48s1.37-.34,2.05-.56c.19-.07.39-.14.58-.21.7-.16.49-.29-.65-.4l-.8-3.05c-.19.26-.31.59-.38.91-.25,1.05.19,1.91,1.03,2.52.94.68,2.13.36,3.01-.24l-2.71-3.51c-.8.83-1.91,1.46-2.87,2.08-.58.38-1.18.75-1.79,1.08-.25.14-.51.27-.77.4-.66.15-.49.33.53.54l-1.33,3.28c.66-.17,1.32-.35,1.97-.52,2.51-.66,1.86-4.24-.59-4.39-1.27-.08-2.28-.95-3.55-.21-.98.56-1.46,1.83-1.41,2.91.12,2.7,2.92,3.96,5.17,2.77,2.55-1.34.29-5.19-2.25-3.86l1.19,1.68-1.58.65c.25-.02,1.8.48,2.42.52l-.59-4.39c-.66.17-1.32.35-1.97.52-1.32.35-2.15,2.08-1.33,3.28,1.65,2.41,4.09,1.91,6.35.67,1.87-1.03,4.06-2.31,5.56-3.86,1.7-1.76-.54-4.98-2.71-3.51-.18.09-.21.12-.1.1l1.72.23-.12-.09,1.03,2.52-.07.16c.69-.94.19-2.54-.8-3.05s-1.78-.33-2.79-.05c-1.45.41-2.89.81-4.35,1.17-2.77.69-5.41,1.81-4.88,5.14.45,2.83,4.75,1.63,4.31-1.19h0Z"/>
      <polyline class="cls-27" points="948.73 510.54 950.4 511.44 950.15 514.13 975.19 502.2 971.35 500.93 949.76 510.2"/>
      <polygon class="cls-21" points="955.02 501.61 989.34 529.36 1053.69 499.12 1018.86 473.63 955.02 501.61"/>
    </g>
    <g>
      <path class="cls-21" d="m779.82,342.37s45.32,5.35,84.58-1.43c0,0-5.35,51.32-11.78,58.49,0,0-10.34,5.09-28.68,5.37-8.7.13-19.21-.82-31.27-3.92,0,0-13.2-36.39-12.85-58.52Z"/>
      <path class="cls-25" d="m872.29,338.06c-.25-3.95-4.38-6.33-8.05-7.81-.7-.28-1.45-.6-1.85-1.24-.48-.77-.29-1.78-.57-2.64-.43-1.33-1.84-2.04-3.11-2.61-4.96-2.23-9.92-4.46-14.88-6.69.14-1.17-.75-2.27-1.83-2.75-1.07-.48-2.29-.49-3.47-.49-4.69,0-10.8-.94-15.5-.94h0s0,0,0,0,0,0,0,0h0c-4.7,0-10.81.95-15.5.94-1.18,0-2.4,0-3.47.49-1.07.48-1.97,1.58-1.83,2.75-4.96,2.23-9.92,4.46-14.88,6.69-1.27.57-2.68,1.28-3.11,2.61-.28.86-.1,1.87-.57,2.64-.4.64-1.15.96-1.85,1.24-3.67,1.48-7.8,3.86-8.05,7.81-.05.88.14,1.83.8,2.41.61.54,2.97,2.09,3.77,2.18,15.39,1.62,29.43,2.59,44.7,1.74,15.26.84,29.3-.12,44.7-1.74.81-.09,3.17-1.64,3.77-2.18.66-.58.85-1.54.8-2.41Z"/>
      <path class="cls-1" d="m782.79,332.56s-6.6-44.69,40.14-44.84,40.31,44.84,40.31,44.84"/>
      <path class="cls-25" d="m862.38,497.69c-.26-6.07-1.32-4.75-1.32-4.75,0,0,.53-35.61,0-47.22-.53-11.61-4.48-16.09-9.76-19.41-5.28-3.32-3.69-14.1-3.69-14.1,0,0-1.58-2.37,4.75-3.79s2.9-8.99,2.9-8.99l-32.54,2.31-32.54-2.31s-3.43,7.57,2.9,8.99,4.75,3.79,4.75,3.79c0,0,1.58,10.77-3.69,14.1-5.28,3.32-9.23,7.81-9.76,19.41-.53,11.61,0,47.22,0,47.22,0,0-1.06-1.32-1.32,4.75-.26,6.07-.53,10.29,11.61,12.13,7.29,1.11,17.33,1.55,24.2,1.73v.12s1.47,0,3.86-.04c2.39.04,3.86.04,3.86.04v-.12c6.86-.18,16.9-.62,24.19-1.73,12.13-1.85,11.87-6.07,11.61-12.13Z"/>
      <path class="cls-22" d="m861.75,493.28c-3.33.32-6.66.6-10,.83-17.84,1.23-35.84,1.98-53.63.13-3.91-.41-8.04-.27-11.92-.92-.63-.1-1.22-.22-1.82-.38.01,1.04,0,0,0,0,0,0-1.06-1.32-1.32,4.75-.26,6.07-.53,10.29,11.61,12.13,7.29,1.11,17.33,1.55,24.2,1.73v.12s1.47,0,3.86-.04c2.39.04,3.86.04,3.86.04v-.12c6.86-.18,16.9-.62,24.19-1.73,12.13-1.85,11.87-6.07,11.61-12.13-.11-2.6-.37-3.84-.63-4.41Z"/>
    </g>
    <g>
      <line class="cls-2" x1="1107" y1="285.75" x2="1028.3" y2="389.67"/>
      <polyline class="cls-2" points="1026.64 179.52 1026.64 391.99 914.27 290.08"/>
      <path class="cls-25" d="m1020.22,397.96c3.43.6,6.98.55,10.4-.14,1.31-.26,2.62-.63,3.74-1.35s2.06-1.82,2.32-3.13c.24-1.21-.13-2.49-.79-3.54s-1.6-1.89-2.58-2.64c-.84-.64-1.74-1.24-2.77-1.47-2.19-.49-4.39.78-6.03,2.32-1.83,1.72-3.28,3.83-4.22,6.16-.52,1.27-.64,2.54-.07,3.79"/>
      <line class="cls-2" x1="873.78" y1="181.8" x2="878.33" y2="417.82"/>
      <path class="cls-2" d="m950.67,477.06l152.86-201.67s8.64-.33,10.01-18.98,3.64-36.92,11.83-38.02"/>
      <polyline class="cls-2" points="875.58 270.04 941.11 477.06 875.58 275.39"/>
      <path class="cls-22" d="m860.06,141.13l10.55,64.25s71.44-17.71,159.67-14.13l-2.4-60.67s-128.5,2.4-167.82,10.55Z"/>
      <path class="cls-22" d="m1013.9,211.82l21.84-6.44s48.23,8.19,121.47,3.22l-26.69,16.42s-21.08,5.91-37.46,6.37c-16.38.45-79.16-19.56-79.16-19.56Z"/>
      <path class="cls-22" d="m862.4,231.4s-4.55,6.1,4.09,5.32,17.74,6.5,31.85,6.96c14.1.45,30.94,5.05,35.03,2.98s-3.64-8.25-12.28-9.94-34.12-6.22-41.4-5.32c-7.28.9-17.29,0-17.29,0Z"/>
      <polyline class="cls-2" points="985.79 293.72 883.33 417.82 950.67 293.72 1100.76 440.36 1043.48 297.81"/>
      <path class="cls-25" d="m1089.03,446.13s1.31-4.78,5.23-4.84,3.36-.69,4.11-2.86,3.58-1.99,4.72-1.74,2.75.5,4.87.5,5.48.5,5.48,2.74v8.96s-2.61,3.98-8.46,3.98-8.46-.37-9.83-1.74-6.1-4.99-6.1-4.99Z"/>
      <path class="cls-25" d="m960.24,476.39s-1.31-4.78-5.23-4.84-3.36-.69-4.11-2.86-3.58-1.99-4.72-1.74-2.75.5-4.87.5-5.48.5-5.48,2.74v8.96s2.61,3.98,8.46,3.98,8.46-.37,9.83-1.74,6.1-4.99,6.1-4.99Z"/>
      <path class="cls-25" d="m873.71,418.23l-.04-5.41c0-.43,0-.88.16-1.28.19-.46.58-.81.92-1.18.79-.84,1.37-1.86,2.17-2.7s1.9-1.51,3.04-1.36c1.39.18,2.32,1.46,3.41,2.35,1.12.91,2.53,1.46,3.97,1.53,1.19.06,2.42-.18,3.54.21,1.17.4,2,1.42,2.71,2.43.92,1.33,1.71,2.75,2.36,4.24.28.63.53,1.38.21,2-.29.57-.96.81-1.56,1-3.42,1.1-6.88,2.21-10.46,2.43-3.58.22-6.64,0-9.39-2.3-.56-.47-1.36-1.32-1.04-1.97"/>
      <path class="cls-25" d="m1093.82,284.43c3.17,3.25,7.53,5.31,12.06,5.71,2.38.21,4.81-.03,7.16.43,1.32.26,2.59.74,3.75,1.42.43.25,1.05.51,1.37.13.11-.13.15-.3.17-.47.21-1.41-.33-2.8-.61-4.2s-.24-3.04.82-3.99c.81-.72,1.97-.82,3-1.15s2.11-1.17,1.96-2.25c-.07-.47-.37-.88-.71-1.22-1.78-1.77-4.53-2.01-7.04-2.15-4.1-.23-8.2-.46-12.29-.69-1.86-.1-3.75-.21-5.57.18s-3.6,1.34-4.59,2.93-.97,3.85.34,5.17"/>
      <path class="cls-22" d="m866.04,257.77l22.29-2.27s37.76,12.28,51.41,10.92c13.65-1.36,40.95-8.64,55.05-15.47s32.3-11.37,39.13-8.64c6.82,2.73,22.3,26.84,32.76,28.21s32.81,5.9,44.19,5.9-.51,4.56-9.61,7.74-42.31,25.21-72.79,25.12-57.32-13.74-72.79-8.74-16.38,6.71-26.39,4.04-25.48-8.13-33.67-13.14-29.57-33.67-29.57-33.67Z"/>
    </g>
    <g>
      <g>
        <path class="cls-8" d="m541.93,468.97l120.97-4.35s24.62,17.79,1.47,40.97l-120.97,4.35-1.47-40.97Z"/>
        <ellipse class="cls-6" cx="542.67" cy="489.45" rx="19.57" ry="20.5" transform="translate(-17.25 19.83) rotate(-2.06)"/>
        <path class="cls-26" d="m538.12,475.44c2.69-1.04,5.92-.22,7.95,1.78s3.27,5.16,3.83,7.98c1.09,5.55-.48,12.91-5.7,15.96-2.22,1.3-5.41,2.06-7.71.52-1.1-.74-1.79-1.93-2.35-3.09-.51-1.07-.89-2.22-1.11-3.39-.44-2.36-.16-4.86,1-6.98,1.22-2.25,3.77-4.85,6.52-4.81,1.59.03,2.49,1.16,3.06,2.51.48,1.14.85,2.43.72,3.68-.14,1.35-1.03,2.5-2.3,2.99-.75.29-1.66.18-2.19-.48-.62-.76-.05-1.79.32-2.53.29-.57-.57-1.07-.86-.5-.69,1.37-1.22,3.02.23,4.09,1.3.96,2.92.53,4.1-.4,2.29-1.81,1.88-4.87.87-7.27-.53-1.25-1.31-2.41-2.65-2.88-1.62-.56-3.42.03-4.81.91-2.51,1.61-4.38,4.23-4.97,7.16s-.06,5.67,1.13,8.23c.62,1.33,1.41,2.63,2.63,3.5s2.86,1.18,4.39,1.04c7.27-.67,10.96-8.19,11-14.78.03-6.36-3.44-14.97-10.97-14.69-.82.03-1.62.18-2.38.48-.59.23-.33,1.19.26.96h0Z"/>
        <path class="cls-26" d="m570.89,478.23c9.23-.33,18.45-.66,27.68-1,.64-.02.64-1.02,0-.99-9.23.33-18.45.66-27.68,1-.64.02-.64,1.02,0,.99h0Z"/>
        <path class="cls-26" d="m587.39,482.13c6.65-.24,13.31-.48,19.96-.72.64-.02.64-1.02,0-.99-6.65.24-13.31.48-19.96.72-.64.02-.64,1.02,0,.99h0Z"/>
        <path class="cls-26" d="m575.47,491.87c13.36-.48,26.71-.96,40.07-1.44,3.73-.13,7.47-.27,11.2-.4.64-.02.64-1.02,0-.99-13.36.48-26.71.96-40.07,1.44-3.73.13-7.47.27-11.2.4-.64.02-.64,1.02,0,.99h0Z"/>
        <path class="cls-26" d="m627.19,502.53c6.5-.23,13.01-.47,19.51-.7.64-.02.64-1.02,0-.99-6.5.23-13.01.47-19.51.7-.64.02-.64,1.02,0,.99h0Z"/>
        <path class="cls-26" d="m624.26,484.01c9.77-.35,19.54-.7,29.3-1.05,2.78-.1,5.57-.2,8.35-.3.64-.02.64-1.02,0-.99-9.77.35-19.54.7-29.3,1.05-2.78.1-5.57.2-8.35.3-.64.02-.64,1.02,0,.99h0Z"/>
      </g>
      <g>
        <path class="cls-8" d="m560.9,432.4l120.97-4.35s24.62,17.79,1.47,40.97l-120.97,4.35-1.47-40.97Z"/>
        <ellipse class="cls-6" cx="561.64" cy="452.89" rx="19.57" ry="20.5" transform="translate(-15.92 20.49) rotate(-2.06)"/>
        <path class="cls-26" d="m557.09,438.87c2.69-1.04,5.92-.22,7.95,1.78s3.27,5.16,3.83,7.98c1.09,5.55-.48,12.91-5.7,15.96-2.22,1.3-5.41,2.06-7.71.52-1.1-.74-1.79-1.93-2.35-3.09-.51-1.07-.89-2.22-1.11-3.39-.44-2.36-.16-4.86,1-6.98,1.22-2.25,3.77-4.85,6.52-4.81,1.59.03,2.49,1.16,3.06,2.51.48,1.14.85,2.43.72,3.68-.14,1.35-1.03,2.5-2.3,2.99-.75.29-1.66.18-2.19-.48-.62-.76-.05-1.79.32-2.53.29-.57-.57-1.07-.86-.5-.69,1.37-1.22,3.02.23,4.09,1.3.96,2.92.53,4.1-.4,2.29-1.81,1.88-4.87.87-7.27-.53-1.25-1.31-2.41-2.65-2.88-1.62-.56-3.42.03-4.81.91-2.51,1.61-4.38,4.23-4.97,7.16s-.06,5.67,1.13,8.23c.62,1.33,1.41,2.63,2.63,3.5s2.86,1.18,4.39,1.04c7.27-.67,10.96-8.19,11-14.78s-3.44-14.97-10.97-14.69c-.82.03-1.62.18-2.38.48-.59.23-.33,1.19.26.96h0Z"/>
        <path class="cls-26" d="m589.87,441.66c9.23-.33,18.45-.66,27.68-1,.64-.02.64-1.02,0-.99-9.23.33-18.45.66-27.68,1-.64.02-.64,1.02,0,.99h0Z"/>
        <path class="cls-26" d="m606.36,445.56c6.65-.24,13.31-.48,19.96-.72.64-.02.64-1.02,0-.99-6.65.24-13.31.48-19.96.72-.64.02-.64,1.02,0,.99h0Z"/>
        <path class="cls-26" d="m594.45,455.3c13.36-.48,26.71-.96,40.07-1.44,3.73-.13,7.47-.27,11.2-.4.64-.02.64-1.02,0-.99-13.36.48-26.71.96-40.07,1.44-3.73.13-7.47.27-11.2.4-.64.02-.64,1.02,0,.99h0Z"/>
        <path class="cls-26" d="m646.17,465.96c6.5-.23,13.01-.47,19.51-.7.64-.02.64-1.02,0-.99-6.5.23-13.01.47-19.51.7-.64.02-.64,1.02,0,.99h0Z"/>
        <path class="cls-26" d="m643.23,447.45c9.77-.35,19.54-.7,29.3-1.05,2.78-.1,5.57-.2,8.35-.3.64-.02.64-1.02,0-.99-9.77.35-19.54.7-29.3,1.05-2.78.1-5.57.2-8.35.3-.64.02-.64,1.02,0,.99h0Z"/>
      </g>
      <g>
        <path class="cls-8" d="m581.41,396.89l120.97-4.35s24.62,17.79,1.47,40.97l-121,3.57-1.45-40.19Z"/>
        <ellipse class="cls-23" cx="582.14" cy="417.37" rx="19.57" ry="20.5" transform="translate(-14.63 21.2) rotate(-2.06)"/>
        <path class="cls-26" d="m577.59,403.36c2.69-1.04,5.92-.22,7.95,1.78s3.27,5.16,3.83,7.98c1.09,5.55-.48,12.91-5.7,15.96-2.22,1.3-5.41,2.06-7.71.52-1.1-.74-1.79-1.93-2.35-3.09-.51-1.07-.89-2.22-1.11-3.39-.44-2.36-.16-4.86,1-6.98,1.22-2.25,3.77-4.85,6.52-4.81,1.59.03,2.49,1.16,3.06,2.51.48,1.14.85,2.43.72,3.68-.14,1.35-1.03,2.5-2.3,2.99-.75.29-1.66.18-2.19-.48-.62-.76-.05-1.79.32-2.53.29-.57-.57-1.07-.86-.5-.69,1.37-1.22,3.02.23,4.09,1.3.96,2.92.53,4.1-.4,2.29-1.81,1.88-4.87.87-7.27-.53-1.25-1.31-2.41-2.65-2.88-1.62-.56-3.42.03-4.81.91-2.51,1.61-4.38,4.23-4.97,7.16s-.06,5.67,1.13,8.23c.62,1.33,1.41,2.63,2.63,3.5s2.86,1.18,4.39,1.04c7.27-.67,10.96-8.19,11-14.78.03-6.36-3.44-14.97-10.97-14.69-.82.03-1.62.18-2.38.48-.59.23-.33,1.19.26.96h0Z"/>
        <path class="cls-26" d="m610.37,406.15c9.23-.33,18.45-.66,27.68-1,.64-.02.64-1.02,0-.99-9.23.33-18.45.66-27.68,1-.64.02-.64,1.02,0,.99h0Z"/>
        <path class="cls-26" d="m626.87,410.05c6.65-.24,13.31-.48,19.96-.72.64-.02.64-1.02,0-.99-6.65.24-13.31.48-19.96.72-.64.02-.64,1.02,0,.99h0Z"/>
        <path class="cls-26" d="m614.95,419.79c13.36-.48,26.71-.96,40.07-1.44,3.73-.13,7.47-.27,11.2-.4.64-.02.64-1.02,0-.99-13.36.48-26.71.96-40.07,1.44-3.73.13-7.47.27-11.2.4-.64.02-.64,1.02,0,.99h0Z"/>
        <path class="cls-26" d="m666.67,430.45l19.51-.7c.64-.02.64-1.02,0-.99l-19.51.7c-.64.02-.64,1.02,0,.99h0Z"/>
        <path class="cls-26" d="m663.73,411.94c9.77-.35,19.54-.7,29.3-1.05,2.78-.1,5.57-.2,8.35-.3.64-.02.64-1.02,0-.99-9.77.35-19.54.7-29.3,1.05-2.78.1-5.57.2-8.35.3-.64.02-.64,1.02,0,.99h0Z"/>
      </g>
      <g>
        <path class="cls-8" d="m582.73,468.89l120.97-4.35s24.62,17.79,1.47,40.97l-120.97,4.35-1.47-40.97Z"/>
        <ellipse class="cls-6" cx="583.47" cy="489.37" rx="19.57" ry="20.5" transform="translate(-17.22 21.3) rotate(-2.06)"/>
        <path class="cls-26" d="m578.91,475.36c2.69-1.04,5.92-.22,7.95,1.78s3.27,5.16,3.83,7.98c1.09,5.55-.48,12.91-5.7,15.96-2.22,1.3-5.41,2.06-7.71.52-1.1-.74-1.79-1.93-2.35-3.09-.51-1.07-.89-2.22-1.11-3.39-.44-2.36-.16-4.86,1-6.98,1.22-2.25,3.77-4.85,6.52-4.81,1.59.03,2.49,1.16,3.06,2.51.48,1.14.85,2.43.72,3.68-.14,1.35-1.03,2.5-2.3,2.99-.75.29-1.66.18-2.19-.48-.62-.76-.05-1.79.32-2.53.29-.57-.57-1.07-.86-.5-.69,1.37-1.22,3.02.23,4.09,1.3.96,2.92.53,4.1-.4,2.29-1.81,1.88-4.87.87-7.27-.53-1.25-1.31-2.41-2.65-2.88-1.62-.56-3.42.03-4.81.91-2.51,1.61-4.38,4.23-4.97,7.16s-.06,5.67,1.13,8.23c.62,1.33,1.41,2.63,2.63,3.5s2.86,1.18,4.39,1.04c7.27-.67,10.96-8.19,11-14.78s-3.44-14.97-10.97-14.69c-.82.03-1.62.18-2.38.48-.59.23-.33,1.19.26.96h0Z"/>
        <path class="cls-26" d="m611.69,478.15c9.23-.33,18.45-.66,27.68-1,.64-.02.64-1.02,0-.99-9.23.33-18.45.66-27.68,1-.64.02-.64,1.02,0,.99h0Z"/>
        <path class="cls-26" d="m628.19,482.05c6.65-.24,13.31-.48,19.96-.72.64-.02.64-1.02,0-.99-6.65.24-13.31.48-19.96.72-.64.02-.64,1.02,0,.99h0Z"/>
        <path class="cls-26" d="m616.27,491.79c13.36-.48,26.71-.96,40.07-1.44,3.73-.13,7.47-.27,11.2-.4.64-.02.64-1.02,0-.99-13.36.48-26.71.96-40.07,1.44-3.73.13-7.47.27-11.2.4-.64.02-.64,1.02,0,.99h0Z"/>
        <path class="cls-26" d="m667.99,502.45c6.5-.23,13.01-.47,19.51-.7.64-.02.64-1.02,0-.99-6.5.23-13.01.47-19.51.7-.64.02-.64,1.02,0,.99h0Z"/>
        <path class="cls-26" d="m665.05,483.93c9.77-.35,19.54-.7,29.3-1.05,2.78-.1,5.57-.2,8.35-.3.64-.02.64-1.02,0-.99-9.77.35-19.54.7-29.3,1.05-2.78.1-5.57.2-8.35.3-.64.02-.64,1.02,0,.99h0Z"/>
      </g>
      <g>
        <path class="cls-8" d="m602.66,432.4l120.97-4.35s24.62,17.79,1.47,40.97l-120.97,4.35-1.47-40.97Z"/>
        <ellipse class="cls-6" cx="603.39" cy="452.89" rx="19.57" ry="20.5" transform="translate(-15.89 21.99) rotate(-2.06)"/>
        <path class="cls-26" d="m598.84,438.87c2.69-1.04,5.92-.22,7.95,1.78s3.27,5.16,3.83,7.98c1.09,5.55-.48,12.91-5.7,15.96-2.22,1.3-5.41,2.06-7.71.52-1.1-.74-1.79-1.93-2.35-3.09-.51-1.07-.89-2.22-1.11-3.39-.44-2.36-.16-4.86,1-6.98,1.22-2.25,3.77-4.85,6.52-4.81,1.59.03,2.49,1.16,3.06,2.51.48,1.14.85,2.43.72,3.68-.14,1.35-1.03,2.5-2.3,2.99-.75.29-1.66.18-2.19-.48-.62-.76-.05-1.79.32-2.53.29-.57-.57-1.07-.86-.5-.69,1.37-1.22,3.02.23,4.09,1.3.96,2.92.53,4.1-.4,2.29-1.81,1.88-4.87.87-7.27-.53-1.25-1.31-2.41-2.65-2.88-1.62-.56-3.42.03-4.81.91-2.51,1.61-4.38,4.23-4.97,7.16s-.06,5.67,1.13,8.23c.62,1.33,1.41,2.63,2.63,3.5s2.86,1.18,4.39,1.04c7.27-.67,10.96-8.19,11-14.78s-3.44-14.97-10.97-14.69c-.82.03-1.62.18-2.38.48-.59.23-.33,1.19.26.96h0Z"/>
        <path class="cls-26" d="m631.62,441.66c9.23-.33,18.45-.66,27.68-1,.64-.02.64-1.02,0-.99-9.23.33-18.45.66-27.68,1-.64.02-.64,1.02,0,.99h0Z"/>
        <path class="cls-26" d="m648.11,445.56c6.65-.24,13.31-.48,19.96-.72.64-.02.64-1.02,0-.99-6.65.24-13.31.48-19.96.72-.64.02-.64,1.02,0,.99h0Z"/>
        <path class="cls-26" d="m636.2,455.3c13.36-.48,26.71-.96,40.07-1.44,3.73-.13,7.47-.27,11.2-.4.64-.02.64-1.02,0-.99-13.36.48-26.71.96-40.07,1.44-3.73.13-7.47.27-11.2.4-.64.02-.64,1.02,0,.99h0Z"/>
        <path class="cls-26" d="m687.92,465.96l19.51-.7c.64-.02.64-1.02,0-.99l-19.51.7c-.64.02-.64,1.02,0,.99h0Z"/>
        <path class="cls-26" d="m684.98,447.45c9.77-.35,19.54-.7,29.3-1.05,2.78-.1,5.57-.2,8.35-.3.64-.02.64-1.02,0-.99-9.77.35-19.54.7-29.3,1.05-2.78.1-5.57.2-8.35.3-.64.02-.64,1.02,0,.99h0Z"/>
      </g>
      <g>
        <path class="cls-8" d="m622.38,466.72l120.97-4.35s24.62,17.79,1.47,40.97l-120.97,4.35-1.47-40.97Z"/>
        <ellipse class="cls-6" cx="623.12" cy="487.21" rx="19.57" ry="20.5" transform="translate(-17.12 22.72) rotate(-2.06)"/>
        <path class="cls-26" d="m618.56,473.19c2.69-1.04,5.92-.22,7.95,1.78s3.27,5.16,3.83,7.98c1.09,5.55-.48,12.91-5.7,15.96-2.22,1.3-5.41,2.06-7.71.52-1.1-.74-1.79-1.93-2.35-3.09-.51-1.07-.89-2.22-1.11-3.39-.44-2.36-.16-4.86,1-6.98,1.22-2.25,3.77-4.85,6.52-4.81,1.59.03,2.49,1.16,3.06,2.51.48,1.14.85,2.43.72,3.68-.14,1.35-1.03,2.5-2.3,2.99-.75.29-1.66.18-2.19-.48-.62-.76-.05-1.79.32-2.53.29-.57-.57-1.07-.86-.5-.69,1.37-1.22,3.02.23,4.09,1.3.96,2.92.53,4.1-.4,2.29-1.81,1.88-4.87.87-7.27-.53-1.25-1.31-2.41-2.65-2.88-1.62-.56-3.42.03-4.81.91-2.51,1.61-4.38,4.23-4.97,7.16s-.06,5.67,1.13,8.23c.62,1.33,1.41,2.63,2.63,3.5s2.86,1.18,4.39,1.04c7.27-.67,10.96-8.19,11-14.78s-3.44-14.97-10.97-14.69c-.82.03-1.62.18-2.38.48-.59.23-.33,1.19.26.96h0Z"/>
        <path class="cls-26" d="m651.34,475.98c9.23-.33,18.45-.66,27.68-1,.64-.02.64-1.02,0-.99-9.23.33-18.45.66-27.68,1-.64.02-.64,1.02,0,.99h0Z"/>
        <path class="cls-26" d="m667.84,479.88c6.65-.24,13.31-.48,19.96-.72.64-.02.64-1.02,0-.99-6.65.24-13.31.48-19.96.72-.64.02-.64,1.02,0,.99h0Z"/>
        <path class="cls-26" d="m655.92,489.62c13.36-.48,26.71-.96,40.07-1.44,3.73-.13,7.47-.27,11.2-.4.64-.02.64-1.02,0-.99-13.36.48-26.71.96-40.07,1.44-3.73.13-7.47.27-11.2.4-.64.02-.64,1.02,0,.99h0Z"/>
        <path class="cls-26" d="m707.64,500.28l19.51-.7c.64-.02.64-1.02,0-.99l-19.51.7c-.64.02-.64,1.02,0,.99h0Z"/>
        <path class="cls-26" d="m704.7,481.77c9.77-.35,19.54-.7,29.3-1.05l8.35-.3c.64-.02.64-1.02,0-.99-9.77.35-19.54.7-29.3,1.05l-8.35.3c-.64.02-.64,1.02,0,.99h0Z"/>
      </g>
    </g>
    <g id="ghRitt">
      <g>
        <path class="cls-22" d="m1103.36,584.63h1.25c3.11,2.41,6.6,4.36,9.86,6.44,12.47,7.94,23.74,17.35,34.93,26.87,11.08,9.43,23.15,17.48,34.88,26.02,3.1,2.25,5.97,4.92,9.55,6.55,1.42.64.93,1.57-.19,2.29-1.57,1-1.78,1.84,0,3.08,1.45,1.01,2.96,1.76,4.51,2.55,1.67.85,3.95,1.51,3.07,4.29-.58.38-1.18.75-.22,1.37l-1.23,1.22c-.83.07-1.93-.52-2.36.6-.34.87.42,1.19,1.16,1.34.22,1.42.44,2.85.65,4.27-2.56,1.37-5.37,1.91-8.16,2.49.05-.2.12-.4.14-.6.08-.81,1.77-1.48.52-2.28-1.35-.86-2.79.27-4.19.51-.78.14-1.08.77-.76,1.39.64,1.24,1.75.58,2.73.55.47-.01.94.36,1.42.55-4.36,2.66-9.72,3-13.93,6.02-.49.35-1.08.67-1.66.77-3.67.63-6.54,2.85-9.75,4.49,1.09,1.39,2.3-.3,3.2.55.84.94-2.68,1.41-.22,2.48-3.92,1.91-8.24,2.89-12.01,5.17-.22-.66-.67-1.21-1.37-.89-4.86,2.2-10.2,3.49-14.28,7.24-6.34,2.86-12.79,5.49-18.98,8.64-4.19,2.14-9.01,2.51-12.96,5.12-.87-2.02-1.95-.29-2.68.02-2.29.98-4.42,2.45-7.26,1.59.41-.77.98-.94,1.56-1.17,3.46-1.37,6.99-2.58,10.34-4.19,6.6-3.16,12.86-7.12,20.2-8.48,1.79-.33,2.37-2.52,4.44-2.45,1.87.06,3.68-.6,5.31-1.56,2.08-1.22,4.14-2.28,5.88-4.22,1.51-1.68,4.53-1.89,6.46-3.33,3.99-2.97,8.24-5.28,12.8-7.27,5.73-2.5,11.47-4.97,17.29-7.26.73-.29,1.53-.63,1.26-1.45-.33-1-1.25-.98-2.3-.99-4.82-.03-8.57,2.98-12.91,4.3-6.58,2.01-11.88,6.63-18.28,9.2-7.41,2.98-14.37,7.15-21.26,11.17-5.69,3.32-11.31,6.65-17.29,9.46-6.66,3.13-13.24,6.38-20.08,9.12-1.52.61-3.28,1.08-4.66,2.9,2.92-.37,5.23-1.05,7.25-2.58,1.01-.77,2.17-.63,2.69.34.29.55-.65,1.39-1.47,1.56-1.48.31-2.69,1.21-4.21,1.56-1.52.34-4.07,0-4.11,2.81-1.4.81-2.71,1.91-4.22,2.36-5.13,1.55-9.73,4.38-14.82,6.01-1.22-1.62-1.95.18-2.91.42-.25.7-.93.62-1.46.82-.4.18-.8.37-1.2.55,0,0,.09.03.09.03-1.05-.02-2.16-.21-2.66,1.09-.91.71-1.95,1.13-3.08,1.32-1.03.09-2.16-.06-3.07.31-3.85,1.57-7.63,3.31-11.43,4.98-.74.32-1.22.79-1.03,1.68-.69.76-1.59,1.11-2.57,1.31-2.71-1.42-4.1.35-5.45,2.24-5.54,2.47-11.03,5.06-16.64,7.36-3.36,1.38-6.45,3.64-10.34,3.48.51-1.48,1.62-2.37,3-2.95,8.24-3.45,16.49-6.88,24.72-10.34,1.2-.5,2.39-1.08,2.89-3.09-6.94,2.35-13.3,5.01-19.64,7.56-4.94,1.99-9.76,4.4-14.87,5.94-1.78.54-3.23,1.28-4.45,2.46-1.01.98-1.87,1.56-3.39,1.56-2.09,0-2.11,1.23-.91,2.64-1.83.74-3.63,1.26-5.18-.56-4.14-4.84-8.47-9.52-12.34-14.56-3.25-4.23-6.8-8.21-9.82-12.67-1.92-2.83-4.72-5.4-6.9-8.19-7.56-9.69-14.71-19.7-22.21-29.43-7.4-9.6-15.72-18.48-22.66-28.44-1.35-1.94-3.58-3.59-3.1-6.54.09-.52-.76-1.21-1.64-1.09v-1.25c2.89-1.25,5.08-3.58,8.25-4.55,9.24-2.83,18.03-6.95,27.14-10.21,7.91-2.83,15.82-5.69,23.69-8.63,9.91-3.7,19.78-7.51,29.67-11.29.37-.14,1.03-.52,1-.62-.86-2.66,1.88-2.04,2.51-2.12,4.51-.53,8.77-2.13,12.96-3.5,11.45-3.75,22.73-8.06,33.93-12.51,2.61-1.04,5.46-1,7.86-2.29,7.17-3.84,14.75-6.77,22.28-9.72,3.77-1.48,7.82-2.32,11.44-4.24,2.23-1.18,4.53-1.97,7.07-1.67,1.98.24,3.63-.31,4.92-1.86Zm70.08,84.45c-.69,0-1.35.14-1.87.64-1.76.77-3.52,1.53-5.28,2.3,1.92-.45,4.28-.11,5.27-2.32.68-.07,1.41.04,1.9-.61.18-.05.36-.09.54-.14-.05-.08-.11-.17-.16-.25-.13.13-.26.25-.39.38Zm-163.31-24.4l.17.16-.18-.14c-.07-1.18-.33-2.29-1.24-3.13-.16-3.19-1.95-5.55-4.23-7.66,1.41,2.55,2.82,5.1,4.23,7.66-.03,1.22.5,2.21,1.25,3.12Zm-8.13-16.89c.12.71-.08,1.58.97,2.11-.01-1.06-.46-1.6-.97-2.1-.21-1.01-.1-2.17-1.54-2.89.12,1.36.74,2.17,1.55,2.88Zm9.37,19.41c-.08-.21-.16-.43-.24-.64-.02.07-.08.16-.05.2.09.15.21.29.32.43,1.09,2.71,2.54,5.22,4.3,7.55-1.07-2.72-1.82-5.63-4.32-7.53Zm50.71,65.06c.19-.06.38-.13.57-.19-.2-.15-.39-.29-.59-.44.06-1.14.89-1.23,1.75-1.33,1.14-.13,1.78-.88,1.49-1.92-1.16-4.13,1.3-6.55,4-8.92.45-.4.79-.92,1.19-1.39-2.8-1.31.56-3.01-.28-4.51-.27-.49.84-1.44-.34-1.79-1.1-.32-1.35.59-1.72,1.35-3.62,7.29-7.3,14.56-10.9,21.87-1.17,2.37-2.16,4.83-3.49,7.82,3.26-1.38,4.76-3.74,6.62-5.72,1.34-1.42,3.63-2.33,1.7-4.83Zm100.73-37.77c-1.76-.86-2.62-.05-3.53.35-5.2,2.26-10.41,4.48-15.56,6.85-5.61,2.59-10.91,5.82-16.93,7.56-4.02,1.16-7.22,4.08-10.91,6.01-4.76,2.49-9.4,5.21-14.25,7.51-6.08,2.87-11.81,6.41-17.86,9.32-7.6,3.66-15.45,6.81-23.17,10.24-6.43,2.86-13.1,5.32-19.16,8.83-6.14,3.56-12.72,6.07-19.1,8.97-7.5,3.41-15.03,6.74-22.25,10.71-2.51,1.38-5.47,2.02-7.48,4.29-.3.34-1.14.38-.77,1.08.27.5.86.64,1.33.23,2.56-2.23,6-2.73,8.78-4.34,5.41-3.14,11.02-5.57,16.91-7.64,6.23-2.19,12.22-5.05,18.82-6.06.49-.08,1.04-.27,1.41-.59,2.78-2.45,6.62-2.92,9.51-5.07,2.49-1.85,6.08-1.94,8.05-4.88-1.55-.44-2.73,1.23-4.31.29,7-4.13,15.29-4.88,21.74-9.04,6.87-4.42,15.18-2.92,22.39-6.86-1.65-.91-3.1.94-4.25-.87,23.13-12.88,46.35-25.36,70.58-36.87Zm-119.21,38.42c1.71,2.12,2.13,2.26,4.47,3.62,1.29.74,3.72.84,2.84,3.51-.16.48.27,1.05.82,1.18.83.2,1.01-.58,1.29-1.08.37-.67.22-1.38.04-2.11-2.73-11.27-8.18-21.25-15.21-30.27-4.39-5.64-8.99-11.02-12.4-17.4-1.68-3.15-3.28-6.55-6.05-9.11-.09.57.02,1.05.24,1.47,2.68,5.13,5.33,10.28,8.08,15.37,1.71,3.17,2.67,6.69,4.32,9.8,1.48,2.78,1.6,6.61,5.16,8.13.14.06.22.69.09.83-1.26,1.4-.13,2.22.69,3.15.56.64,1.02,1.42.88,2.27-.69,4.16,1.33,6.64,4.93,8.17.8.34,1.67.73,1.66,1.64-.01,1.31-1.57-.24-1.86.83Zm25.43-22.32c1.23.31,1.5-.13,1.91-.43,2.28-1.64,2.47-4.5,3.92-6.55,2.9-4.1,4.23-8.82,6.09-13.36,1.94-4.74,3.85-9.54,6.06-14.11,2.15-4.43,3.53-9.19,6.08-13.42.18-.3.09-.77.12-1.16-.24-.09-.48-.19-.72-.28-9.17,15.73-14.01,33.52-23.47,49.31Zm107.05-30.4c1.34-.18,3.11-.28,4.69-1.17,2.24-1.26,2.8-3.99,1.1-5.32-2.07-1.62-6.84-1.85-9.06-.45-2.36,1.5-3.02,3.85-1.3,5.23,1.16.93,2.51,1.81,4.57,1.7Zm-162.21-36.77c-2.67.02-6.11,2.34-6.15,4.15-.04,1.95,3.22,4.5,5.79,4.53,2.22.03,6.5-3.09,6.52-4.75.02-1.93-3.16-3.96-6.16-3.94Zm82.07,5.11c1.65.28,1.91-.27,2.05-.71,1.09-3.36,3.22-6.17,4.26-9.69,1.39-4.68,3.06-9.49,5.8-13.74,1.34-2.07,1.22-2.19-.48-4.39-5.97,8.67-5.96,19.51-11.63,28.53Zm-39.47,104.55c2.53-1.27,4.74-1.54,6.79-2.58,2.55-1.29,5.33-2.15,8.03-3.14.64-.23,1.61,1.05,2.01-.38.1-.35.05-.97-.17-1.15-.83-.65-1.67-.4-2.56.08-3.73,2.01-7.65,3.58-11.65,4.98-.85.3-1.85.38-2.45,2.19Zm134.33-75.01c-2.28,1.5-4.3,2.53-5.78,4.33-.44.54-.85,1.35.08,1.19,1.96-.34,3.96-.95,5.69-1.91,1.27-.7-.09-2.04,0-3.61Zm-94.91-25.98c-1.6,2.25-2.07,4.79-2.07,7.46.79-2.46,2.52-4.65,2.07-7.46Zm72.06,13.04c.57,1.97.38,3.51,1.42,4.98.93-.84,1.73-1.57,2.54-2.29-1.22-.83-2.24-1.52-3.96-2.69Zm-122.9,92.47c2.67.28,4.79-.71,7.07-2.68-3.31-.53-5.18,1.11-7.07,2.68Zm39.26-16.7c-2.96.06-5.49,1.33-7.84,3.03,2.95-.07,5.41-1.45,7.84-3.03Zm102.2-51.74c2.22.53,4.29.38,6.06-1.52-2.57-1.22-4.14.84-6.06,1.52Zm7.83-1.33c.17-.07.43-.18.69-.29-.23-.29-.42-.65-.72-.85-.12-.08-.64.15-.69.32-.13.42.13.73.71.81Z"/>
        <path class="cls-27" d="m1162.81,674.49c-24.23,11.51-47.45,23.99-70.58,36.87,1.15,1.8,2.61-.05,4.25.87-7.21,3.93-15.52,2.43-22.39,6.86-6.46,4.16-14.75,4.91-21.74,9.04,1.58.94,2.76-.72,4.31-.29-1.97,2.94-5.55,3.03-8.05,4.88-2.89,2.14-6.73,2.62-9.51,5.07-.36.32-.92.52-1.41.59-6.61,1.01-12.59,3.87-18.82,6.06-5.89,2.07-11.49,4.5-16.91,7.64-2.77,1.61-6.21,2.11-8.78,4.34-.48.41-1.07.28-1.33-.23-.37-.7.47-.74.77-1.08,2.01-2.27,4.97-2.91,7.48-4.29,7.22-3.97,14.75-7.3,22.25-10.71,6.38-2.9,12.96-5.4,19.1-8.97,6.06-3.51,12.73-5.97,19.16-8.83,7.72-3.43,15.56-6.58,23.17-10.24,6.04-2.91,11.77-6.45,17.86-9.32,4.85-2.29,9.49-5.02,14.25-7.51,3.69-1.93,6.89-4.84,10.91-6.01,6.02-1.74,11.32-4.97,16.93-7.56,5.15-2.37,10.36-4.6,15.56-6.85.91-.39,1.76-1.21,3.53-.35Z"/>
        <path class="cls-27" d="m1108.96,713.7c-3.85,3.01-8.55,4.22-12.96,6.01-2.66,1.08-5.04,2.97-8.07,3.09.05-2.81,2.59-2.47,4.11-2.81,1.52-.34,2.74-1.25,4.21-1.56.82-.17,1.77-1.02,1.47-1.56-.52-.98-1.68-1.12-2.69-.34-2.02,1.54-4.33,2.21-7.25,2.58,1.38-1.82,3.14-2.29,4.66-2.9,6.83-2.74,13.42-6,20.08-9.12,5.98-2.81,11.6-6.14,17.29-9.46,6.89-4.02,13.85-8.19,21.26-11.17,6.4-2.57,11.7-7.19,18.28-9.2,4.34-1.33,8.09-4.34,12.91-4.3,1.05,0,1.97-.02,2.3.99.27.82-.53,1.16-1.26,1.45-5.82,2.29-11.56,4.75-17.29,7.26-4.56,1.99-8.81,4.3-12.8,7.27-1.93,1.43-4.95,1.65-6.46,3.33-1.74,1.94-3.8,3-5.88,4.22-1.64.96-3.44,1.62-5.31,1.56-2.07-.07-2.65,2.12-4.44,2.45-7.34,1.36-13.6,5.32-20.2,8.48-3.35,1.6-6.88,2.82-10.34,4.19-.58.23-1.15.41-1.56,1.17,2.84.86,4.97-.6,7.26-1.59.73-.31,1.81-2.04,2.68-.02Z"/>
        <path class="cls-27" d="m1043.59,712.91c.29-1.07,1.85.48,1.86-.83,0-.91-.86-1.3-1.66-1.64-3.6-1.53-5.62-4.01-4.93-8.17.14-.85-.32-1.63-.88-2.27-.81-.93-1.95-1.75-.69-3.15.13-.15.04-.77-.09-.83-3.56-1.52-3.68-5.35-5.16-8.13-1.65-3.12-2.61-6.64-4.32-9.8-2.75-5.09-5.4-10.24-8.08-15.37-.22-.42-.33-.9-.24-1.47,2.77,2.56,4.37,5.95,6.05,9.11,3.41,6.38,8.01,11.76,12.4,17.4,7.02,9.02,12.48,19,15.21,30.27.18.74.32,1.45-.04,2.11-.28.5-.46,1.28-1.29,1.08-.55-.13-.98-.7-.82-1.18.88-2.67-1.55-2.76-2.84-3.51-2.35-1.36-2.76-1.5-4.47-3.61Zm-2.01-7.44c.87-1.82-.05-3.42-.27-5.75-1.05,2.42-.29,4.09.27,5.75Z"/>
        <path class="cls-27" d="m1199.21,671.53c2.36.51,2,1.54.57,2.83-1.16,1.04-2.72,1.17-4.04,1.97-8.02,4.88-16.7,8.39-25.42,11.8-.62.24-1.18.21-1.77.3-2.46-1.06,1.06-1.53.22-2.48-.9-.84-2.11.85-3.2-.55,3.21-1.64,6.08-3.86,9.75-4.49.58-.1,1.17-.42,1.66-.77,4.21-3.02,9.57-3.36,13.93-6.02l.15-.12c2.8-.58,5.61-1.11,8.16-2.49Z"/>
        <path class="cls-27" d="m1007.14,756.77c-2.91,2.46-6.06,4.11-10.03,3.06-1.02-.27-1.67.74-2.61.72-1.2-1.41-1.18-2.63.91-2.64,1.52,0,2.38-.58,3.39-1.56,1.21-1.19,2.67-1.93,4.45-2.46,5.11-1.54,9.93-3.95,14.87-5.94,6.34-2.56,12.7-5.21,19.64-7.56-.5,2.01-1.69,2.59-2.89,3.09-8.24,3.46-16.48,6.89-24.72,10.34-1.38.58-2.5,1.46-3,2.95Z"/>
        <path class="cls-27" d="m1069.02,690.59c9.45-15.79,14.3-33.58,23.47-49.31.24.09.48.19.72.28-.03.39.06.86-.12,1.16-2.55,4.23-3.94,9-6.08,13.42-2.22,4.56-4.12,9.37-6.06,14.11-1.86,4.54-3.19,9.25-6.09,13.36-1.45,2.05-1.64,4.92-3.92,6.55-.41.3-.69.73-1.91.43Z"/>
        <path class="cls-27" d="m1062.08,712.25c1.93,2.51-.36,3.41-1.7,4.83-1.87,1.98-3.37,4.34-6.62,5.72,1.33-2.99,2.33-5.45,3.49-7.82,3.6-7.3,7.27-14.57,10.9-21.87.38-.76.63-1.68,1.72-1.35,1.18.35.07,1.3.34,1.79.84,1.49-2.53,3.2.28,4.51-.39.47-.74.99-1.19,1.39-2.69,2.37-5.16,4.79-4,8.92.29,1.04-.35,1.8-1.49,1.92-.86.1-1.69.19-1.75,1.33l.02-.02c-.25.1-.49.19-.74.29.24.11.48.22.72.34l.02.02Z"/>
        <path class="cls-21" d="m1176.07,660.19c-2.07.11-3.42-.77-4.57-1.7-1.72-1.38-1.06-3.73,1.3-5.23,2.22-1.41,6.99-1.17,9.06.45,1.7,1.33,1.15,4.06-1.1,5.32-1.58.88-3.35.98-4.69,1.17Zm.45-2.93c.76,0,1.28.04,1.78,0,.92-.09,2.37.31,2.33-1.07-.02-.88-1.05-1.69-2.29-1.52-.4.06-.82,0-1.23,0-1.48.01-3.61-.28-3.57,1.68.04,2.04,2.16.4,2.98.92Z"/>
        <path class="cls-21" d="m1013.86,623.42c3.01-.02,6.18,2.01,6.16,3.94-.02,1.66-4.3,4.78-6.52,4.75-2.57-.03-5.83-2.59-5.79-4.53.04-1.81,3.48-4.14,6.15-4.15Zm1.89,5.58c1.47-.62,1.92-1.67.65-2.73-1.74-1.46-3.49-1.1-5.04.56-1.66,1.78.63,1.49,1.07,2.16,1.1.06,2.2,1.25,3.31.01Z"/>
        <path class="cls-27" d="m1095.93,628.53c5.66-9.03,5.66-19.86,11.63-28.53,1.7,2.21,1.82,2.32.48,4.39-2.74,4.25-4.41,9.06-5.8,13.74-1.04,3.51-3.17,6.33-4.26,9.69-.15.45-.4.99-2.05.71Z"/>
        <path class="cls-27" d="m1156.54,693.6c-5.07,2.47-10.18,4.86-15.65,6.34,4.08-3.74,9.41-5.03,14.28-7.24.69-.31,1.15.23,1.37.89Z"/>
        <path class="cls-27" d="m1056.46,733.07c.6-1.8,1.59-1.89,2.45-2.19,3.99-1.4,7.92-2.96,11.65-4.98.89-.48,1.74-.74,2.56-.08.23.18.27.8.17,1.15-.4,1.43-1.38.15-2.01.38-2.7.99-5.48,1.84-8.03,3.14-2.04,1.04-4.25,1.32-6.79,2.58Z"/>
        <path class="cls-27" d="m1057.67,735.41c-1.03,2.17-3.39,2.05-5.15,2.8-3.42,1.46-6.53,3.76-10.38,4.17-.19-.89.29-1.35,1.03-1.68,3.81-1.67,7.59-3.4,11.43-4.98.91-.37,2.04-.22,3.07-.31Z"/>
        <path class="cls-27" d="m1190.79,658.07c-.1,1.57,1.26,2.91,0,3.61-1.73.96-3.73,1.56-5.69,1.91-.92.16-.52-.65-.08-1.19,1.48-1.8,3.5-2.83,5.78-4.33Z"/>
        <path class="cls-27" d="m1095.88,632.09c.45,2.82-1.28,5-2.07,7.46,0-2.67.47-5.22,2.07-7.46Z"/>
        <path class="cls-27" d="m1190.91,674.13c-.47-.2-.95-.57-1.42-.55-.98.03-2.09.69-2.73-.55-.32-.62-.02-1.25.76-1.39,1.4-.24,2.85-1.37,4.19-.51,1.25.8-.44,1.47-.52,2.28-.02.2-.1.4-.14.6,0,0-.14.12-.14.12Z"/>
        <path class="cls-27" d="m1167.94,645.12c1.72,1.17,2.73,1.86,3.96,2.69-.81.73-1.6,1.45-2.54,2.29-1.03-1.47-.85-3.01-1.42-4.98Z"/>
        <path class="cls-27" d="m1045.03,737.6c1.9-1.58,3.76-3.22,7.07-2.68-2.28,1.97-4.4,2.96-7.07,2.68Z"/>
        <path class="cls-27" d="m1084.3,720.89c-2.43,1.57-4.89,2.96-7.84,3.03,2.35-1.7,4.88-2.97,7.84-3.03Z"/>
        <path class="cls-27" d="m1186.49,669.15c1.92-.68,3.48-2.74,6.06-1.52-1.77,1.9-3.83,2.05-6.06,1.52Z"/>
        <path class="cls-27" d="m1008.88,641.55c-1.41-2.55-2.82-5.1-4.23-7.66,2.28,2.11,4.07,4.47,4.23,7.66,0,0,0,0,0,0Z"/>
        <path class="cls-27" d="m1039.57,743.68c-1.78.85-3.32,2.25-5.45,2.24,1.35-1.89,2.74-3.66,5.45-2.24Z"/>
        <path class="cls-27" d="m1011.37,647.2c2.5,1.9,3.25,4.81,4.32,7.53-1.76-2.33-3.21-4.84-4.3-7.55l-.02.02Z"/>
        <path class="cls-27" d="m1199.76,665.32c.4.65,1.71.97,1.12,1.92-.53.86-1.53-.55-2.32.02-.74-.15-1.5-.47-1.16-1.34.44-1.12,1.53-.53,2.36-.6Z"/>
        <path class="cls-27" d="m1171.55,669.69c-.99,2.21-3.35,1.87-5.27,2.32,1.76-.77,3.52-1.53,5.28-2.3l-.02-.02Z"/>
        <path class="cls-27" d="m1002,627.79c-.81-.71-1.43-1.52-1.55-2.88,1.44.72,1.33,1.88,1.54,2.89h0Z"/>
        <path class="cls-27" d="m1068.89,731.17c-.87.82-1.93.36-2.91.42.96-.24,1.69-2.04,2.91-.42Z"/>
        <path class="cls-27" d="m1063.41,732.99c-.62.99-1.62,1.08-2.65,1.09.5-1.3,1.61-1.12,2.65-1.09Z"/>
        <path class="cls-27" d="m1010.14,644.68c-.75-.91-1.29-1.9-1.25-3.12,0,0,0,0,0,0,.91.85,1.17,1.95,1.24,3.13h.01Z"/>
        <path class="cls-27" d="m1001.99,627.8c.51.51.96,1.05.97,2.1-1.05-.53-.85-1.4-.97-2.11,0,0,0,0,0,0Z"/>
        <path class="cls-27" d="m1194.32,667.82c-.59-.08-.84-.39-.71-.81.05-.17.57-.4.69-.32.3.2.49.55.72.85-.26.11-.52.22-.69.29Z"/>
        <path class="cls-27" d="m1201.21,662.72c.71.59.31.99-.22,1.37-.96-.63-.36-1,.22-1.37Z"/>
        <path class="cls-27" d="m1171.57,669.71c.53-.5,1.18-.63,1.87-.64h0c-.49.65-1.22.54-1.9.61,0,0,.02.02.02.02Z"/>
        <path class="cls-27" d="m1173.44,669.08c.13-.13.26-.25.39-.38.05.08.11.17.16.25-.18.05-.36.09-.54.14,0,0,0,0,0,0Z"/>
        <path class="cls-27" d="m1062.06,711.63c.2.15.39.29.59.44-.19.06-.38.13-.57.19,0,0-.02-.02-.02-.02.02-.21.03-.42.02-.62l-.02.02Z"/>
        <path class="cls-27" d="m1011.39,647.18c-.11-.14-.23-.28-.32-.43-.02-.04.03-.13.06-.2.08.21.16.43.24.64,0,0,.02-.02.02-.02Z"/>
        <path class="cls-27" d="m1064.52,732.41c-.19.63-.79.4-1.2.56.4-.19.8-.37,1.2-.56Z"/>
        <polygon class="cls-27" points="1010.12 644.69 1010.3 644.83 1010.14 644.68 1010.12 644.69"/>
        <path class="cls-27" d="m1176.52,657.26c-.81-.52-2.94,1.12-2.98-.92-.04-1.96,2.09-1.67,3.57-1.68.41,0,.83.06,1.23,0,1.24-.17,2.27.64,2.29,1.52.03,1.39-1.41.98-2.33,1.07-.51.05-1.02,0-1.78,0Z"/>
        <path class="cls-27" d="m1012.44,628.98c-.45-.67-2.74-.38-1.07-2.16,1.55-1.66,3.29-2.02,5.04-.56,1.27,1.06.82,2.12-.65,2.73-.24-1.01-.87-1.6-1.92-1.66-1.17-.07-1.19.87-1.39,1.64Z"/>
        <path class="cls-29" d="m1012.44,628.98c.2-.77.22-1.71,1.39-1.64,1.05.06,1.68.64,1.92,1.66-1.11,1.24-2.21.05-3.31-.01Z"/>
      </g>
    </g>
    <g>
      <path class="cls-5" d="m840.01,602.76c6.32,8.8,12.99,17.74,21.65,24.4,8.96,6.89,18.95,9.49,29.87,11.56,5.61,1.07,11.09,2.32,16.35,4.61,5.05,2.19,9.83,4.91,14.68,7.5,9.29,4.95,19.83,10.02,30.67,8.58,10.3-1.37,23.71-11.4,16.41-22.75-6.2-9.63-17.43-14.22-27.98-17.66-.67-1.94-2.87-3.39-5.08-1.92-4.35,2.9-10.15.19-14.5-1.46-5.39-2.06-10.76-4.17-15.92-6.76-10.96-5.51-18.94-14.45-28.88-21.37-8.55-5.95-19.11-10.01-29.49-6.57-4.51,1.49-9.33,4.59-11.3,9.09-2.1,4.79.8,8.98,3.52,12.76Zm4.53-12.17c3.29-3.1,8.08-4.22,12.5-4.01,9.9.47,18.11,7.61,25.23,13.76,4.48,3.87,8.96,7.7,13.97,10.88,4.87,3.08,10.1,5.52,15.42,7.71,7.28,3,16.98,8.14,25.09,5.67.21.11.43.21.68.28,8.89,2.8,18.67,6.14,24.87,13.51,1.26,1.5,2.89,3.44,2.51,5.52-.4,2.18-2.45,4.17-4.15,5.44-3.96,2.93-9.12,3.76-13.93,3.21-9.46-1.08-17.95-6.29-26.18-10.7-8.69-4.65-17.33-7.97-27.02-9.82-9.62-1.84-18.83-3.72-26.82-9.74-7.69-5.8-13.69-13.44-19.32-21.17-1.26-1.73-2.63-3.44-3.74-5.28-1.3-2.14-.88-3.56.92-5.26Z"/>
      <path class="cls-5" d="m844.37,596.84c6.32,8.8,12.99,17.74,21.65,24.4,8.96,6.89,18.95,9.49,29.87,11.56,5.61,1.07,11.09,2.32,16.35,4.61,5.05,2.19,9.83,4.91,14.68,7.5,9.29,4.95,19.83,10.02,30.67,8.58,10.3-1.37,23.71-11.4,16.41-22.75-6.2-9.63-17.43-14.22-27.98-17.66-.67-1.94-2.87-3.39-5.08-1.92-4.35,2.9-10.15.19-14.5-1.46-5.39-2.06-10.76-4.17-15.92-6.76-10.96-5.51-18.94-14.45-28.88-21.37-8.55-5.95-19.11-10.01-29.49-6.57-4.51,1.49-9.33,4.59-11.3,9.09-2.1,4.79.8,8.98,3.52,12.76Zm4.53-12.17c3.29-3.1,8.08-4.22,12.5-4.01,9.9.47,18.11,7.61,25.23,13.76,4.48,3.87,8.96,7.7,13.97,10.88,4.87,3.08,10.1,5.52,15.42,7.71,7.28,3,16.98,8.14,25.09,5.67.21.11.43.21.68.28,8.89,2.8,18.67,6.14,24.87,13.51,1.26,1.5,2.89,3.44,2.51,5.52-.4,2.18-2.45,4.17-4.15,5.44-3.96,2.93-9.12,3.76-13.93,3.21-9.46-1.08-17.95-6.29-26.18-10.7-8.69-4.65-17.33-7.97-27.02-9.82-9.62-1.84-18.83-3.72-26.82-9.74-7.69-5.8-13.69-13.44-19.32-21.17-1.26-1.73-2.63-3.44-3.74-5.28-1.3-2.14-.88-3.56.92-5.26Z"/>
      <path class="cls-5" d="m855.33,557.51c9.63,9.36,24.26,12.22,32.85,22.74,2.53,3.11,7.86-.27,5.3-3.41-7.45-9.13-18.38-13.02-27.98-19.3-3.78-2.48-12.09-8.04-9.02-13.36,3.34-5.79,9.46-10.97,14.54-15.18,3.08-2.55-.29-7.88-3.41-5.3-5.8,4.8-11.75,10.17-15.99,16.45-4.28,6.34-1.27,12.52,3.71,17.36Z"/>
      <path class="cls-5" d="m936.86,635.78c9.35,8.48,21.99,5.66,33.44,6.62,11.29.94,23.04,5.13,30.54,13.99,2.58,3.05,7.91-.32,5.3-3.41-7.54-8.91-18.06-14.11-29.48-16.08-5.87-1.01-11.74-.97-17.68-.94-6.32.03-13.01-.42-17.91-4.87-3-2.72-7.21,1.96-4.2,4.7Z"/>
      <path class="cls-5" d="m846.16,591.47c6.32,8.8,12.99,17.74,21.65,24.4,8.96,6.89,18.95,9.49,29.87,11.56,5.61,1.07,11.09,2.32,16.35,4.61,5.05,2.19,9.83,4.91,14.68,7.5,9.29,4.95,19.83,10.02,30.67,8.58,10.3-1.37,23.71-11.4,16.41-22.75-6.2-9.63-17.43-14.22-27.98-17.66-.67-1.94-2.87-3.39-5.08-1.92-4.35,2.9-10.15.19-14.5-1.46-5.39-2.06-10.76-4.17-15.92-6.76-10.96-5.51-18.94-14.45-28.88-21.37-8.55-5.95-19.11-10.01-29.49-6.57-4.51,1.49-9.33,4.59-11.3,9.09-2.1,4.79.8,8.98,3.52,12.76Zm4.53-12.17c3.29-3.1,8.08-4.22,12.5-4.01,9.9.47,18.11,7.61,25.23,13.76,4.48,3.87,8.96,7.7,13.97,10.88,4.87,3.08,10.1,5.52,15.42,7.71,7.28,3,16.98,8.14,25.09,5.67.21.11.43.21.68.28,8.89,2.8,18.67,6.14,24.87,13.51,1.26,1.5,2.89,3.44,2.51,5.52-.4,2.18-2.45,4.17-4.15,5.44-3.96,2.93-9.12,3.76-13.93,3.21-9.46-1.08-17.95-6.29-26.18-10.7-8.69-4.65-17.33-7.97-27.02-9.82-9.62-1.84-18.83-3.72-26.82-9.74-7.69-5.8-13.69-13.44-19.32-21.17-1.26-1.73-2.63-3.44-3.74-5.28-1.3-2.14-.88-3.56.92-5.26Z"/>
      <path class="cls-5" d="m847.66,585.5c6.32,8.8,12.99,17.74,21.65,24.4,8.96,6.89,18.95,9.49,29.87,11.56,5.61,1.07,11.09,2.32,16.35,4.61,5.05,2.19,9.83,4.91,14.68,7.5,9.29,4.95,19.83,10.02,30.67,8.58,10.3-1.37,23.71-11.4,16.41-22.75-6.2-9.63-17.43-14.22-27.98-17.66-.67-1.94-2.87-3.39-5.08-1.92-4.35,2.9-10.15.19-14.5-1.46-5.39-2.06-10.76-4.17-15.92-6.76-10.96-5.51-18.94-14.45-28.88-21.37-8.55-5.95-19.11-10.01-29.49-6.57-4.51,1.49-9.33,4.59-11.3,9.09-2.1,4.79.8,8.98,3.52,12.76Zm4.53-12.17c3.29-3.1,8.08-4.22,12.5-4.01,9.9.47,18.11,7.61,25.23,13.76,4.48,3.87,8.96,7.7,13.97,10.88,4.87,3.08,10.1,5.52,15.42,7.71,7.28,3,16.98,8.14,25.09,5.67.21.11.43.21.68.28,8.89,2.8,18.67,6.14,24.87,13.51,1.26,1.5,2.89,3.44,2.51,5.52-.4,2.18-2.45,4.17-4.15,5.44-3.96,2.93-9.12,3.76-13.93,3.21-9.46-1.08-17.95-6.29-26.18-10.7-8.69-4.65-17.33-7.97-27.02-9.82-9.62-1.84-18.83-3.72-26.82-9.74-7.69-5.8-13.69-13.44-19.32-21.17-1.26-1.73-2.63-3.44-3.74-5.28-1.3-2.14-.88-3.56.92-5.26Z"/>
      <path class="cls-5" d="m889.25,649.72c2.81,2.92,7.01-1.78,4.2-4.7-3.98-4.13-2.9-10.29-1.65-15.32,1.32-5.33,3.04-10.56,5.26-15.58,3.86-8.71,13.19-19.6,20.84-25.23-6.88,6.9-16.42,18.05-20.25,27.01-3.85,9-8.13,20.97-3.42,30.33,1.82,3.62,7.11.18,5.3-3.41-1.26-2.51-1.3-5.37-.91-8.18-.26,3.32.17,6.6,1.76,9.62.57,1.08,1.44,1.52,2.34,1.52.62.31,1.39.4,2.26.11,10.58-3.54,13.65-14.26,19.17-22.76,5.8-8.92,14.15-15.85,23.69-20.44,3.65-1.75.2-7.03-3.41-5.3-8.93,4.29-16.89,10.66-22.88,18.57-2.89,3.81-5.17,7.91-7.4,12.13-2.26,4.27-4.81,8.69-9.13,10.96-.76-3.19.36-6.77,1.29-9.79,1.28-4.16,2.89-8.2,4.76-12.13,3.72-7.8,8.5-14.97,14.18-21.47,2.39-2.73-1.13-6.41-3.82-4.92-.63-1.19-2.08-2.05-3.54-1.85,1.52-2.41-1.44-6.15-4.44-4.31-11.05,6.77-18.5,17.72-23.25,29.59-4.24,10.61-10.2,25.96-.97,35.54Zm14.88-32.53c-.87,1.99-4.64,15.24-5.5,17.46.88-2.59,4.73-16.23,5.92-18.7.7-1.48,16.1-23.78,16.9-25.19-.95,1.83-16.49,24.55-17.31,26.44Z"/>
    </g>
    <g>
      <polygon class="cls-23" points="213.79 88.36 81.97 367.38 122.38 360.65 245.7 99.9 213.79 88.36"/>
      <polygon class="cls-23" points="695.83 322.85 731.43 220.91 747.32 239.01 710.26 346.32 695.83 322.85"/>
      <polygon class="cls-23" points="383.84 324.95 407.18 414.53 387.94 436.07 353.3 335.66 383.84 324.95"/>
      <polygon class="cls-25" points="378.09 296.18 743.94 218.25 758.37 218.25 745.86 255.26 353.3 353.89 336.95 292.34 378.09 296.18"/>
      <polygon class="cls-23" points="498.59 151.86 353.3 484.45 394.68 472.82 535.15 146.09 498.59 151.86"/>
      <polygon class="cls-23" points="436.05 302.92 332.14 102.79 361 102.79 455.29 273.09 436.05 302.92"/>
      <polygon class="cls-23" points="503.4 188.8 570.75 274.06 584.22 267.32 514.95 178.8 503.4 188.8"/>
      <polygon class="cls-23" points="429.66 247.67 455.29 166.5 434.99 166.5 413.22 226.43 429.66 247.67"/>
      <polygon class="cls-25" points="258.05 197.08 348.49 102.79 353.3 120.11 279.22 202.86 258.05 197.08"/>
      <polygon class="cls-23" points="117.57 329.45 107.95 341.41 74.28 247.67 95.93 239.01 128.16 308.69 117.57 329.45"/>
      <polygon class="cls-25" points="58.88 207.08 58.88 266.36 479.85 176.92 468.47 146.09 58.88 207.08"/>
      <polygon class="cls-22" points="22.93 206.1 100.44 190.67 468.47 303.12 397.52 329.45 22.93 206.1"/>
      <polygon class="cls-22" points="378.09 153.29 747.32 239.01 801.23 221.91 413.22 138.59 378.09 153.29"/>
      <polygon class="cls-23" points="604.43 138.59 704.49 368.49 731.43 360.64 631.56 138.59 604.43 138.59"/>
      <polygon class="cls-22" points="66.04 102.77 303.38 71.62 760.4 150.42 522.56 203.83 66.04 102.77"/>
    </g>
    <path class="cls-28" d="m1445.34,156.9c-19.92,3.54-42.3,8.33-56.39,23.88,0,0,19.67,21.45,19.67,21.45,21.35,22.95,43.47,45.49,67.47,65.59,9.74,7.78,19.27,15.98,30.95,19.61.71.4,1.38,1.04,1.81,1.83.49,1.05.39,1.01.54,1.33,2.67,6.75,7.83,12.32,13.56,16.83,6.39,5,13.81,8.76,21.41,11.65,2.72.77,4.81,3.38,4.41,6.31-.03.34-.12,1.98-.14,2.36.04,8.58-.9,18.73,4.59,25.66.19.14,1.24,1.23,1.53,2.39,1.79,33.4.61,67.52,4.8,100.65,0,0,.15.64.15.64.04.13.04.02.01.06.97,1.72,1.13,5.22.73,7.14-8.25,31.61-16.74,60.38,14.54,82.24,3.22,1.73,7.16,3.96,10.3,5.83.38.22.33.19.25.16-.9-.32-2.5-.35-3.73.48-.91.58-1.28,1.2-1.44,1.47-.28.59-.12.35-.09.07.63-9.33-.78-18.84-.7-28.32-1.43-38.63,10.81-80.22,43.07-104.4-.64.37-1.25,2.18-.69,3.25.06.13.11.25.18.36l-.12-.22c-.75-1.27-4.11-7.67-4.93-9.12-9.88-18.58-19.53-37.26-28.11-56.59-6.92-13.73-8.9-30.25-19.12-41.95-3.48-4.09-7.64-6.2-12.21-9.08-.63-.63-1.15-1.19-1.63-1.83-.87-1.17-2.79-3.56-3.64-4.74-30.34-41.48-67.19-91.7-97.56-133.26,0,0-4.63-6.35-4.63-6.35l-2.32-3.18-1.16-1.59c-.31-.44-.85-.68-1.38-.61h0Zm-.09-.7c1.51-.34,2.46,1.49,3.22,2.46,0,0,2.34,3.16,2.34,3.16l4.68,6.32c24.84,33.46,59.47,80.05,84.63,113.41,6.34,8.28,12.62,16.89,19.21,24.73,4.4,2.55,9.31,5.2,12.76,9.18,10.9,11.88,13.17,28.46,20.45,42.38,8.84,18.98,18.81,37.44,28.99,55.75l3.86,6.85.97,1.71c.28.47.84,1.32.64,2.22-.1.88-.92,1.55-1.36,1.87-38.28,30.79-42.36,77.68-38.5,123.38.11,3.36.42,12.01-5.22,8.57,0,0-3.41-1.95-3.41-1.95-16.76-7.99-30.15-23.72-32.1-42.56-2.11-15.93,2.63-31.47,6.87-46.57.49-2.25,1.47-5.14.64-7.28-.98-2.72-1.13-5.28-1.46-7.92-2.56-31.39-2.28-62.89-2.55-94.35-.02-.48.05-.24-.12-.47-3.66-3.6-4.68-8.98-5.36-13.86-.71-5.91-.6-11.87-.13-17.77.26-1.49-.21-1.85-1.57-2.34-14.95-6.13-30.45-15.71-36.61-31.39-.32-1.57-1.22-1.46-2.56-1.9-11.13-4.33-20.21-12.49-29.25-19.95-23.73-20.7-45.4-43.58-66.73-66.7-4.43-4.73-13.89-15.58-18.36-20.26-.54-.27-1.16-.3-1.9-.73-.22-.04-.48-.7-.22-.94,13.96-16.75,37.64-21.48,58.15-25.04h0Z"/>
    <path class="cls-28" d="m1556.37,309.43c1.38,5.5.49,10.51-4.82,12.24-1.44.54-3.05.47-5.78.84l-.68-.18c1.94-5.52,6.56-9.59,10.79-13.41,0,0,.49.5.49.5h0Z"/>
    <path class="cls-28" d="m1446.11,156.65c-5.38-6.07-15.14-17.13-20.42-23.1-1.08-1.56-2.73-2.15-4.41-1.47-.48.24-1.52.72-2.34.84-1.76.33-3.62.02-5.19-.87-1.57-.78-2.84-2.56-3.43-3.84-.89-1.78-.84-1.37-1.12-1.35-9.51,6.24-18.72,13.57-25.26,23.09-76.51,104.53-172.16,236.93-248.1,341.75,2.83-5.17-3.67-8.51-6.62-5.21,0,0,.35-.43.35-.43l1.39-1.71,5.56-6.82c61.34-74.77,139.22-171.68,200.91-245.23,0,0,22.76-26.93,22.76-26.93,4.86-5.69,9.55-11.22,14.64-16.85,3.07-3.63,6.9-5.18,10.16-8.53,1.71-1.71,4.36-2.14,6.45-1.26,1.84.92,1.35.83,2.57,1.6,8.25,5.74,17.22,11.81,25.34,17.68,47.83,34.16,94.03,70.81,137.02,110.92,0,0-.47.52-.47.52-17.48-15.65-35.64-30.56-54.02-45.17-34.49-27.33-70.14-53.25-106.72-77.72-1.18-.84-4.27-2.89-5.41-3.6-.51-.21-1.14-.1-1.52.29-2.06,2.12-4.42,3.99-6.97,5.53-81.89,95.68-159.07,196.09-239.42,293.11,0,0-5.6,6.8-5.6,6.8l-1.4,1.7c-.39.46-1.02,1.43-2.11,1.55-2.09.31-3.86-2.21-2.54-3.97,79.42-108.91,169.61-232.21,251.66-339.67,6.94-9.63,16.43-16.93,26.43-23.18.78-.43,1.81-.32,2.49.25.71.64.85,1.37,1.24,1.99,1.08,2.67,3.79,4.38,6.64,3.88,1.42-.26,2.78-1.29,4.33-1.03,3.05.1,4.83,3.94,6.69,5.77,0,0,5.66,6.75,5.66,6.75l11.32,13.5-.54.45h0Z"/>
    <path class="cls-28" d="m1265.83,398.36c-7.45,3.82-15.57,6.64-22.39,11.18-13.7,12.63-28.25,24.36-43.17,35.46-20.39,15.11-42.07,29.47-64.6,41.25,0,0-4.66,2.27-4.66,2.27l-.41-.56,65.57-48.56c6.03-4.38,35.86-26.08,41.24-29.99,8.09-6.4,18.68-8.34,28.21-11.71,0,0,.21.67.21.67h0Z"/>
    <path class="cls-28" d="m1539.19,322.76c-38.5,15.09-79.88,27.34-119.79,38.48-39.95,10.7-81.89,21.23-122.58,28.25,37.88-13.32,80.99-23.28,120.73-35.01,40.17-10.15,82.35-23.5,121.64-31.72h0Z"/>
    <path class="cls-28" d="m1269.04,324.57c-.64,22.97-7.67,44.84-17.01,65.55-3.21,6.84-6.81,13.55-11.53,19.89l-.66-.22c6.8-21.4,21.12-64.26,28.54-85.44,0,0,.66.22.66.22h0Z"/>
    <path class="cls-28" d="m1298.03,387.65c-.03,5.23-1.18,15.9-.31,20.85.02-.02-.15-.54-.36-.7,1.08,1.04,1.05,3.52-.61,4.42-.64.39-1.39.5-2.09.48-6.75-.51-13.4-2.44-19.89-1.61-1.6.16-2.99.79-2.91.99l-7.78-2.48c-3.06-12.93-6.74-26.86-1.46-40.06,0,0,1.88-5.09,1.88-5.09,7.65-20.05,15.59-40.64,27.21-58.86,6.69-10.61,16.08-26.11,23.28-36.24,4.1-5.91,8.06-11.88,12.42-17.62l.61.34-20.68,37.52c-5.91,11.29-15.16,26.27-20.19,37.73-5.72,13.06-11.06,26.31-16.32,39.58-7.22,12.91-4.16,27.75-1.63,41.57l-.84-.27c3.6-2.77,8.3-2.05,12.45-1.62,4.69.63,10.06,2.11,14.22,2.97-.1.06-.11.27-.08.3-.02,0,0,.05-.01,0-.99-3.25.15-6.7.38-9.99.58-4.13,1.28-8.23,2.01-12.32l.69.12h0Z"/>
    <path class="cls-28" d="m1403.76,198.55c-3.49,3.09-4.66,7.77-6.74,11.89-2.37,4.5-4.87,8.35-7.4,12.44-23.07,34.36-48.75,66.99-77,97.24-1.12,1.23-2.73,2.58-3.99,3.47.42-.26.41-.53.21-.16-1.59,4.84-.19,9.31.27,14.9.4,12.36-3.29,24.34-6.83,35.84-1.29,4.5-2.73,8.99-4.27,13.49l-.69-.12c2.9-18.34,9.68-37.03,5.48-55.61-.4-4.57-1.54-10.57,2.9-13.72,28.22-31.31,54.63-64.63,80.97-97.59,2.84-3.73,5.8-7.44,8.32-11.33,2.37-3.97,4.25-8.58,8.47-11.38l.28.64h0Z"/>
    <path class="cls-28" d="m1646.29,55.3c67.36,149.31,70.23,385.03,65.18,549.07,0,0-5.63-5.22-5.63-5.22,19.33-2.8,38.73-6.05,58.03-9.5,86.78-15.25,173.24-34.64,257.27-61.32,45.9-15.32,92.68-32.77,134.95-55.95,0,0-2.88,7.32-2.88,7.32-32.58-90.19-80.05-176.02-141.47-249.87-70.37-83.65-160.55-147.2-270.06-164.91-5.65-.65-21.19-2.74-26.72-3.41,0,0-8.97-.44-8.97-.44-35.53-2.29-72.73-.44-108.1,3.43-106.75,12.28-215.32,58.17-278.44,148.57-13.86,19.72-25.85,41.08-33.41,64.06l-.68-.18c7.36-23.21,19.15-44.74,32.86-64.72,55.44-81.04,148.23-128.96,243.18-146.39,11.65-2.34,24.23-4.14,35.93-5.8,10.47-1.1,25.88-2.9,36.23-3.37,17.59-1.19,37.03-1.85,54.55-1.54,6.27.19,21.29.96,27.29,1.16,5.56.72,21.31,2.55,27.12,3.28,9.95,1.42,21.36,4.24,31.28,6.05,27.71,7.01,55.4,16.92,81.16,29.42,7.73,4.25,16.47,8.52,24.11,12.83,8.89,5.53,22.37,13.37,30.7,19.56,80.2,55.25,141.65,133.86,189.44,217.93,23.79,42.5,44.67,86.7,60.72,132.76-43.1,23.54-90.22,41.04-136.79,56.43-103.23,32.29-209.62,54.45-316.56,70.08,0,0-.63.09-.63.09l.03-.64c2.25-46.26,2.79-92.61,2.27-138.93-2.2-115.46-8.55-232.38-39.03-344.28-6.33-22.26-13.81-44.24-23.54-65.26l.64-.3h0Z"/>
    <path class="cls-28" d="m1549.07,523.5c-50.53-16.76-122.19-39.63-172.04-56.46-23.91-9.27-74.35-25.66-82.21-51.54-.77-2.6-1.47-3.02-4.76-3.3-5.7-.28-12.74-1.34-18.43-.83-.55.02-.5.48.59-.72.39-.59.38-1.01.31-.51-.08.41-.16,1.4-.8,2.7-.85,1.49-1.3,2.05-1.87,2.92-8.65,12.52-17.4,24.73-26.16,37.05l-2.12-7.78c85.9,36.51,192.76,82.55,278.98,119.46,51.82,22.57,114.69,50.9,167.97,69.89,0,0-3.89-.06-3.89-.06l105.95-35.5c88.63-28.56,177.1-57.8,266.88-82.63,17.71-4.49,37.55-10.68,54.42-12.33,13.82-3.56,27.87-8.41,42.3-7.06,0,0-.57,1.02-.57,1.02l-10.19-11.65.52-.47,10.39,11.47.68.75c-14.43-1.59-28.83,3.83-42.6,7.59-18.39,2.4-36.31,8.37-54.19,13.29-124.83,37.38-248.14,79.69-371.52,121.54,0,0-.21.07-.21.07l-.21-.08-56.85-21.36c-18.69-7.77-37.19-15.98-55.8-23.95-71.07-30.7-260.96-112.98-334.33-144.76,0,0-.62-.27-.62-.27l.4-.54c9.35-12.97,18.97-25.8,27.99-38.98.38-.64.17-1.69.85-2.74.72-1.03,1.87-1.23,2.8-1.43,4.76-.63,9.53.27,14.23.51,3.81.45,7.81.03,11.26,2.13,3.29,2.52,3.25,6.86,5.22,10.12,7.74,12.91,22.35,19.99,35.29,26.82,13.51,6.65,27.46,12.39,41.63,17.54,49.09,17.4,121,41.95,170.95,59.42,0,0-.24.66-.24.66h0Z"/>
    <path class="cls-28" d="m1549.07,523.5c-50.53-16.76-122.19-39.63-172.04-56.46-23.91-9.27-74.35-25.66-82.21-51.54-.77-2.6-1.47-3.02-4.76-3.3-5.7-.28-12.74-1.34-18.43-.83-.55.02-.5.48.59-.72.39-.59.38-1.01.31-.51-.08.41-.16,1.4-.8,2.7-.85,1.49-1.3,2.05-1.87,2.92-8.65,12.52-17.4,24.73-26.16,37.05l-2.12-7.78c85.9,36.51,192.76,82.55,278.98,119.46,51.82,22.57,114.69,50.9,167.97,69.89,0,0-3.89-.06-3.89-.06l105.95-35.5c88.63-28.56,177.1-57.8,266.88-82.63,17.71-4.49,37.55-10.68,54.42-12.33,13.82-3.56,27.87-8.41,42.3-7.06,0,0-.57,1.02-.57,1.02l-10.19-11.65.52-.47,10.39,11.47.68.75c-14.43-1.59-28.83,3.83-42.6,7.59-18.39,2.4-36.31,8.37-54.19,13.29-124.83,37.38-248.14,79.69-371.52,121.54,0,0-.21.07-.21.07l-.21-.08-56.85-21.36c-18.69-7.77-37.19-15.98-55.8-23.95-71.07-30.7-260.96-112.98-334.33-144.76,0,0-.62-.27-.62-.27l.4-.54c9.35-12.97,18.97-25.8,27.99-38.98.38-.64.17-1.69.85-2.74.72-1.03,1.87-1.23,2.8-1.43,4.76-.63,9.53.27,14.23.51,3.81.45,7.81.03,11.26,2.13,3.29,2.52,3.25,6.86,5.22,10.12,7.74,12.91,22.35,19.99,35.29,26.82,13.51,6.65,27.46,12.39,41.63,17.54,49.09,17.4,121,41.95,170.95,59.42,0,0-.24.66-.24.66h0Z"/>
    <path class="cls-28" d="m1627.3,424.25c33.01,60.78,62.86,126.25,90.14,189.72-29.47-9.14-58.65-19.54-87.1-31.4-21.28-9.05-43.15-17.83-61.85-31.69-2.53-2.21-5.44-4.51-6.23-7.98,0,0,.69-.13.69-.13.92,3.01,3.92,5.08,6.39,6.92,8.12,5.56,17.16,9.63,26.11,13.67,36.2,15.64,73.71,28.11,111.24,40.12,0,0-.78.87-.78.87-19.82-44.78-59.54-135-79.25-179.82,0,0,.64-.28.64-.28h0Z"/>
    <path class="cls-28" d="m1646.29,55.3c67.36,149.31,70.23,385.03,65.18,549.07,0,0-5.63-5.22-5.63-5.22,19.33-2.8,38.73-6.05,58.03-9.5,86.78-15.25,173.24-34.64,257.27-61.32,45.9-15.32,92.68-32.77,134.95-55.95,0,0-2.88,7.32-2.88,7.32-32.58-90.19-80.05-176.02-141.47-249.87-70.37-83.65-160.55-147.2-270.06-164.91-5.65-.65-21.19-2.74-26.72-3.41,0,0-8.97-.44-8.97-.44-35.53-2.29-72.73-.44-108.1,3.43-106.75,12.28-215.32,58.17-278.44,148.57-13.86,19.72-25.85,41.08-33.41,64.06l-.68-.18c7.36-23.21,19.15-44.74,32.86-64.72,55.44-81.04,148.23-128.96,243.18-146.39,11.65-2.34,24.23-4.14,35.93-5.8,10.47-1.1,25.88-2.9,36.23-3.37,17.59-1.19,37.03-1.85,54.55-1.54,6.27.19,21.29.96,27.29,1.16,5.56.72,21.31,2.55,27.12,3.28,9.95,1.42,21.36,4.24,31.28,6.05,27.71,7.01,55.4,16.92,81.16,29.42,7.73,4.25,16.47,8.52,24.11,12.83,8.89,5.53,22.37,13.37,30.7,19.56,80.2,55.25,141.65,133.86,189.44,217.93,23.79,42.5,44.67,86.7,60.72,132.76-43.1,23.54-90.22,41.04-136.79,56.43-103.23,32.29-209.62,54.45-316.56,70.08,0,0-.63.09-.63.09l.03-.64c2.25-46.26,2.79-92.61,2.27-138.93-2.2-115.46-8.55-232.38-39.03-344.28-6.33-22.26-13.81-44.24-23.54-65.26l.64-.3h0Z"/>
    <path class="cls-28" d="m1549.07,523.5c-50.53-16.76-122.19-39.63-172.04-56.46-23.91-9.27-74.35-25.66-82.21-51.54-.77-2.6-1.47-3.02-4.76-3.3-5.7-.28-12.74-1.34-18.43-.83-.55.02-.5.48.59-.72.39-.59.38-1.01.31-.51-.08.41-.16,1.4-.8,2.7-.85,1.49-1.3,2.05-1.87,2.92-8.65,12.52-17.4,24.73-26.16,37.05l-2.12-7.78c85.9,36.51,192.76,82.55,278.98,119.46,51.82,22.57,114.69,50.9,167.97,69.89,0,0-3.89-.06-3.89-.06l105.95-35.5c88.63-28.56,177.1-57.8,266.88-82.63,17.71-4.49,37.55-10.68,54.42-12.33,13.82-3.56,27.87-8.41,42.3-7.06,0,0-.57,1.02-.57,1.02l-10.19-11.65.52-.47,10.39,11.47.68.75c-14.43-1.59-28.83,3.83-42.6,7.59-18.39,2.4-36.31,8.37-54.19,13.29-124.83,37.38-248.14,79.69-371.52,121.54,0,0-.21.07-.21.07l-.21-.08-56.85-21.36c-18.69-7.77-37.19-15.98-55.8-23.95-71.07-30.7-260.96-112.98-334.33-144.76,0,0-.62-.27-.62-.27l.4-.54c9.35-12.97,18.97-25.8,27.99-38.98.38-.64.17-1.69.85-2.74.72-1.03,1.87-1.23,2.8-1.43,4.76-.63,9.53.27,14.23.51,3.81.45,7.81.03,11.26,2.13,3.29,2.52,3.25,6.86,5.22,10.12,7.74,12.91,22.35,19.99,35.29,26.82,13.51,6.65,27.46,12.39,41.63,17.54,49.09,17.4,121,41.95,170.95,59.42,0,0-.24.66-.24.66h0Z"/>
    <path class="cls-28" d="m1549.07,523.5c-50.53-16.76-122.19-39.63-172.04-56.46-23.91-9.27-74.35-25.66-82.21-51.54-.77-2.6-1.47-3.02-4.76-3.3-5.7-.28-12.74-1.34-18.43-.83-.55.02-.5.48.59-.72.39-.59.38-1.01.31-.51-.08.41-.16,1.4-.8,2.7-.85,1.49-1.3,2.05-1.87,2.92-8.65,12.52-17.4,24.73-26.16,37.05l-2.12-7.78c85.9,36.51,192.76,82.55,278.98,119.46,51.82,22.57,114.69,50.9,167.97,69.89,0,0-3.89-.06-3.89-.06l105.95-35.5c88.63-28.56,177.1-57.8,266.88-82.63,17.71-4.49,37.55-10.68,54.42-12.33,13.82-3.56,27.87-8.41,42.3-7.06,0,0-.57,1.02-.57,1.02l-10.19-11.65.52-.47,10.39,11.47.68.75c-14.43-1.59-28.83,3.83-42.6,7.59-18.39,2.4-36.31,8.37-54.19,13.29-124.83,37.38-248.14,79.69-371.52,121.54,0,0-.21.07-.21.07l-.21-.08-56.85-21.36c-18.69-7.77-37.19-15.98-55.8-23.95-71.07-30.7-260.96-112.98-334.33-144.76,0,0-.62-.27-.62-.27l.4-.54c9.35-12.97,18.97-25.8,27.99-38.98.38-.64.17-1.69.85-2.74.72-1.03,1.87-1.23,2.8-1.43,4.76-.63,9.53.27,14.23.51,3.81.45,7.81.03,11.26,2.13,3.29,2.52,3.25,6.86,5.22,10.12,7.74,12.91,22.35,19.99,35.29,26.82,13.51,6.65,27.46,12.39,41.63,17.54,49.09,17.4,121,41.95,170.95,59.42,0,0-.24.66-.24.66h0Z"/>
    <g>
      <g>
        <path class="cls-21" d="m1548.38,494.1c1.38-8.9,4.38-17.26,7.22-25.74-.26-8.86-1.26-17.67-2.27-26.48l-304.86,2.43s-9.01,30.2,6.38,49.4c7.07,8.82,123.38,89.11,123.38,89.11,0,0,24.25,17.6,53.8,1.3,9.9-5.46,65.22-28.97,122.22-52.82-7.13-10.39-7.84-24.46-5.87-37.2Z"/>
        <path class="cls-22" d="m1550.9,410.83c0-.11,0-.22-.01-.33-.06-18.5-.92-34.43-.98-52.93,0-.18-.74-2.89-.74-3.07-1.92-2.06-3.49-4.45-4.66-7.07l-75.18,19.41-209.72,64.04s-25.11,11.31,0,29.64c25.11,18.33,98.13,67.19,98.13,67.19,0,0,33.09,27.03,86.85,6.11,36.02-14.02,75.41-29.86,104.1-41.49,1.48-8.23,4.26-16.05,6.9-23.96-.55-19.08-4.56-37.89-4.7-57.01,0-.18,0-.35.01-.53Z"/>
        <path class="cls-21" d="m1300.94,445.44c4.43-1.61,8.9-2.7,13.6-2.73,3.58-.02,7.15.43,10.74.26,5.06-.24,9.98-1.52,14.68-3.37s8.65-4.04,12.36-7.14c2.67-2.23,5.22-5.01,7.85-7.03,3.93-3.03,8.55-5.09,13.25-6.57,4.12-1.3,8.19-1.93,12.5-1.82,3.63.09,7.24.47,10.88.13,9.68-.91,19.39-5,26.64-11.49,2.6-2.32,5.07-4.93,7.82-6.84,4.28-2.97,9.22-4.99,14.24-6.32,3.94-1.04,7.82-1.31,11.9-1.12,3.82.18,7.55.35,11.36-.18,9.53-1.33,18.62-5.69,25.65-12.23,2.73-2.55,5.24-4.99,8.36-6.91,4.46-2.75,9.54-4.66,14.66-5.74,3.68-.78,7.4-.76,11.18-.56,4.07.22,8.04.19,12.06-.58,2.59-.5,5.11-1.27,7.59-2.17,1.27-.46,2.12-1.7,1.75-3.08-.34-1.22-1.8-2.21-3.08-1.75-4.43,1.61-8.9,2.7-13.61,2.73-3.58.02-7.15-.43-10.74-.26-5.06.24-9.99,1.52-14.68,3.38s-8.65,4.04-12.37,7.15c-2.67,2.23-5.22,5.01-7.85,7.03-3.93,3.03-8.55,5.09-13.26,6.57-4.12,1.3-8.19,1.93-12.5,1.82-3.63-.09-7.24-.47-10.88-.13-9.68.91-19.39,5-26.64,11.49-2.6,2.32-5.07,4.93-7.82,6.84-4.28,2.97-9.22,4.99-14.24,6.32-3.94,1.04-7.82,1.31-11.9,1.12-3.82-.18-7.55-.35-11.36.18-9.53,1.33-18.62,5.69-25.64,12.23-2.73,2.55-5.24,4.99-8.36,6.91-4.46,2.74-9.54,4.66-14.66,5.74-3.68.78-7.4.76-11.17.56-4.06-.22-8.04-.19-12.06.58-2.59.5-5.11,1.27-7.59,2.17-1.27.46-2.12,1.7-1.75,3.08.34,1.22,1.8,2.21,3.08,1.75h0Z"/>
        <path class="cls-21" d="m1324.49,467.65c.75-.24,1.55-.29,2.36-.19,1.18.14,2.34.51,3.47.85,2.22.68,4.41,1.52,6.71,1.88s4.86.25,6.92-1.14c1.85-1.25,3.22-3.01,4.47-4.83,1.15-1.68,2.3-3.68,3.49-5.1.6-.71,1.24-1.35,1.76-1.68.77-.48,1.05-.55,2.04-.56,4.43,0,8.79,3.03,13.47,2.85,4.96-.19,7.67-4.26,10.11-8.04,1.11-1.72,2.03-3.27,3.52-4.61.44-.39,1.05-.73,1.69-.88.48-.11-.57.02.3-.05.29-.03.58-.02.86-.02.6.02.91.07,1.45.18,4.49.9,9.21,3.67,13.89,2.37,4.36-1.21,6.64-5.78,8.99-9.24,1.05-1.55,2.11-3.11,3.72-3.78-.43.18.9-.19.53-.14.47-.07.97-.05,1.44-.01.84.06,2.07.38,3.07.67,4.49,1.3,9.47,3.67,13.99,1.2,4.01-2.2,6.23-6.54,9.07-9.93.64-.77,1.32-1.51,2.07-2.17.58-.5,1.48-1.06,2.13-1.24,1.97-.52,4.19-.15,6.3.3,4.8,1.04,10.15,2.85,14.8.35,4.02-2.16,6.26-6.49,9.1-9.85.64-.76,1.32-1.5,2.08-2.15.43-.37,1.55-1.04,1.99-1.18,1.97-.59,4.16-.2,6.26.26,4.79,1.04,10.03,2.87,14.73.55,4.06-2,6.36-6.38,9.14-9.73.7-.85,1.45-1.67,2.28-2.39.47-.4,1.51-1.03,1.99-1.18,1.89-.59,4.06-.23,6.09.2,4.85,1.02,10.16,2.9,14.91.53,4.05-2.02,6.33-6.42,9.07-9.78.64-.78,1.31-1.54,2.05-2.22.52-.48,1.45-1.12,1.91-1.3,1.25-.5,2.13-1.67,1.75-3.08-.33-1.19-1.81-2.25-3.08-1.75-4.52,1.79-7,5.95-9.84,9.65-1.19,1.55-2.59,3.18-4.16,4.04-.56.3-1.39.53-2.11.58-1.1.08-2.2-.02-3.28-.21-4.78-.83-10.11-3.11-14.94-1.39-4.42,1.57-6.98,5.8-9.7,9.32-1.21,1.57-2.58,3.22-4.15,4.13s-3.58.84-5.63.47c-4.77-.85-10.1-3.14-14.94-1.43-4.42,1.56-6.98,5.79-9.7,9.31-1.22,1.58-2.56,3.21-4.15,4.13-1.46.85-3.32.85-5.29.55-4.84-.75-10.09-3.11-15-1.53-4.57,1.47-7.21,5.86-9.95,9.47-1.18,1.56-2.62,3.29-4.13,4.18-.74.44-1.14.55-1.87.56-1.08.02-1.89-.15-2.99-.44-4.5-1.16-9.54-3.89-14.17-1.8-4.03,1.81-6.02,6.36-8.48,9.75-.46.64-.98,1.26-1.64,1.87-.51.48-1.1.85-1.76,1.02-.43.11-1.68.1-2.29,0-1.24-.2-2.46-.57-3.67-.94-4.27-1.31-9.28-3.17-13.31-.22-3.53,2.58-5.18,7.02-7.88,10.07-.73.82-1.08,1.18-1.91,1.62-.06.03-.43.18-.08.05-.25.1-.52.17-.79.22.32-.06-.12.02-.16.02-.38.03-.77.02-1.16,0-1.98-.12-4.27-1-6.32-1.62-2.27-.7-4.73-1.41-7.13-1.17s-4.23,1.27-5.83,2.93-2.82,3.65-4.08,5.57c-.55.84-1.1,1.7-1.73,2.5-.09.11-.5.59-.71.81-.19.2-.38.39-.58.58-.05.05-.6.5-.3.28-.69.52-1.27.73-1.61.78-1.14.17-2-.02-3.06-.27-2.35-.55-4.59-1.46-6.92-2.07s-4.64-.91-6.88-.2c-3.06.97-1.75,5.8,1.33,4.82h0Z"/>
        <path class="cls-21" d="m1351.77,490.7c7.11-2.55,14.89-1.05,22.27-1.5,3.85-.23,7.6-.94,11.07-2.67,3.04-1.51,5.74-3.7,8.26-5.94,4.75-4.21,9.31-9.68,15.5-11.78,7.21-2.44,15.09-.92,22.53-1.7,3.73-.39,7.31-1.26,10.6-3.1,2.98-1.67,5.62-3.93,8.13-6.24,4.7-4.33,9.3-9.71,15.64-11.57,7.3-2.14,15.13-.59,22.59-1.55,3.68-.47,7.17-1.47,10.36-3.39,2.95-1.77,5.57-4.06,8.1-6.39,4.83-4.44,9.56-9.56,16.21-11.05,7.35-1.65,15.03-.03,22.47-1.01,1.91-.25,3.77-.63,5.58-1.28,1.27-.46,2.12-1.7,1.75-3.08-.34-1.23-1.8-2.2-3.08-1.75-7.11,2.56-14.89,1.07-22.26,1.52-3.85.24-7.6.95-11.07,2.68-3.04,1.51-5.73,3.7-8.26,5.95-4.74,4.22-9.3,9.69-15.49,11.79-7.21,2.45-15.09.93-22.53,1.71-3.73.39-7.31,1.26-10.6,3.11-2.98,1.67-5.62,3.94-8.12,6.24-4.7,4.33-9.3,9.71-15.65,11.57-7.3,2.14-15.13.59-22.59,1.54-3.68.47-7.17,1.47-10.37,3.39-2.95,1.77-5.58,4.06-8.1,6.38-4.83,4.44-9.57,9.55-16.22,11.04-7.35,1.65-15.04,0-22.47.98-1.91.25-3.77.63-5.58,1.28-1.27.45-2.12,1.7-1.75,3.08.34,1.23,1.8,2.2,3.08,1.75h0Z"/>
        <path class="cls-21" d="m1381.56,512.12c6.14-2.25,12.95-.38,19.3-.46,3.3-.04,6.53-.56,9.5-2.04,2.65-1.31,4.95-3.31,7.06-5.35,3.91-3.78,7.68-9.03,13.08-10.69,6.22-1.91,13.02.12,19.38-.13,3.25-.13,6.42-.78,9.28-2.37,2.6-1.45,4.86-3.49,6.97-5.57,3.87-3.82,7.69-8.84,13.19-10.24,6.37-1.62,13.14.53,19.61.07,3.21-.23,6.28-1.02,9.04-2.72,2.56-1.57,4.78-3.65,6.9-5.76,3.92-3.92,7.79-8.68,13.49-9.79,6.4-1.24,13.02.9,19.47.25,1.69-.17,3.36-.46,4.96-1.04,1.27-.45,2.12-1.7,1.75-3.08-.34-1.23-1.8-2.2-3.08-1.75-6.15,2.2-12.95.27-19.29.3-3.3.02-6.53.53-9.51,1.99-2.65,1.3-4.96,3.29-7.08,5.32-3.93,3.76-7.73,8.99-13.13,10.63-6.22,1.89-13.02-.17-19.37.07-3.25.12-6.42.77-9.28,2.36-2.6,1.44-4.86,3.49-6.97,5.56-3.87,3.82-7.69,8.84-13.19,10.25-6.37,1.63-13.15-.51-19.62-.03-3.21.24-6.28,1.04-9.03,2.75-2.55,1.58-4.76,3.66-6.87,5.78-3.9,3.93-7.75,8.73-13.44,9.87-6.4,1.28-13.02-.81-19.48-.11-1.7.18-3.35.49-4.96,1.07-1.27.46-2.12,1.7-1.75,3.08.34,1.22,1.8,2.21,3.08,1.75h0Z"/>
      </g>
      <g>
        <path class="cls-14" d="m1308.48,408.3c3.68-4.68,3.89-11.78.5-16.67,1.93-.93,4.19-.07,6.27.43,3.17.77,6.48.66,9.74.87,6.84.43,13.51,2.25,20.12,4.05,11.67,3.18,23.34,6.37,34.94,9.8,9.84,2.91,19.75,6.04,28.5,11.41,3.66,2.25,7.29,4.95,11.57,5.38,2.74.28,6.39.12,7.23,2.75.48,1.5-.42,3.11-1.6,4.15s-2.64,1.71-3.83,2.73c-3.64,3.1-4.02,8.44-5.25,13.06-2.96,11.13-12.19,20.55-12.06,32.06.03,3.07.75,6.08,1.47,9.07.12.51.23,1.09-.06,1.52-.5.74-1.64.44-2.44.04-5.82-2.91-11.1-6.87-17.06-9.47-11.65-5.08-24.84-4.59-37.41-6.38-14.19-2.03-27.86-7.07-40.35-14.11-2.9-1.63-6.05-3.44-9.34-2.92-2.3.36-5,1.73-6.65.09-1.16-1.15-.86-3.18.12-4.49.98-1.31,2.45-2.14,3.74-3.15,5.57-4.35,7.53-11.88,8.14-18.93.61-7.04,1.31-14.63,3.72-21.28h0Z"/>
        <path class="cls-20" d="m1309.88,409.71c4.2-5.43,4.73-13.32.81-19.07l-.71,2.72c.36-.16.85-.17,1.51-.12.41.03-.45-.09.27.03.15.03.31.06.46.09.42.09.84.2,1.26.31,1.63.43,3.26.74,4.94.91,3.31.33,6.63.26,9.94.67,6.47.8,12.88,2.75,19.19,4.47,12.96,3.54,25.97,6.99,38.78,11.05,5.94,1.89,11.7,3.98,17.2,6.86,2.66,1.39,5.15,3.03,7.71,4.58s5.39,2.91,8.44,3.3c1.14.14,2.3.21,3.44.32.34.03-.47-.09.07.01.11.02.22.04.33.06.27.05.54.11.8.19.16.05.65.25.26.07.11.05.23.11.34.17.12.07.5.39.14.06.14.13.42.47.18.12.06.08.12.25.19.31l.04.07c-.09-.24-.1-.25-.02-.04.02.02.1.41.05.06,0-.03,0,.59.02.33s-.08.36-.08.32c-.07.34.07-.05-.1.28-.59,1.07-1.5,1.65-2.68,2.41s-2.41,1.64-3.33,2.78-1.59,2.33-2.14,3.66c-1,2.4-1.46,4.97-2.04,7.49-1.22,5.27-3.5,9.6-6.04,14.41s-5.13,9.72-6.06,15.09c-.53,3.1-.46,6.12.05,9.22.28,1.64.67,3.26,1.05,4.88.02.07.15.48.11.52-.04.03.02-.34,0-.27.05-.25.29-.47.51-.57l.09-.05c.27-.03.28-.04.05-.04.04-.05.45.13.01-.02-.11-.04-.23-.07-.34-.11.38.13-.03-.02-.11-.06-.26-.13-.51-.26-.76-.39-5.48-2.86-10.51-6.55-16.19-9.02-11.67-5.09-24.56-4.87-36.98-6.46-11.93-1.53-23.94-5.47-34.77-10.85-2.75-1.37-5.4-2.92-8.13-4.35-3.01-1.57-6.13-2.57-9.53-1.8-.6.14-1.2.3-1.8.44-.3.07-.59.13-.89.18-.36.06.45,0-.15.01-.19,0-.37.01-.56.01-.38,0-.11,0,0,.01-.14-.03-.29-.06-.42-.11l-.08-.03c.21.08.21.07,0-.04.02.04.32.28-.03-.04-.38-.35,0-.01-.02-.01l-.09-.15c.07.21.07.21,0,0-.03-.11-.06-.22-.08-.34.08.44.03-.12.03-.18,0-.37,0-.11-.01-.02.03-.18.09-.36.13-.54.01-.06.14-.35,0-.05.05-.11.11-.22.17-.33.23-.41.67-.85,1.22-1.33.32-.28.99-.74,1.48-1.1.62-.45,1.23-.91,1.8-1.42,4.04-3.59,6.17-8.9,7.18-14.1.55-2.8.76-5.63,1.02-8.47.29-3.16.61-6.13,1.16-9.21s1.22-5.86,2.23-8.67c.36-1.01-.41-2.17-1.39-2.44-1.1-.3-2.08.37-2.44,1.39-2.2,6.15-2.96,12.71-3.55,19.18-.14,1.48-.24,2.97-.42,4.45-.02.14-.03.27-.05.41.04-.33-.02.1-.03.18-.04.31-.09.61-.14.91-.11.68-.24,1.35-.39,2.02-.29,1.33-.65,2.65-1.1,3.94s-.8,2.09-1.52,3.37c-.68,1.2-1.26,2.03-2.03,2.9-.92,1.03-1.8,1.75-2.79,2.46-1.34.96-2.69,1.94-3.58,3.36-.8,1.28-1.14,2.94-.8,4.42.37,1.6,1.58,2.84,3.14,3.33,1.45.45,3.03.12,4.46-.24.6-.15,1.19-.31,1.79-.43.5-.1,1.36-.12,1.92-.04,1.33.18,2.71.78,3.95,1.42,2.84,1.46,5.59,3.09,8.45,4.51s5.96,2.8,9.01,4.04c5.93,2.4,12.05,4.33,18.29,5.69s12.63,2.03,19.02,2.59c6.33.56,12.39,1.08,18.55,2.67,3.02.78,5.92,1.8,8.65,3.14,2.89,1.42,5.63,3.1,8.38,4.75,1.36.82,2.72,1.63,4.11,2.41,1.29.72,2.7,1.66,4.16,1.99,2,.45,4.04-.64,4.14-2.85.03-.76-.19-1.52-.37-2.26-.21-.87-.41-1.75-.59-2.62-.33-1.58-.56-3.04-.62-4.66-.03-.72-.01-1.45.03-2.17s.12-1.28.19-1.71c.22-1.31.54-2.6.94-3.87.2-.62.41-1.24.64-1.84.12-.32.25-.64.38-.96.16-.39.12-.29.28-.67,2.23-5.12,5.23-9.87,7.44-15,1.11-2.58,1.99-5.2,2.6-7.94.29-1.31.56-2.62.91-3.92.16-.61.34-1.21.54-1.8.1-.28.2-.55.3-.82.22-.58-.09.18.06-.15.09-.2.19-.41.29-.61.26-.51.56-.99.88-1.46.34-.49-.13.15.09-.13.1-.12.2-.24.31-.36.22-.24.45-.47.69-.68,1.06-.94,2.62-1.71,3.8-2.7,2.41-2.02,3.52-5.79,1.09-8.26-1.82-1.86-4.7-1.92-7.12-2.11-2.59-.2-4.93-1.23-7.33-2.65-2.67-1.58-5.24-3.31-7.99-4.76-2.92-1.53-5.95-2.87-9.02-4.07-6.03-2.37-12.25-4.21-18.46-6.02-6.7-1.96-13.43-3.84-20.16-5.7s-13.4-3.81-20.17-5.43c-3.38-.81-6.79-1.46-10.24-1.85s-6.79-.2-10.04-.68c-1.53-.22-2.99-.73-4.5-1.02-1.78-.34-3.4-.3-5.07.45-.93.42-1.27,1.9-.71,2.72.41.6.77,1.23,1.08,1.88.02.04.21.49.14.31-.07-.17.12.33.12.31.11.31.22.62.31.94.43,1.5.53,2.3.49,3.87,0,.33-.03.66-.06.99-.01.16-.03.33-.05.49.05-.38-.04.24-.05.26-.12.68-.29,1.35-.51,2.01-.05.16-.11.31-.16.47,0,0-.23.58-.09.26-.13.3-.27.6-.43.89s-.32.58-.49.86c-.1.17-.21.33-.33.5-.04.05-.36.5-.16.24-.65.85-.83,1.98,0,2.81.68.68,2.15.85,2.81,0Z"/>
      </g>
      <g>
        <path class="cls-14" d="m1335.8,471.21c1-5.43-1.88-11.36-6.78-13.92,1.18-1.6,3.41-1.87,5.34-2.35,2.94-.74,5.61-2.26,8.38-3.49,5.81-2.6,12.07-3.98,18.28-5.35,10.97-2.42,21.94-4.84,32.95-7.03,9.35-1.86,18.84-3.56,28.35-2.92,3.98.27,8.13.92,11.83-.57,2.37-.95,5.31-2.66,7.13-.86,1.04,1.02,1,2.74.48,4.1-.52,1.36-1.43,2.54-1.98,3.9-1.66,4.12.34,8.67,1.32,13,2.37,10.43-1.16,22.15,3.92,31.56,1.35,2.51,3.24,4.67,5.12,6.82.32.37.66.79.61,1.28-.09.82-1.16,1.07-1.99,1.08-6.04.12-12.08-.86-18.11-.42-11.76.85-22.39,6.95-33.51,10.89-12.54,4.45-25.96,6.21-39.25,5.82-3.09-.09-6.46-.22-8.94,1.63-1.73,1.29-3.36,3.58-5.43,2.95-1.45-.44-2.08-2.24-1.84-3.74s1.09-2.82,1.72-4.2c2.7-5.98,1.06-13.02-1.47-19.07-2.54-6.06-5.24-12.59-6.13-19.1h0Z"/>
        <path class="cls-20" d="m1337.71,471.74c1.12-6.34-1.95-13.1-7.69-16.16l.4,3.12c.18-.23.38-.45.61-.64-.29.24.2-.11.32-.18.1-.06.21-.11.31-.16.5-.25-.21.07.11-.04s.64-.21.96-.3c1.15-.31,2.33-.52,3.47-.9,2.76-.91,5.32-2.33,7.98-3.5,4.99-2.2,10.79-3.5,16.25-4.71,11.94-2.64,23.88-5.29,35.89-7.63,5.92-1.16,11.64-2.16,17.62-2.51,2.99-.17,5.98-.17,8.97.05s5.67.52,8.51.13c1.51-.2,2.87-.63,4.27-1.23.27-.11.53-.23.8-.34.04-.02.41-.17.22-.09-.24.1.36-.14.31-.12.56-.22,1.13-.42,1.72-.55.11-.02.5-.07.09-.03.11-.01.23-.02.34-.02.11,0,.23.02.34,0-.32.03-.2-.05-.04,0,0,0,.5.17.23.05s.19.13.2.13c-.07-.05-.27-.24,0,.02.35.34-.14-.28.11.14.18.31.04.07.01-.01.05.13.07.28.12.41.1.26.02-.43,0,.07,0,.12,0,.23,0,.35s-.01.24-.02.36c.03-.38.01-.08-.01,0-.07.24-.19.7-.23.82-.46,1.15-1.38,2.46-1.91,3.73s-.79,2.78-.79,4.21c0,2.88.89,5.66,1.62,8.41s1.01,4.74,1.16,7.42.11,5.22.11,7.83c0,5.15.07,10.52,1.91,15.41,1.03,2.74,2.55,5.11,4.37,7.39.42.53.86,1.04,1.3,1.56.22.26.44.51.66.77.1.11.2.23.3.34.03.03.41.48.18.21.28.34,0,.09.03.01.15-.41-.08-.55.16-.89.05-.07.35-.47.12-.18.06-.08.4-.1.05-.05-.1.02-.2.04-.3.06.45-.09.12-.02,0-.02-.43,0-.87.01-1.3.01-6-.02-12-.94-17.99-.33-11.16,1.12-21.1,6.48-31.46,10.34-10.87,4.05-22.13,6.01-33.62,6.29-2.79.07-5.58-.03-8.37-.06-2.61-.02-5.38.21-7.66,1.61-1.04.65-1.91,1.53-2.84,2.32-.12.1-.23.2-.35.29-.26.21.37-.22-.1.06-.19.12-.39.24-.58.35-.37.22.16.03-.05.02-.11,0-.27.08-.38.1.12-.02.37.01.05-.03-.19-.01-.21-.01-.06,0,.16.02.13,0-.07-.04,0,.03.42.19.04.01-.29-.13-.06-.03.02.04,0,0-.38-.36-.17-.14s-.1-.18-.11-.19c-.05-.07-.16-.35,0,.04-.04-.1-.08-.21-.11-.31-.04-.13-.05-.28-.1-.4-.03-.15-.02-.11.01.11,0-.08-.01-.17-.01-.25,0-.11.02-.23,0-.33-.05-.26-.13.48,0-.09.07-.28.13-.56.23-.83-.03.08.22-.58.13-.37s.2-.43.16-.36c.16-.33.32-.65.48-.98,1.29-2.58,2.03-5.27,2.13-8.17s-.37-5.58-1.11-8.24-1.84-5.2-2.89-7.76c-1.12-2.72-2.19-5.46-3.09-8.26s-1.56-5.44-1.96-8.24c-.14-1.03-1.51-1.69-2.44-1.39-1.13.37-1.54,1.34-1.39,2.44.84,5.96,3.03,11.63,5.32,17.16,1.08,2.61,2.16,5.21,2.85,7.96.16.64.3,1.28.42,1.93.06.36.13.72.17,1.08-.04-.27,0,.09.01.12.02.22.05.43.07.65.12,1.35.11,2.7-.03,4.05-.07.67.03-.19-.03.21-.03.17-.06.35-.09.52-.05.28-.11.55-.18.83-.17.69-.38,1.37-.65,2.03.1-.25-.07.17-.1.22-.08.16-.15.33-.23.49-.13.26-.26.52-.39.78-.37.73-.72,1.48-.98,2.26-.92,2.72-.08,6.1,2.81,7.18s5.03-1.33,6.95-2.96c-.02.02.44-.36.22-.18s.28-.19.26-.18c.22-.14.44-.27.67-.39-.03.02.53-.24.29-.14s.34-.12.3-.11c.31-.1.62-.19.93-.26s.64-.13.96-.18c-.34.05.34-.03.46-.04.67-.05,1.34-.07,2.01-.06,2.86.01,5.71.13,8.57.06s5.95-.26,8.91-.56c6.01-.62,11.98-1.68,17.81-3.29s10.92-3.7,16.26-5.92,10.43-4.35,15.9-5.72c1.35-.34,2.72-.63,4.1-.86.36-.06.73-.12,1.09-.16-.09.01-.29.04.13-.01.15-.02.29-.04.44-.05.76-.08,1.52-.15,2.28-.19,3.1-.17,6.2.01,9.3.2,1.55.09,3.1.19,4.65.24s3.08.18,4.57-.09,2.89-1.47,2.84-3.12-1.52-2.86-2.52-4.03-1.64-1.97-2.44-3.16c-.37-.56-.72-1.14-1.04-1.73-.16-.3-.32-.61-.47-.92-.06-.12-.12-.25-.17-.37-.28-.6.12.33-.12-.28-.48-1.2-.85-2.43-1.13-3.69-.31-1.39-.44-2.29-.56-3.51-.52-5.32-.06-10.67-.41-15.99-.18-2.81-.63-5.57-1.36-8.28-.37-1.39-.78-2.77-1.07-4.18-.27-1.3-.38-2.35-.28-3.82.05-.67-.04.17.03-.22.03-.18.06-.35.1-.53.07-.28.14-.56.24-.83-.03.08.23-.58.14-.38s.22-.43.18-.36c.16-.33.34-.64.52-.96.68-1.2,1.38-2.44,1.6-3.82s.1-2.96-.76-4.17c-.91-1.28-2.33-2.01-3.9-2.03-1.3-.02-2.56.41-3.74.89-.64.26-1.27.55-1.91.81.34-.14-.08.03-.15.06-.17.07-.35.13-.53.19-.35.12-.71.22-1.07.3-1.23.29-2.47.36-3.92.33s-2.88-.15-4.32-.27c-6.25-.5-12.47-.06-18.66.83-6.16.89-12.27,2.18-18.37,3.44s-12.28,2.6-18.41,3.94c-5.91,1.3-11.88,2.46-17.71,4.11-2.93.83-5.8,1.83-8.58,3.05s-4.98,2.51-7.68,3.27c-2.34.65-5.05.92-6.66,2.98-.74.95-.84,2.45.4,3.12.58.31,1.13.65,1.65,1.04-.33-.25.13.11.15.13.11.1.22.19.33.29.24.22.47.45.7.68s.44.48.65.73c.09.11.24.32.07.09.1.14.21.29.31.43.37.54.7,1.1.99,1.69.07.13.13.27.19.4s.15.36.05.1c.13.33.25.67.36,1,.2.62.33,1.26.45,1.9.07.38,0-.15.01.09.01.15.03.29.04.44.03.32.04.65.04.97s-.01.65-.04.97c-.01.18-.03.35-.05.53.04-.36-.01.04-.04.18-.18,1.02.27,2.19,1.39,2.44.97.22,2.25-.29,2.44-1.39Z"/>
      </g>
    </g>
    <rect class="cls-25" x="1264.17" y="641.97" width="321.36" height="89.25" rx="12" ry="12"/>
    <text class="cls-16" transform="translate(1300.26 681.71)"><tspan class="cls-31" x="0" y="0">T</tspan><tspan x="9.73" y="0">ap</tspan><tspan class="cls-12" x="34.9" y="0"> </tspan><tspan x="38.77" y="0">the ci</tspan><tspan class="cls-36" x="90.9" y="0">r</tspan><tspan x="98.64" y="0">cles</tspan><tspan class="cls-12" x="136.93" y="0"> </tspan><tspan class="cls-19" x="140.8" y="0">t</tspan><tspan x="149.36" y="0">o</tspan><tspan class="cls-30" x="161.58" y="0"> </tspan><tspan x="165.33" y="0">vi</tspan><tspan class="cls-32" x="181.04" y="0">e</tspan><tspan class="cls-33" x="192" y="0">w</tspan><tspan class="cls-37" x="209.13" y="0" xml:space="preserve"> ou</tspan><tspan class="cls-34" x="237.31" y="0">r</tspan><tspan x="244.94" y="0"> </tspan><tspan x="33.21" y="19.2">packing esse</tspan><tspan class="cls-35" x="158.63" y="19.2">n</tspan><tspan x="170.39" y="19.2">tials!</tspan></text>
    <g>
      <path class="cls-25" d="m315.7,609.81l-93.84,77.35s3.63,9.75,11.45,11.51l92.8-77.94-10.41-10.91Z"/>
      <polygon class="cls-21" points="329.47 602.91 334.33 608.83 390.8 561.2 401.28 547.82 386.25 555.29 329.47 602.91"/>
      <polygon class="cls-22" points="313.55 607.2 317.9 603.09 319.43 604.76 325.93 598.72 337.3 612.59 330.63 617.65 331.95 619.82 326.61 623.08 313.55 607.2"/>
      <path class="cls-3" d="m471.97,474.46l-68.47,58.23s-7.77,6.86-2.22,15.14,15.2.04,15.2.04l68.26-57.67"/>
      <path class="cls-21" d="m443.63,542.02c-1.42.22-2.91-.13-4.55-1.13-6.06-3.69-10.88-8.95-15-14.67-1.96-2.72-3.77-5.56-5.53-8.42-1.25-2.04-4.2-5.52-2.44-8.01.4-.57,1.12-1.06,1.62-1.54,2.31-2.2,4.62-4.4,6.93-6.59,5.93-5.65,11.87-11.29,17.8-16.94l4.91-4.68c.66-.63,1.72-.6,2.34.06l27.71,29.11c.63.66.6,1.72-.06,2.34-4.06,3.87-8.13,7.74-12.19,11.61-5.77,5.49-11.55,10.99-17.32,16.48-1.4,1.33-2.77,2.15-4.22,2.38Z"/>
      <path class="cls-26" d="m448.02,479.65s8.53-4.58,20.49,10.25c11.38,14.1,9.36,20.38,9.36,20.38,0,0-20.13-7.05-29.85-30.62Z"/>
      <line class="cls-3" x1="464.13" y1="481.12" x2="456.66" y2="487.59"/>
      <line class="cls-3" x1="478.89" y1="495.11" x2="471.42" y2="501.57"/>
    </g>
  </g>
  <g>
    <circle class="cls-22" cx="1789.74" cy="457.96" r="40.46"/>
    <circle class="cls-9" cx="1789.74" cy="457.96" r="48.62"/>
    <text class="cls-13" transform="translate(1776.94 478.15)"><tspan x="0" y="0">1</tspan></text>
  </g>
  <g>
    <circle class="cls-22" cx="1254.43" cy="529.16" r="40.46"/>
    <circle class="cls-9" cx="1254.43" cy="529.16" r="48.62"/>
    <text class="cls-13" transform="translate(1232.6 549.36)"><tspan x="0" y="0">4</tspan></text>
  </g>
  <g>
    <circle class="cls-22" cx="1034.12" cy="453.88" r="40.46"/>
    <circle class="cls-9" cx="1034.12" cy="453.88" r="48.62"/>
    <text class="cls-15" transform="translate(1001.38 474.08)"><tspan x="0" y="0">10</tspan></text>
  </g>
  <g>
    <circle class="cls-22" cx="463.01" cy="689.67" r="40.46"/>
    <circle class="cls-9" cx="463.01" cy="689.67" r="48.62"/>
    <text class="cls-13" transform="translate(440.58 709.87)"><tspan x="0" y="0">6</tspan></text>
  </g>
  <g>
    <circle class="cls-22" cx="702.89" cy="441.13" r="40.46"/>
    <circle class="cls-9" cx="702.89" cy="441.13" r="48.62"/>
    <text class="cls-13" transform="translate(679.67 461.33)"><tspan x="0" y="0">8</tspan></text>
  </g>
  <g>
    <circle class="cls-23" cx="1026.64" cy="130.58" r="40.46"/>
    <circle class="cls-10" cx="1026.64" cy="130.58" r="48.62"/>
    <text class="cls-13" transform="translate(1005.19 150.78)"><tspan x="0" y="0">2</tspan></text>
  </g>
  <g>
    <circle class="cls-23" cx="582.31" cy="90.12" r="40.46"/>
    <circle class="cls-10" cx="582.31" cy="90.12" r="48.62"/>
    <text class="cls-13" transform="translate(563.17 110.32)"><tspan x="0" y="0">7</tspan></text>
  </g>
  <g>
    <circle class="cls-23" cx="258.05" cy="610.9" r="40.46"/>
    <circle class="cls-10" cx="258.05" cy="610.9" r="48.62"/>
    <text class="cls-17" transform="translate(234.03 631.1)"><tspan x="0" y="0">11</tspan></text>
  </g>
  <g>
    <circle class="cls-25" cx="1485.92" cy="367.18" r="40.46"/>
    <circle class="cls-11" cx="1485.92" cy="367.18" r="48.62"/>
    <text class="cls-13" transform="translate(1464.06 387.38)"><tspan x="0" y="0">3</tspan></text>
  </g>
  <g>
    <circle class="cls-25" cx="1133.1" cy="711.61" r="40.46"/>
    <circle class="cls-11" cx="1133.1" cy="711.61" r="48.62"/>
    <text class="cls-13" transform="translate(1112.03 731.81)"><tspan x="0" y="0">5</tspan></text>
  </g>
  <g>
    <circle class="cls-25" cx="823.45" cy="563.86" r="40.46"/>
    <circle class="cls-11" cx="823.45" cy="563.86" r="48.62"/>
    <text class="cls-13" transform="translate(801.01 584.06)"><tspan x="0" y="0">9</tspan></text>
  </g>
  <g>
    <circle class="cls-25" cx="896.31" cy="380.51" r="40.46"/>
    <circle class="cls-11" cx="896.31" cy="380.51" r="48.62"/>
    <text class="cls-18" transform="translate(867.33 400.71)"><tspan x="0" y="0">12</tspan></text>
  </g>
</svg>