<?xml version="1.0" encoding="UTF-8"?>
<svg xmlns="http://www.w3.org/2000/svg" viewBox="0 0 298.79 209.9">
  <defs>
    <style>
      .cls-1 {
        fill: #ee327f;
      }

      .cls-2 {
        fill: #fff;
      }

      .cls-3 {
        fill: #ffc50d;
      }

      .cls-4 {
        fill: #8d8c89;
      }

      .cls-5 {
        fill: #cfcfce;
      }

      .cls-6 {
        fill: #231f20;
      }

      .cls-7 {
        fill: none;
        stroke: #ee327f;
        stroke-miterlimit: 10;
        stroke-width: .25px;
      }
    </style>
  </defs>
  <g id="water">
    <path class="cls-3" d="m242.1,158.2c-.07-.09-.2.05-.23.16-.06.23-.12.47-.18.7-.01.04-.02.09,0,.14.02.06.07.1.13.11.22.07.44-.1.61-.25.76-.69,1.51-1.37,2.27-2.06.34-.3.69-.65.76-1.09.03-.21-.02-.46-.21-.55-.19-.09-.41,0-.58.11-1.1.71-1.58,2.18-2.76,2.75"/>
    <path class="cls-3" d="m77.33,75.62c-5.74,3.25-12.58,3.96-18.59,6.69-7.41,3.36-13.1,9.55-18.58,15.57-.5.55-1.04,1.33-.68,1.98.21.37.64.55,1.05.67,4.9,1.43,9.86-1.59,14.86-2.59.76-.15,1.7-.19,2.13.46.95,1.41-2.08,3.04-1.38,4.58,4.84,3.89,12.06,2.81,17.62.06,5.57-2.75,10.42-6.91,16.26-9.03.51.8.44,1.92-.16,2.65,1.86.79,2.85,3.19,2.08,5.06,3.14-2.47,7.75-2.89,11.29-1.04s5.82,5.88,5.59,9.87c2.66-1.73,6.14.4,9.31.19,2.08-.14,3.94-1.29,5.78-2.28,3.42-1.83,7.09-3.18,10.88-4,1.77-.38,3.76-.61,5.26.42,1.49,1.02,1.71,3.77.02,4.41,8.67.11,16.73,7.16,17.99,15.74-1.85-.72-3.69-1.44-5.54-2.16,1.04,2.88,4.84,3.33,7.39,5.03,3.81,2.54,4.57,7.73,4.97,12.29.31,3.56.63,7.13.94,10.69.12,1.36.24,2.73-.04,4.07-.64,3.01-3.2,5.25-5.92,6.68-2,1.05-4.51,2.26-4.58,4.52-.07,2.45,3.12,3.85,5.46,3.12,2.34-.73,4.02-2.72,5.83-4.37,1.81-1.65,4.25-3.1,6.6-2.4,3.71,1.11,4.02,6.11,4.23,9.97.22,4.09,1.16,8.14,2.77,11.91.32.76.71,1.54,1.41,1.98,1.64,1.01,3.64-.48,4.98-1.86,3.27-3.38,6.66-6.97,7.86-11.52.84-3.17.52-6.52.92-9.78.45-3.67,1.82-7.22,3.95-10.23.54-.76,1.15-1.51,1.98-1.94,3.23-1.65,6.45,2.42,10.01,3.14,3.73.76,7.33-2.6,8.13-6.33s-.44-7.57-1.9-11.09c-1.48-3.57-3.19-7.04-5.13-10.39-1-1.73-2.08-3.45-3.6-4.75-1.57-1.35-3.52-2.16-5.46-2.9-12.25-4.68-25.37-7.09-38.48-7.09-2.1,0-4.31.04-6.18-.94-1.5-.79-2.61-2.15-3.67-3.47-2.07-2.59-4.25-5.44-4.33-8.75-.1-4.09,3.03-7.86,2.45-11.91-.6-4.18-4.84-6.76-8.82-8.15-3.98-1.39-8.42-2.36-11.2-5.53-3.28-3.72-3.66-9.87-7.98-12.3-2.52-1.42-5.62-1.07-8.49-1.41-5.8-.68-11.12-4.27-16.96-4.06-5.67.21-10.52,3.93-14.94,7.49-2.79,2.24-5.82,4.98-5.82,8.56,0,1.89.67,4.31-.95,5.29"/>
    <path class="cls-3" d="m181.25,194.43c-1.14.27-2.64.38-3.16-.67-.15-.3-.18-.64-.27-.96-.3-.99-1.33-1.72-2.36-1.66s-1.98.88-2.18,1.9c-.15.8.1,1.69-.3,2.4-.18.32-.47.55-.75.79-2.66,2.26-4.72,5.21-5.95,8.47-.21.57-.4,1.21-.18,1.78.28.73,1.11,1.06,1.86,1.3,2.99.95,6.05,1.65,9.15,2.12,2.02.3,4.09.5,6.1.14s3.98-1.36,5.15-3.04c.35-.5.64-1.08,1.15-1.43,1.08-.75,2.56-.17,3.87-.29,2.23-.21,3.71-2.41,5.76-3.33,2.5-1.11,5.53-.17,8.06-1.21.78-.32,1.49-.82,2.3-1.02,1.81-.46,3.99.54,5.45-.62.5-.39.85-1.01,1.45-1.2.47-.15.97,0,1.44.11,2.5.59,5.23.15,7.42-1.21,1.6-.99,2.88-2.42,4.46-3.43,2.07-1.33,4.92-2.31,5.31-4.74.23-1.49-.68-2.97-1.91-3.85s-2.73-1.27-4.19-1.65"/>
    <path class="cls-3" d="m216.61,175.69c.12-2.86,2.01-5.4,4.36-7.03s5.14-2.48,7.88-3.29c4.98-1.48,10.05-2.96,14.42-5.76,1.78-1.14,3.44-2.5,5.39-3.29,2.06-.84,4.33-1,6.52-1.36,3.7-.61,7.27-1.79,10.83-2.97,4.27-1.41,8.54-2.83,12.8-4.24.11,1.14-1.01,1.97-1.96,2.61-1.63,1.1-3.13,2.37-4.48,3.8-.6.64-1.2,1.37-1.28,2.24s.62,1.86,1.49,1.74c.58-.08,1.26-.57,1.64-.13-.04.36-.07.71-.11,1.07.74.16.93,1.17.7,1.89s-.73,1.38-.75,2.14c-.03.82.49,1.56.65,2.37.22,1.14-.31,2.32-1.1,3.16s-1.83,1.41-2.85,1.96c-2.04,1.11-4.09,2.22-6.13,3.33-1.08.59-2.18,1.18-3.37,1.49-1.87.48-3.9.23-5.71.9-.48.18-.95.42-1.46.43-.61.02-1.17-.28-1.71-.54-3.98-1.93-8.65-2.39-12.93-1.27-2.76.72-5.3,2.06-7.94,3.14s-5.48,1.91-8.31,1.55c-2.82-.37-5.61-2.18-6.39-4.92"/>
    <path class="cls-3" d="m200.35-.08c-.48,1.19.92,2.41.73,3.67-.11.72-.71,1.55-.17,2.08.16.16.39.24.58.36.56.37.71,1.09.69,1.73-.01.44-.08.9.14,1.28.48.86,1.8.68,2.83.72,2.68.11,4.8,2.49,7.48,2.57.18,0,.38,0,.52-.11.16-.12.22-.33.24-.52.16-1.16-.27-2.38-1.13-3.23,1.55-1.05,2.96-2.32,3.93-3.86s.48-2.92.21-4.7"/>
  </g>
  <g id="outline">
    <path class="cls-4" d="m168.74,202.95s-1.04-2.97,1.41-3.7,4.74.76,6.35.48,3.57-.12,3.57-.68-.24-3.25-.24-3.25c0,0-2.05.16-2.89-1.37s-1.08-.92-.84-1.53,2.09,0,2.09,0l.68-6.47s1.04-.12,1.04-1v-1.29s2.97.56,3.53-.56,2.41-1.37,2.41-3.01,4.38.56,4.42-3.45-.2-8.23-.2-8.23l-.32-7.07,1.93-2.61,5.83-10.59-.29-1.08-.36-1.44s-.43,2.31-.65,1.59-1.15-1.44-1.15-2.23.65-2.67-.14-3.03-1.15-.36-1.3-1.01-.22-1.73-1.08-2.02-.94-.58-2.02-.94-.94.22-1.08-.36.36-.79,1.51-.79,2.16-.07,3.03,0,1.8-.14,1.8,1.01.58,2.52.58,3.03.29,2.38,1.15,2.38,1.4,1.41,1.51,1.03.75-1.55,1.21-1.47.94,1.09.19,1.66-1.7,1.21-1.58,1.77.45,1.09.94.6,1.17-1.09,1.73-.75.98,1.55.45,2-.9.64-.9,1.24-.19,1.21.23,1.21,1.43-3.06,3.39-3.02,1.39.94,1.81,1.73.9,1.13,1.7,1.24,4.6,1.66,6.22.26,3.35-1.85,1.62-3.09-4.18-2.49-3.69-3.2,5.09.75,4.67-1.47-1.88-2.71-2.53-3.73-1.81-.97-1.81-2.46-.26-2.66-1.21-3.08-2.37-5.24-3.58-5.62-2.6-.26-2.64-1.55-.08-2.37-.9-2.6-.87.11-1.36-1.28-2.9-3.39-3.43-2.41-.53,2.04-1.62,1.81-2-.11-2.49-.83-.57-2.59-1.92-1.24-.9,2.26-2.19,1.62-.34-1.25-1.43-2.1-3.31-.06-4.5-.63.21-.29-1.86-.62c-2.06-.33-1.61-.12-2.68-.62s-2.6-1.03-4.79-.33c-2.19.7-2.72-.08-4.29-.08s-2.52-.66-4.08-.7c-1.57-.04-4.17-.45-5.82-1.4s-.78-.41-3.09-.83-.91-.41-3.01-.54c-2.1-.12-1.65-1.94-1.61-2.89s.33-1.65-2.02-.95-1.9,2.35-3.47,1.2-2.81.34-1.77-1.48.5-.95,1.86-2.23,2.35-.04,1.36-1.28-.91-2.81-1.53-1.11-1.53-.33-.95-1.98.54-1.57-.17-2.6-2.23-2.1-2.02-3.01-.21-.33.5-1.53.91-1.4,1.03-1.4.83-.41.41-1.4-1.49-1.65-1.49-2.02-1.16-1.28-1.73-1.57-2.02-.83-2.02-1.73-1.53-2.35-.99-3.3.62-.74,1.32-1.9,1.53-1.49,1.32-2.23-1.24-.78-1.24-.78c0,0-6.39.58-8.09.74s-3.8-1.2-3.8-1.2c0,0-4.79-3.71-5.57-9.78s-.66-6.77-2.72-6.97c-2.06-.21-3.84-1.94-5.57-1.07s-.87-.77-2.93-.24-2.76-.87-4.54-.96-5.36-2.35-7.14-2.81-3.96-1.53-4.33-.83-1.86,1.16-.25,2.23,1.77,1.44,3.05,1.16,2.31-.25,3.05-.21,1.77-.04,2.1.95-.78,1.03-1.24.95-1.82-.21-2.23-.21-2.15-.08-2.15-.08c0,0-.83-.37-1.53.87s-1.98,1.53-2.56,1.86-1.77.45-2.23,1.49-.37,2.43-1.2,2.39-1.16-.17-.5-1.53,1.16-1.73,1.77-2.52,2.06-1.32,2.06-1.9-.12-2.39-.87-2.6-1.94.87-1.94.87c0,0-1.53,2.68-1.38,3.14s-8.97,1.57-9.01,2.89-.17,4.21-1.16,5.53-2.65,5.29-4.8,4.82-5.37-3.11-7.6-3.59c-2.23-.48-3.58-1.03-5.41-1.35-1.83-.32-2.86-.4-4.14-1.51s-1.43-.95-2.71-.24-3.66,1.99-5.09,1.83c-1.43-.16-3.82-.48-5.01-1.51s-3.49-5.64-5.87-5.64-.41,2.05-1.89,1.72-.9-.9-2.3-2.46-1.97-4.92-4.02-4.92-3.36-1.48-5.42-1.48-2.71.33-2.71.33v1.07l-5.09-.16v-2.87s-9.85-2.79-10.83-3.94-.82-3.45-2.87-3.94-2.66-2.3-2.66-2.3V-.09h196.79s1.39.08,1.15.82-.28,1.43-.23,1.62.74,2.22.92,2.22,1.11.09,1.11.55.14,2.08,0,2.17-1.34,1.57.28,1.57,3.23-.37,4.11.51,3.14,2.45,3.83,2.45,1.39-.09,1.39-.32.65-1.11.46-1.52-2.31-.23-1.06-1.99,2.82-3.23,2.82-3.23l1.81-1,.91,57.19s-.26.1-.83.73-.41,1.05-1.37,1.05-1.99.83-2.03-.09-2.92-.75-3.45-.65c-2.96.55,2.64-3.27,1.97-3.27s-2.49.67-2.49.86-.48,1.21-.41,1.88,1.12,1.59,1.53,1.63,1.85.83,1.85.99.29.94.55.94,1.33.52,1.33.52l2.74-.1,1.28-.13,1.09,21.68s-.33-.31.42,1.05c1.06,1.92,1.16,3.89,1.16,4.36s.47,3.31.74,4.2,2.79,5.68,3.47,5.89,2.89,4.63,3.42,5.1,2.58,3.99,4.2,3.99,5.52,1.58,5.83,1.89,3.94,0,4.47,1.16,3.21-1.63,6.36.37,4.63,2.58,4.99,3.68,2,2.94,3.94,3.15c1.94.21.68-.89,1.05-1.68s2.68-1.94,2.68-.21.42,3.63.58,3.63.84,2.94,3.94,3.47,8.41.42,10.09.11,3.94-1,4.78-1.26,5.31-2.15,6.78-2.73,4.36-.95,4.99-.95,3.21.42,3.21,1.05.79,3.63.74,3.89.26,1.58.74,1.58,1.16.89,0,2.52-4.63,3.1-7.15,3.99-13.09,14.09-13.09,14.09c0,0-7.46,4.94-9.72,5.36-2.26.42-1.73,2-3.42,2.26s-7.67-.53-8.41-.11-8.3,4.94-10.41,5.05-11.98,3.15-14.19,3.47-3.36,3.89-4.89,4.2-3.99,1.47-4.31,2.84-5.68,4.57-.84,6.15,6.6.39,7.97-.5,1.23-.76,1.91-.39-1,3.26-.37,3.26,3.73-.05,3.42,1-1.05,4.1-2.84,4.1-13.72,1.79-15.51,1.94-4.94,5.1-6.15,5.1-8.57-2.21-10.14-2.15-14.56,9.57-14.56,9.57c0,0-6.78,3.21-6.78,3.89s.37,1.79-1.37,1.31-3.21.89-4.89.37-3.1.21-3.21-.84-.27-2.25-.27-2.25Z"/>
    <path class="cls-4" d="m84.17,71.18c-.12-.02-.04.11-.15.15s-.21.15-.19.27c.02.12.14.19.25.23.6.23,1.34.02,1.74-.49.04-.05.08-.11.08-.18,0-.14-.16-.24-.3-.27-.51-.11-1.02.11-1.49.32"/>
    <path class="cls-4" d="m83.01,78.63c-.33-.48.16-1.17.73-1.32s1.17,0,1.76-.03c.75-.04,1.44-.39,2.11-.73,1.9-.96,3.79-1.92,5.69-2.89,0,.65-.6,1.12-1.15,1.45-.56.34-1.13.65-1.72.93.23.17-.23-.17,0,0-1.35.09-1.99.91-3.24,1.41-.38.15-.75.33-1.04.62s-.44.73-.32,1.11c.05.14.12.29.05.42-.04.07-.12.11-.21.13-.46.11-.94-.24-1.41-.14-.52.11-.84.72-1.36.78-.07,0-.15,0-.21-.04-.06-.04-.08-.12-.1-.19-.11-.41-.11-.85,0-1.26"/>
    <path class="cls-4" d="m128.27,84.01c.52-.62,1.36-.88,2.16-.86s1.58.29,2.32.59c.19.08.4.17.49.36.09.19.03.42-.11.57s-.34.23-.55.26c-.93.15-1.84-.54-2.77-.43-.38.04-.73.21-1.1.3-.22.05-.49.07-.65-.09s-.09-.52.14-.51"/>
    <path class="cls-4" d="m164.4,124.15c-.17-.54-.27-1.1-.3-1.66,0-.1,0-.21.05-.3.07-.13.22-.18.36-.21.64-.15,1.34,0,1.85.41.21.17.4.37.57.58.13.15.27.32.24.52-.04.2-.24.32-.43.41-.65.32-1.41.64-2.07.33"/>
    <path class="cls-4" d="m167.59,123.87c-.05-.28-.1-.59.01-.85s.43-.47.69-.36c.25.11.33.41.44.66s.42.48.63.31c.15-.12.14-.36.25-.52.19-.27.61-.19.91-.04s.64.34.94.19c.43-.22.43-1.01.91-1.05.28-.03.49.25.57.51s.07.56.18.81c.21.45.74.64,1.22.75.75.18,1.51.29,2.28.33.26.01.52.02.77-.07.67-.26.85-1.1,1.24-1.7.27-.41.69-.73,1.16-.89.25-.08.54-.12.76.04.34.25.24.81.48,1.16.24.34.71.38,1.11.49s.85.45.72.84c.32-.7.82-1.33,1.43-1.8.37-.28.79-.52,1.02-.93.12-.22.18-.48.35-.67.47-.53,1.39-.17,2-.52.24-.14.53-.39.75-.23.2.15.1.47-.07.65-.32.33-.78.46-1.19.66s-.82.53-.86.98c-.03.37.22.71.52.92.26.17.6.29.74.57.33.64-.61,1.49-.18,2.07.26.34.83.25,1.12-.06s.38-.76.47-1.18.23-.87.57-1.12c.27-.2.73-.19.85.12.08.2-.01.42-.11.61-.2.42-.4.83-.6,1.25.39.07.78.14,1.16.21.12.02.26.05.34.15.16.18.02.46-.12.66-.68.97-1.36,1.95-2.04,2.92-.33.48-.7.98-1.25,1.17s-1.3-.11-1.33-.69c-.01-.26.11-.5.28-.7.49-.6,1.33-.97,1.47-1.73-.54-.4-1.33-.11-1.79.37s-.71,1.13-1.12,1.65c-.37.47-1,.86-1.54.6-.24-.12-.41-.35-.63-.5-.39-.28-.92-.3-1.32-.57-.47-.31-.69-.91-1.18-1.18-.31-.17-.69-.19-1-.36-.27-.14-.48-.38-.73-.56-.29-.21-.64-.32-.99-.41-.89-.24-1.81-.38-2.74-.42-.56-.02-1.12,0-1.66-.18-.85-.27-1.49-.97-2.3-1.34-1.2-.55-2.72-.36-3.76-1.18"/>
    <g>
      <path class="cls-6" d="m104.78,129.68l.07-.15c.22,0,.41.04.55.1.14.06.25.15.32.26.07.11.11.24.11.39,0,.16-.04.29-.11.42-.07.12-.18.22-.32.29-.14.07-.32.11-.53.11h-2.13l.22-1.48-.22-1.4h2.05c.27,0,.47.06.62.19.15.12.22.3.22.52,0,.12-.03.24-.08.35s-.15.2-.27.28c-.12.08-.29.12-.5.14Zm-1.25,1.23l-.31-.37h1.43c.12,0,.2-.03.27-.08s.1-.13.1-.23-.03-.18-.1-.24-.17-.09-.31-.09h-1.18v-.55h1.08c.09,0,.17-.03.23-.08.06-.06.09-.13.09-.23,0-.08-.03-.14-.08-.19-.05-.05-.13-.07-.23-.07h-1.29l.3-.37.2,1.22-.2,1.3Z"/>
      <path class="cls-6" d="m107.45,131.15c-.27,0-.5-.05-.71-.15-.21-.1-.37-.23-.49-.41s-.18-.38-.18-.61.06-.43.17-.6c.12-.17.27-.31.47-.41s.43-.15.68-.15.49.06.67.17c.19.11.33.27.43.48.1.21.15.45.15.73h-1.95v-.47h1.51l-.26.17c-.01-.11-.04-.21-.08-.29-.05-.08-.11-.14-.18-.18-.08-.04-.17-.06-.27-.06-.12,0-.21.02-.3.07-.08.05-.15.11-.19.19-.05.08-.07.18-.07.28,0,.14.03.26.09.35.06.1.16.17.28.22s.27.08.45.08c.16,0,.32-.02.48-.06s.31-.1.44-.18v.5c-.15.1-.32.18-.52.24s-.4.08-.62.08Z"/>
      <path class="cls-6" d="m111.52,130.38c0,.17-.05.31-.15.43s-.25.2-.44.26c-.19.06-.42.09-.68.09s-.51-.03-.72-.1c-.21-.07-.37-.16-.48-.28-.12-.12-.18-.26-.18-.42h.8c.02.06.05.11.11.15s.12.07.21.1c.09.02.19.03.31.03.16,0,.27-.02.36-.05.08-.03.12-.08.12-.14,0-.05-.03-.08-.09-.11-.06-.02-.17-.04-.31-.06l-.39-.03c-.26-.02-.46-.06-.62-.12-.15-.06-.26-.14-.33-.23-.07-.1-.1-.21-.1-.33,0-.17.05-.3.16-.41s.25-.19.43-.25c.19-.06.4-.08.65-.08s.46.03.66.1c.19.06.35.15.46.27.12.11.18.25.2.4h-.8s-.04-.09-.08-.13c-.04-.04-.1-.07-.18-.1s-.18-.04-.3-.04c-.14,0-.25.02-.32.05s-.11.07-.11.13c0,.04.02.08.07.1s.13.04.25.05l.51.04c.25.02.45.05.6.11.15.06.25.13.31.23s.09.21.09.34Z"/>
      <path class="cls-6" d="m111.63,129.48v-.34l.45-.18.34-.65h.45v.59h.92v.58h-.92v.65c0,.16.03.27.1.33.06.06.18.1.35.1.11,0,.2,0,.29-.03s.16-.04.23-.07v.59c-.08.03-.18.05-.3.08s-.25.03-.39.03c-.24,0-.44-.04-.6-.11-.16-.07-.27-.18-.34-.32-.07-.14-.11-.3-.11-.49v-.75h-.45Z"/>
      <path class="cls-6" d="m116.39,131.15c-.28,0-.53-.05-.74-.14-.21-.1-.37-.23-.49-.41s-.18-.38-.18-.61.06-.44.18-.61c.12-.17.28-.31.49-.41s.46-.15.74-.15.52.05.74.15c.21.1.38.23.49.41.12.17.18.38.18.61s-.06.43-.18.61-.28.31-.49.41c-.21.1-.46.14-.74.14Zm0-.58c.13,0,.24-.02.33-.07.09-.05.16-.11.21-.2s.07-.19.07-.31-.02-.23-.07-.31-.12-.15-.21-.2c-.09-.05-.2-.07-.33-.07s-.24.02-.33.07c-.09.05-.16.11-.21.2s-.07.19-.07.31.02.22.07.31.12.15.21.2c.09.05.2.07.33.07Z"/>
      <path class="cls-6" d="m117.98,129.66v-.58h2.12v.58h-2.12Zm1.69-1c-.17,0-.29.03-.36.09-.07.06-.1.16-.1.29v2.05h-.78v-2.02c0-.21.04-.39.13-.54.09-.15.22-.26.39-.34s.38-.12.63-.12c.11,0,.21,0,.3.02s.18.04.28.07v.58c-.08-.03-.16-.05-.24-.06-.08-.01-.16-.02-.25-.02Z"/>
      <path class="cls-6" d="m122.89,128.21c.24,0,.45.04.62.12s.31.2.4.35.14.32.14.52-.05.37-.14.52-.23.27-.4.35-.38.12-.62.12h-1.25v-.64h1.2c.13,0,.23-.03.3-.09.07-.06.11-.15.11-.26s-.04-.2-.11-.26-.17-.09-.3-.09h-1.13l.36-.37v2.61h-.8v-2.88h1.62Z"/>
      <path class="cls-6" d="m126.47,130c-.04.23-.11.43-.21.61-.11.17-.24.31-.4.4-.16.1-.35.14-.55.14s-.4-.05-.57-.14c-.16-.1-.29-.23-.38-.41-.09-.18-.14-.38-.14-.61s.05-.44.14-.61c.09-.17.22-.31.38-.41.16-.1.35-.15.57-.15s.39.05.55.14.3.23.41.4c.11.17.18.38.21.62Zm-1.46,0c0,.11.02.2.07.29.04.08.11.15.19.2.08.05.17.07.27.07s.21-.02.3-.07c.09-.05.18-.11.25-.2.07-.08.13-.18.16-.29-.04-.11-.09-.21-.16-.29-.07-.08-.16-.15-.25-.2-.09-.05-.2-.07-.3-.07s-.19.02-.27.07c-.08.05-.14.11-.19.2-.04.08-.07.18-.07.29Zm1.28,1.09l-.1-.79.1-.3-.1-.3.1-.8h.81l-.14,1.09.14,1.1h-.81Z"/>
      <path class="cls-6" d="m127.37,128.9h.8l.13.78v1.41h-.78v-1.46l-.15-.74Zm1.96-.04v.67c-.08-.02-.15-.03-.22-.03-.07,0-.13-.01-.19-.01-.11,0-.22.02-.31.07-.09.04-.17.12-.23.22-.06.1-.09.24-.09.41l-.15-.18c.02-.16.05-.31.09-.45s.1-.26.17-.37c.07-.11.16-.19.26-.26.1-.06.23-.09.38-.09.04,0,.09,0,.13,0,.05,0,.09.01.14.02Z"/>
      <path class="cls-6" d="m130.39,130.47l-.22-.07,1.21-1.49h.83l-1.91,2.19h-.7v-2.96h.79v2.33Zm.37-.45l.59-.42.92,1.49h-.88l-.63-1.07Z"/>
      <path class="cls-6" d="m134.91,130.38c0,.17-.05.31-.15.43s-.25.2-.44.26c-.19.06-.42.09-.68.09s-.51-.03-.72-.1c-.21-.07-.37-.16-.48-.28-.12-.12-.18-.26-.18-.42h.8c.02.06.05.11.11.15s.12.07.21.1c.09.02.19.03.31.03.16,0,.27-.02.36-.05.08-.03.12-.08.12-.14,0-.05-.03-.08-.09-.11-.06-.02-.17-.04-.31-.06l-.39-.03c-.26-.02-.46-.06-.62-.12-.15-.06-.26-.14-.33-.23-.07-.1-.1-.21-.1-.33,0-.17.05-.3.16-.41s.25-.19.43-.25c.19-.06.4-.08.65-.08s.46.03.66.1c.19.06.35.15.46.27.12.11.18.25.2.4h-.8s-.04-.09-.08-.13c-.04-.04-.1-.07-.18-.1s-.18-.04-.3-.04c-.14,0-.25.02-.32.05s-.11.07-.11.13c0,.04.02.08.07.1s.13.04.25.05l.51.04c.25.02.45.05.6.11.15.06.25.13.31.23s.09.21.09.34Z"/>
    </g>
    <g>
      <g>
        <path class="cls-6" d="m104.76,136.78l.07-.15c.22,0,.41.04.55.1.14.06.25.15.32.26.07.11.11.24.11.39,0,.16-.04.29-.11.42-.07.12-.18.22-.32.29-.14.07-.32.11-.53.11h-2.13l.22-1.48-.22-1.4h2.05c.27,0,.47.06.62.19.15.12.22.3.22.52,0,.12-.03.24-.08.35s-.15.2-.27.28c-.12.08-.29.12-.5.14Zm-1.25,1.23l-.31-.37h1.43c.12,0,.2-.03.27-.08s.1-.13.1-.23-.03-.18-.1-.24-.17-.09-.31-.09h-1.18v-.55h1.08c.09,0,.17-.03.23-.08.06-.06.09-.13.09-.23,0-.08-.03-.14-.08-.19-.05-.05-.13-.07-.23-.07h-1.29l.3-.37.2,1.22-.2,1.3Z"/>
        <path class="cls-6" d="m107.45,138.25c-.28,0-.53-.05-.74-.14-.21-.1-.37-.23-.49-.41s-.18-.38-.18-.61.06-.44.18-.61c.12-.17.28-.31.49-.41s.46-.15.74-.15.52.05.74.15c.21.1.38.23.49.41.12.17.18.38.18.61s-.06.43-.18.61-.28.31-.49.41c-.21.1-.46.14-.74.14Zm0-.58c.13,0,.24-.02.33-.07.09-.05.16-.11.21-.2s.07-.19.07-.31-.02-.23-.07-.31-.12-.15-.21-.2c-.09-.05-.2-.07-.33-.07s-.24.02-.33.07c-.09.05-.16.11-.21.2s-.07.19-.07.31.02.22.07.31.12.15.21.2c.09.05.2.07.33.07Z"/>
        <path class="cls-6" d="m111.35,137.09c-.04.23-.11.43-.21.61-.11.17-.24.31-.4.4-.16.1-.35.14-.55.14s-.4-.05-.57-.14c-.16-.1-.29-.23-.38-.41-.09-.18-.14-.38-.14-.61s.05-.44.14-.61c.09-.17.22-.31.38-.41.16-.1.35-.15.57-.15s.39.05.55.14.3.23.41.4c.11.17.18.38.21.62Zm-1.46,0c0,.11.02.2.07.29.04.08.11.15.19.2.08.05.17.07.27.07s.21-.02.3-.07c.09-.05.18-.11.25-.2.07-.08.13-.18.16-.29-.04-.11-.09-.21-.16-.29-.07-.08-.16-.15-.25-.2-.09-.05-.2-.07-.3-.07s-.19.02-.27.07c-.08.05-.14.11-.19.2-.04.08-.07.18-.07.29Zm1.29,1.09l-.1-.82.13-.27-.13-.34.18-1.53h.81l-.23,1.8.14,1.16h-.81Z"/>
        <path class="cls-6" d="m113.11,137.99l-.93-1.99h.86l.83,1.99h-.76Zm-.03.9c-.16,0-.3-.02-.43-.06-.13-.04-.25-.1-.37-.18v-.55c.12.08.23.13.34.17.1.03.22.05.35.05.1,0,.2-.02.28-.07.08-.05.15-.13.2-.25l.84-1.99h.83l-1.05,2.24c-.07.16-.16.29-.27.39-.11.1-.22.16-.34.21-.12.04-.25.06-.38.06Z"/>
        <path class="cls-6" d="m117.5,138.25c-.28,0-.53-.05-.74-.14-.21-.1-.37-.23-.49-.41s-.18-.38-.18-.61.06-.44.18-.61c.12-.17.28-.31.49-.41s.46-.15.74-.15.52.05.74.15c.21.1.38.23.49.41.12.17.18.38.18.61s-.06.43-.18.61-.28.31-.49.41c-.21.1-.46.14-.74.14Zm0-.58c.13,0,.24-.02.33-.07.09-.05.16-.11.21-.2s.07-.19.07-.31-.02-.23-.07-.31-.12-.15-.21-.2c-.09-.05-.2-.07-.33-.07s-.24.02-.33.07c-.09.05-.16.11-.21.2s-.07.19-.07.31.02.22.07.31.12.15.21.2c.09.05.2.07.33.07Z"/>
        <path class="cls-6" d="m119.08,136.76v-.58h2.12v.58h-2.12Zm1.69-1c-.17,0-.29.03-.36.09-.07.06-.1.16-.1.29v2.05h-.78v-2.02c0-.21.04-.39.13-.54.09-.15.22-.26.39-.34s.38-.12.63-.12c.11,0,.21,0,.3.02s.18.04.28.07v.58c-.08-.03-.16-.05-.24-.06-.08-.01-.16-.02-.25-.02Z"/>
        <path class="cls-6" d="m125.89,137.85h-.25l.72-2.54h.84l-.88,2.88h-1.03l-.83-2.46h.33l-.84,2.46h-1.02l-.88-2.88h.85l.72,2.54h-.25s.84-2.54.84-2.54h.84l.84,2.54Z"/>
        <path class="cls-6" d="m129.39,137.09c-.04.23-.11.43-.21.61-.11.17-.24.31-.4.4-.16.1-.35.14-.55.14s-.4-.05-.57-.14c-.16-.1-.29-.23-.38-.41-.09-.18-.14-.38-.14-.61s.05-.44.14-.61c.09-.17.22-.31.38-.41.16-.1.35-.15.57-.15s.39.05.55.14.3.23.41.4c.11.17.18.38.21.62Zm-1.46,0c0,.11.02.2.07.29.04.08.11.15.19.2.08.05.17.07.27.07s.21-.02.3-.07c.09-.05.18-.11.25-.2.07-.08.13-.18.16-.29-.04-.11-.09-.21-.16-.29-.07-.08-.16-.15-.25-.2-.09-.05-.2-.07-.3-.07s-.19.02-.27.07c-.08.05-.14.11-.19.2-.04.08-.07.18-.07.29Zm1.28,1.09l-.1-.79.1-.3-.1-.3.1-.8h.81l-.14,1.09.14,1.1h-.81Z"/>
        <path class="cls-6" d="m130.21,136.58v-.34l.45-.18.34-.65h.45v.59h.92v.58h-.92v.65c0,.16.03.27.1.33.06.06.18.1.35.1.11,0,.2,0,.29-.03s.16-.04.23-.07v.59c-.08.03-.18.05-.3.08s-.25.03-.39.03c-.24,0-.44-.04-.6-.11-.16-.07-.27-.18-.34-.32-.07-.14-.11-.3-.11-.49v-.75h-.45Z"/>
        <path class="cls-6" d="m133.94,138.25c-.27,0-.5-.05-.71-.15-.21-.1-.37-.23-.49-.41s-.18-.38-.18-.61.06-.43.17-.6c.12-.17.27-.31.47-.41s.43-.15.68-.15.49.06.67.17c.19.11.33.27.43.48.1.21.15.45.15.73h-1.95v-.47h1.51l-.26.17c-.01-.11-.04-.21-.08-.29-.05-.08-.11-.14-.18-.18-.08-.04-.17-.06-.27-.06-.12,0-.21.02-.3.07-.08.05-.15.11-.19.19-.05.08-.07.18-.07.28,0,.14.03.26.09.35.06.1.16.17.28.22s.27.08.45.08c.16,0,.32-.02.48-.06s.31-.1.44-.18v.5c-.15.1-.32.18-.52.24s-.4.08-.62.08Z"/>
        <path class="cls-6" d="m135.35,136h.8l.13.78v1.41h-.78v-1.46l-.15-.74Zm1.96-.04v.67c-.08-.02-.15-.03-.22-.03-.07,0-.13-.01-.19-.01-.11,0-.22.02-.31.07-.09.04-.17.12-.23.22-.06.1-.09.24-.09.41l-.15-.18c.02-.16.05-.31.09-.45s.1-.26.17-.37c.07-.11.16-.19.26-.26.1-.06.23-.09.38-.09.04,0,.09,0,.13,0,.05,0,.09.01.14.02Z"/>
      </g>
      <rect class="cls-3" x="95.86" y="134.43" width="5.25" height="5.25"/>
    </g>
    <g>
      <g>
        <path class="cls-6" d="m104.43,142.22c.24,0,.45.04.62.12s.31.2.4.35.14.32.14.52-.05.37-.14.52-.23.27-.4.35-.38.12-.62.12h-1.25v-.64h1.2c.13,0,.23-.03.3-.09.07-.06.11-.15.11-.26s-.04-.2-.11-.26-.17-.09-.3-.09h-1.13l.36-.37v2.61h-.8v-2.88h1.62Z"/>
        <path class="cls-6" d="m105.78,142.91h.8l.13.78v1.41h-.78v-1.46l-.15-.74Zm1.96-.04v.67c-.08-.02-.15-.03-.22-.03-.07,0-.13-.01-.19-.01-.11,0-.22.02-.31.07-.09.04-.17.12-.23.22-.06.1-.09.24-.09.41l-.15-.18c.02-.16.05-.31.09-.45s.1-.26.17-.37c.07-.11.16-.19.26-.26.1-.06.23-.09.38-.09.04,0,.09,0,.13,0,.05,0,.09.01.14.02Z"/>
        <path class="cls-6" d="m109.26,145.17c-.28,0-.53-.05-.74-.14-.21-.1-.37-.23-.49-.41s-.18-.38-.18-.61.06-.44.18-.61c.12-.17.28-.31.49-.41s.46-.15.74-.15.52.05.74.15c.21.1.38.23.49.41.12.17.18.38.18.61s-.06.43-.18.61-.28.31-.49.41c-.21.1-.46.14-.74.14Zm0-.58c.13,0,.24-.02.33-.07.09-.05.16-.11.21-.2s.07-.19.07-.31-.02-.23-.07-.31-.12-.15-.21-.2c-.09-.05-.2-.07-.33-.07s-.24.02-.33.07c-.09.05-.16.11-.21.2s-.07.19-.07.31.02.22.07.31.12.15.21.2c.09.05.2.07.33.07Z"/>
        <path class="cls-6" d="m110.76,143.49v-.34l.45-.18.34-.65h.45v.59h.92v.58h-.92v.65c0,.16.03.27.1.33.06.06.18.1.35.1.11,0,.2,0,.29-.03s.16-.04.23-.07v.59c-.08.03-.18.05-.3.08s-.25.03-.39.03c-.24,0-.44-.04-.6-.11-.16-.07-.27-.18-.34-.32-.07-.14-.11-.3-.11-.49v-.75h-.45Z"/>
        <path class="cls-6" d="m114.49,145.17c-.27,0-.5-.05-.71-.15-.21-.1-.37-.23-.49-.41s-.18-.38-.18-.61.06-.43.17-.6c.12-.17.27-.31.47-.41s.43-.15.68-.15.49.06.67.17c.19.11.33.27.43.48.1.21.15.45.15.73h-1.95v-.47h1.51l-.26.17c-.01-.11-.04-.21-.08-.29-.05-.08-.11-.14-.18-.18-.08-.04-.17-.06-.27-.06-.12,0-.21.02-.3.07-.08.05-.15.11-.19.19-.05.08-.07.18-.07.28,0,.14.03.26.09.35.06.1.16.17.28.22s.27.08.45.08c.16,0,.32-.02.48-.06s.31-.1.44-.18v.5c-.15.1-.32.18-.52.24s-.4.08-.62.08Z"/>
        <path class="cls-6" d="m118.64,144.18c-.02.2-.09.37-.22.52-.12.15-.28.26-.48.35-.2.08-.42.12-.66.12-.27,0-.51-.05-.71-.15s-.37-.23-.48-.41c-.12-.17-.17-.38-.17-.6s.06-.43.17-.61c.12-.17.28-.31.48-.41s.44-.15.71-.15c.24,0,.46.04.66.13.2.08.36.2.48.35.12.15.19.32.22.52h-.78c-.03-.13-.09-.23-.2-.3-.1-.07-.23-.11-.38-.11-.12,0-.22.02-.3.07-.09.04-.15.11-.2.2-.05.09-.07.19-.07.32s.02.23.07.31c.05.09.11.15.2.2.09.04.19.07.3.07.15,0,.27-.04.38-.11.1-.07.17-.17.19-.3h.78Z"/>
        <path class="cls-6" d="m118.73,143.49v-.34l.45-.18.34-.65h.45v.59h.92v.58h-.92v.65c0,.16.03.27.1.33.06.06.18.1.35.1.11,0,.2,0,.29-.03s.16-.04.23-.07v.59c-.08.03-.18.05-.3.08s-.25.03-.39.03c-.24,0-.44-.04-.6-.11-.16-.07-.27-.18-.34-.32-.07-.14-.11-.3-.11-.49v-.75h-.45Z"/>
        <path class="cls-6" d="m122.45,145.17c-.27,0-.5-.05-.71-.15-.21-.1-.37-.23-.49-.41s-.18-.38-.18-.61.06-.43.17-.6c.12-.17.27-.31.47-.41s.43-.15.68-.15.49.06.67.17c.19.11.33.27.43.48.1.21.15.45.15.73h-1.95v-.47h1.51l-.26.17c-.01-.11-.04-.21-.08-.29-.05-.08-.11-.14-.18-.18-.08-.04-.17-.06-.27-.06-.12,0-.21.02-.3.07-.08.05-.15.11-.19.19-.05.08-.07.18-.07.28,0,.14.03.26.09.35.06.1.16.17.28.22s.27.08.45.08c.16,0,.32-.02.48-.06s.31-.1.44-.18v.5c-.15.1-.32.18-.52.24s-.4.08-.62.08Z"/>
        <path class="cls-6" d="m126.15,144.01c-.04.23-.11.43-.21.61-.11.17-.24.31-.4.4-.16.1-.35.14-.55.14s-.4-.05-.57-.14c-.16-.1-.29-.23-.38-.41-.09-.18-.14-.38-.14-.61s.05-.44.14-.61c.09-.17.22-.31.38-.41.16-.1.35-.15.57-.15s.39.05.55.14.3.23.41.4c.11.17.18.38.21.62Zm-1.46,0c0,.11.02.2.07.29.04.08.11.15.19.2.08.05.17.07.27.07s.21-.02.3-.07c.09-.05.18-.11.25-.2.07-.08.13-.18.16-.29-.04-.11-.09-.21-.16-.29-.07-.08-.16-.15-.25-.2-.09-.05-.2-.07-.3-.07s-.19.02-.27.07c-.08.05-.14.11-.19.2-.04.08-.07.18-.07.29Zm1.29,1.09l-.1-.82.13-.27-.13-.34.18-1.53h.81l-.23,1.8.14,1.16h-.81Z"/>
        <path class="cls-6" d="m130.13,142.22l1.31,2.88h-.85l-1.1-2.54h.23l-1.1,2.54h-.85l1.31-2.88h1.05Zm-1.53,2.33v-.64h1.99v.64h-1.99Z"/>
        <path class="cls-6" d="m131.54,142.91h.8l.13.78v1.41h-.78v-1.46l-.15-.74Zm1.96-.04v.67c-.08-.02-.15-.03-.22-.03-.07,0-.13-.01-.19-.01-.11,0-.22.02-.31.07-.09.04-.17.12-.23.22-.06.1-.09.24-.09.41l-.15-.18c.02-.16.05-.31.09-.45s.1-.26.17-.37c.07-.11.16-.19.26-.26.1-.06.23-.09.38-.09.04,0,.09,0,.13,0,.05,0,.09.01.14.02Z"/>
        <path class="cls-6" d="m135,145.17c-.27,0-.5-.05-.71-.15-.21-.1-.37-.23-.49-.41s-.18-.38-.18-.61.06-.43.17-.6c.12-.17.27-.31.47-.41s.43-.15.68-.15.49.06.67.17c.19.11.33.27.43.48.1.21.15.45.15.73h-1.95v-.47h1.51l-.26.17c-.01-.11-.04-.21-.08-.29-.05-.08-.11-.14-.18-.18-.08-.04-.17-.06-.27-.06-.12,0-.21.02-.3.07-.08.05-.15.11-.19.19-.05.08-.07.18-.07.28,0,.14.03.26.09.35.06.1.16.17.28.22s.27.08.45.08c.16,0,.32-.02.48-.06s.31-.1.44-.18v.5c-.15.1-.32.18-.52.24s-.4.08-.62.08Z"/>
        <path class="cls-6" d="m138.7,144.01c-.04.23-.11.43-.21.61-.11.17-.24.31-.4.4-.16.1-.35.14-.55.14s-.4-.05-.57-.14c-.16-.1-.29-.23-.38-.41-.09-.18-.14-.38-.14-.61s.05-.44.14-.61c.09-.17.22-.31.38-.41.16-.1.35-.15.57-.15s.39.05.55.14.3.23.41.4c.11.17.18.38.21.62Zm-1.46,0c0,.11.02.2.07.29.04.08.11.15.19.2.08.05.17.07.27.07s.21-.02.3-.07c.09-.05.18-.11.25-.2.07-.08.13-.18.16-.29-.04-.11-.09-.21-.16-.29-.07-.08-.16-.15-.25-.2-.09-.05-.2-.07-.3-.07s-.19.02-.27.07c-.08.05-.14.11-.19.2-.04.08-.07.18-.07.29Zm1.28,1.09l-.1-.79.1-.3-.1-.3.1-.8h.81l-.14,1.09.14,1.1h-.81Z"/>
      </g>
      <rect class="cls-5" x="95.86" y="141.35" width="5.25" height="5.25"/>
    </g>
    <g>
      <g>
        <path class="cls-6" d="m103.61,149.14v2.53l-.36-.35h2.16v.71h-2.59v-2.88h.8Z"/>
        <path class="cls-6" d="m107.8,150.93c-.04.23-.11.43-.21.61-.11.17-.24.31-.4.4-.16.1-.35.14-.55.14s-.4-.05-.57-.14c-.16-.1-.29-.23-.38-.41-.09-.18-.14-.38-.14-.61s.05-.44.14-.61c.09-.17.22-.31.38-.41.16-.1.35-.15.57-.15s.39.05.55.14.3.23.41.4c.11.17.18.38.21.62Zm-1.46,0c0,.11.02.2.07.29.04.08.11.15.19.2.08.05.17.07.27.07s.21-.02.3-.07c.09-.05.18-.11.25-.2.07-.08.13-.18.16-.29-.04-.11-.09-.21-.16-.29-.07-.08-.16-.15-.25-.2-.09-.05-.2-.07-.3-.07s-.19.02-.27.07c-.08.05-.14.11-.19.2-.04.08-.07.18-.07.29Zm1.28,1.09l-.1-.79.1-.3-.1-.3.1-.8h.81l-.14,1.09.14,1.1h-.81Z"/>
        <path class="cls-6" d="m108.71,149.83h.79l.14.88v1.32h-.78v-1.44l-.15-.76Zm1.74-.07c.21,0,.39.04.54.13.15.08.26.2.34.36.08.15.12.34.12.55v1.23h-.78v-1.11c0-.16-.04-.29-.13-.38-.08-.09-.2-.13-.36-.13-.11,0-.2.02-.28.07s-.14.11-.19.2c-.04.08-.07.18-.07.3l-.24-.13c.03-.23.1-.43.2-.59.1-.16.22-.28.37-.36s.31-.12.48-.12Z"/>
        <path class="cls-6" d="m114.01,150.93c-.04.23-.11.43-.21.61-.11.17-.24.31-.4.4-.16.1-.35.14-.55.14s-.4-.05-.57-.14c-.16-.1-.29-.23-.38-.41-.09-.18-.14-.38-.14-.61s.05-.44.14-.61c.09-.17.22-.31.38-.41.16-.1.35-.15.57-.15s.39.05.55.14.3.23.41.4c.11.17.18.38.21.62Zm-1.46,0c0,.11.02.2.07.29.04.08.11.15.19.2.08.05.17.07.27.07s.21-.02.3-.07c.09-.05.18-.11.25-.2.07-.08.13-.18.16-.29-.04-.11-.09-.21-.16-.29-.07-.08-.16-.15-.25-.2-.09-.05-.2-.07-.3-.07s-.19.02-.27.07c-.08.05-.14.11-.19.2-.04.08-.07.18-.07.29Zm1.29,1.09l-.1-.82.13-.27-.13-.34.18-1.53h.81l-.23,1.8.14,1.16h-.81Z"/>
      </g>
      <rect class="cls-4" x="95.86" y="148.27" width="5.25" height="5.25"/>
    </g>
    <circle class="cls-1" cx="98.48" cy="129.96" r="2.08"/>
    <circle class="cls-7" cx="98.48" cy="129.96" r="2.81"/>
  </g>
  <g id="parks">
    <path class="cls-5" d="m43.19,66.36c.02-.72-.27-1.41-.4-2.12s-.08-1.54.46-2.02c.41-.36.99-.42,1.52-.57,1.34-.38,2.51-1.38,3.89-1.38.89,0,1.72.43,2.55.78,1.42.59,2.94.95,4.48,1.04,1.08.07,2.18.01,3.22.32.19.06.39.13.53.28.15.16.21.4.25.62.24,1.54-.4,3.07-.74,4.59-.05.23-.09.48,0,.7.09.19.27.33.43.46.39.33.68.77.85,1.26.05.15.09.33-.02.45-.06.08-.17.1-.26.13-1.64.44-3.32.77-4.88,1.45-.78.35-1.53.79-2.36.99-1.52.38-3.15-.08-4.45-.96s-2.27-2.14-3.09-3.47c-.58-.93-1.12-1.95-2.05-2.54"/>
    <path class="cls-5" d="m79.51,14.07c-.02-.5.49-.88.98-.99s1.01-.05,1.5-.17c1.07-.26,1.74-1.28,2.53-2.05,1.37-1.33,3.41-2.22,3.88-4.07.16-.63.1-1.3.24-1.94s.55-1.3,1.19-1.4c.6-.09,1.18.37,1.41.93s.19,1.19.11,1.79c-.15,1.04-.43,2.05-.77,3.04-.19.55-.33,1.29.17,1.58.4.23.89-.03,1.29-.25s.98-.36,1.26,0c.1.14.13.32.14.49.02,1.1-.87,2.04-1.88,2.49-.33.15-.74.4-.63.74.04.13.15.22.26.28.63.39,1.43.31,2.17.3s1.59.14,1.98.77c.19.31.24.68.28,1.04.17,1.7.17,3.41,0,5.11-.05.52-.18,1.13-.65,1.36-.54.26-1.18-.16-1.46-.69s-.32-1.14-.53-1.7-.68-1.11-1.28-1.07c-.7.04-1.15.85-1.84.92-.4.04-.78-.17-1.16-.31s-.87-.17-1.13.15c-.13.17-.16.39-.19.61-.11,1.03-.19,2.11-.77,2.97s-1.86,1.34-2.67.69c-.24,1.06-.14,2.2.28,3.2-.58-.31-1.5-.07-1.53.58-.02.44.38.88.19,1.27-.21.43-.87.3-1.3.52-.5.25-.61.91-1.02,1.29-.25.23-.59.33-.92.42-.6.17-1.41.25-1.69-.31-.21-.42.04-.91.14-1.36s-.18-1.11-.63-.98c-.16.05-.27.19-.4.3-.36.33-.89.46-1.36.34-.05.6-.19,1.22-.59,1.66s-1.11.66-1.62.34-.57-1.21-.03-1.48c.27-.13.62-.09.86-.29.17-.14.23-.36.28-.57.07-.27.13-.57-.04-.79-.21-.27-.66-.22-.9.01s-.34.58-.43.91c-.59-.21-.54-1.1-.99-1.53-.39-.37-1.01-.28-1.51-.09s-.99.47-1.52.42c-.21-.61.29-1.25.83-1.6s1.2-.57,1.61-1.08c.66-.82.43-2.1,1.05-2.95.53-.73,1.51-.93,2.29-1.38.65-.37,1.17-.93,1.68-1.47.23-.25.48-.52.57-.85s-.02-.75-.34-.88c-.22-.09-.47-.03-.71-.03s-.52-.13-.53-.37c0-.15.11-.28.21-.4.48-.56.74-1.29.72-2.02,0-.21-.03-.44.06-.64.22-.49.93-.44,1.46-.35s1.28,0,1.34-.54"/>
    <path class="cls-5" d="m10.28.37c-.06,3.06-.34,6.12-.83,9.14.57-.15,1.22.1,1.54.6.13.2.21.42.38.58.47.44,1.27.1,1.85.38.35.17.57.54.89.77.54.38,1.32.27,1.84-.12s.83-1.02,1-1.66.23-1.29.37-1.94c.1-.45.28-.94.71-1.1.25-.1.52-.06.79-.03.68.05,1.37-.03,2.02-.26.08-.03.16-.06.2-.12.09-.13,0-.3-.11-.42-.67-.75-1.8-1.22-1.97-2.22.46-.07.93-.13,1.39-.2.1-.01.21-.03.29-.1.18-.15.12-.43.1-.66-.07-.65.29-1.32.86-1.63.24-.13.52-.19.75-.34s.43-.41.36-.68c-.09-.39-.59-.48-.98-.5-4.07-.13-9.12-.26-13.19-.04"/>
    <path class="cls-5" d="m141.4,83.44c-.09-.35.12-.71.33-1.01.3-.43.66-.89,1.17-.98.57-.1,1.13.3,1.39.81s.29,1.11.3,1.69c0,.17.01.36.13.48.07.06.15.1.24.13.5.15,1.03.11,1.55.14s1.08.17,1.4.57c.49.6.25,1.52-.22,2.13s-1.13,1.06-1.58,1.69-.65,1.56-.13,2.13c.32.35.83.46,1.21.76.08.06.16.14.19.23.06.17,1.61.38,1.48.5s-1.28.11-1.45.17c.35.26.04.58.38.84.08.06.17.13.2.23.03.12-.04.25-.11.35-.36.5-.92.85-1.52.97-.12.02-.25.03-.34-.05-.07-.06-.09-.14-.11-.23-.11-.57.08-1.16.03-1.73-.08-.89-.72-1.63-1.4-2.21-.78-.67-1.64-1.22-2.57-1.65-.27-.13-.56-.25-.76-.47-.24-.26-.33-.61-.44-.94-.25-.73-.65-1.42-.77-2.19s.13-1.68.84-1.99c.22-.1.52-.22.49-.46"/>
    <path class="cls-5" d="m231.57,131.36c-1.49-3.87-2.99-7.74-4.48-11.61,1-.3,1.91-.86,2.63-1.61.41-.43.75-.91,1.2-1.29s1.05-.64,1.62-.51c.64.15,1.11.76,1.76.89.43.09.87-.05,1.3-.15,1.2-.27,2.44-.21,3.65-.39.87-.13,1.72-.38,2.59-.5.84-.11,1.69-.1,2.53-.08.79.01,1.58.03,2.36.04.3,0,.6.01.87.14.29.13.5.38.69.64,1.33,1.79,1.8,4.06,2.24,6.25.06.29.11.59.01.87-.16.44-.66.65-1.1.81-2.05.74-4.1,1.47-6.14,2.21-.81.29-1.65.61-2.21,1.26s-.69,1.75-.05,2.32c.48.43,1.28.47,1.62,1.02.45.72-.24,1.69.04,2.49.16.46.64.83.6,1.32-.03.35-.32.62-.61.81-.41.28-.86.5-1.34.65-.1.03-.2.06-.29.02-.11-.05-.16-.17-.2-.28-.52-1.42-1-3.04-2.32-3.77-.71-.39-1.57-.45-2.29-.84-.68-.37-1.29-1.05-2.06-.96-.5.06-.9.44-1.37.61s-1.18-.05-1.14-.55"/>
  </g>
  <g id="overtop_waater" data-name="overtop waater">
    <path class="cls-3" d="m31.78,3c-.14-.48.32-1.02.81-.97.56.06,1.01.72,1.56.57.4-.11.55-.57.82-.88.32-.38.87-.55,1.35-.42.16.04.31.12.42.24.28.31.18.8.04,1.19s-.32.82-.17,1.21c.16.41.63.59.99.85s.65.8.33,1.11c-.16.16-.42.17-.64.11s-.41-.2-.6-.31c-.4-.23-.86-.36-1.32-.4-.21-.02-.42,0-.61.09s-.32.31-.27.51c.07.31.5.44.54.75.05.34-.41.54-.75.46-.39-.09-.72-.4-.85-.78-.09-.26-.08-.55-.2-.8-.14-.29-.43-.47-.66-.69-.44-.42-.68-1.05-.63-1.65"/>
    <path class="cls-3" d="m34.85,17.47c-.28-.29-.56-.61-.62-1s.23-.87.63-.83c.3.03.5.3.75.47.37.25.88.26,1.26.03.18.67.36,1.34.54,2.01.03.13.07.26.17.36.3.28.75-.08,1.04-.37.4-.41.87-.75,1.4-.98.14-.06.31-.12.44-.03.14.09.14.29.11.45-.22,1-1.38,1.62-1.5,2.64-.04.35.14.79.49.78.31,0,.49-.35.64-.62.29-.52.72-.96,1.23-1.27.09-.05.18-.1.29-.09.27.02.36.38.29.64-.23.89-1.37,1.47-1.27,2.38.68-.34,1.35-.69,2.03-1.03.26-.13.59-.26.83-.1.17.12.23.34.28.54.11.46.25.92.4,1.37.05.14.11.29.25.35.24.09.45-.17.61-.37.69-.84,1.93-.96,3.02-.91.2,0,.43.01.58-.13.25-.24.05-.68-.21-.91s-.61-.44-.66-.79c-.07-.49.5-.84.99-.85s.99.16,1.47.06c.8-.17,1.23-1.01,1.82-1.57.72-.69,1.78-1.01,2.77-.82.09.02.18.04.25.09.21.16.15.51-.05.68s-.47.22-.72.28c-1.23.29-2.36,1.01-3.13,2.02-.14.18-.27.38-.28.61-.02.29.15.56.14.85-.03.73-1.18,1.11-1.06,1.83.05.31.33.52.58.7.92.65,1.83,1.3,2.75,1.94-1.32.73-2.92-.38-4.43-.3-.25.01-.52.08-.65.29-.2.33.09.73.31,1.06.44.65.63,1.46.51,2.23-.57.36-1.31.27-1.95.07s-1.27-.5-1.94-.51c-.27,0-.55.04-.81-.03s-.52-.27-.52-.54c0-.13.06-.25.12-.37.21-.42.42-.84.64-1.27-.68-.51-1.73.93-2.35.35-.21-.2-.21-.52-.19-.81s.04-.6-.14-.83-.64-.17-.65.11c-.16-.42-.42-.91-.86-.9-.38,0-.75.41-1.1.25-.38-.18-.23-.8-.52-1.12-.31-.34-.94-.12-1.29-.42-.14-.12-.21-.3-.29-.47-.42-.87-1.2-1.49-1.82-2.23s-1.07-1.78-.67-2.65"/>
    <path class="cls-3" d="m89.98,37.67c.33-.89.15-1.95-.45-2.68-.53-.66-1.41-1.15-1.47-2,0-.1,0-.2.05-.28.07-.1.19-.15.31-.17.78-.15,1.7.36,2.32-.15.34-.28.47-.82.89-.96.28-.1.61.02.88-.1.58-.25.45-1.28,1.04-1.49.14-.05.3-.04.45,0,1.76.35,2.52,2.59,4.18,3.28-.28-1.17-.67-2.31-1.14-3.42,1.19.08,2.33.72,3.02,1.69.48.68.7,1.72.1,2.29-.21.2-.51.34-.62.61-.13.31.06.68.34.87s.61.27.93.38c.5.16.99.43,1.29.86s.36,1.05.05,1.47c-.3.4-.86.52-1.21.88-.74.75-.25,2-.28,3.05-.04,1.23-.87,2.31-1.08,3.53-.09.51-.07,1.04-.22,1.54s-.53.98-1.05,1.02c-.56.04-1.24-.4-1.6.02-.13.15-.16.36-.2.56-.07.34-.21.69-.47.92s-.68.31-.97.12c-.74-.47-.05-1.8-.66-2.44-.46-.48-1.25-.19-1.85.09s-1.46.45-1.8-.12c-.23-.39-.03-.9.25-1.26s.64-.68.76-1.12c.09-.31-.04-.75-.36-.76-.24-.01-.42.22-.57.41-.34.44-.77.8-1.25,1.06-.33.18-.78.29-1.04.02-.33-.34-.04-.91.32-1.21s.82-.62.82-1.09c0-.6-.72-.92-1.01-1.45-.13-.24-.17-.53-.3-.77-.18-.33-.52-.54-.84-.74s-.64-.45-.76-.8.07-.84.44-.88c.67-.07.93,1.2,1.6,1.07.33-.06.48-.45.5-.78s-.06-.68.06-.99.56-.53.79-.29"/>
    <path class="cls-3" d="m1.96,32.88c.62.69,1.34,1.3,2.12,1.79.32.2.68.4,1.06.4s.79-.25.83-.63c.03-.29-.15-.56-.27-.82s-.16-.63.07-.81c.15-.11.35-.1.53-.09.87.07,1.73.13,2.6.2.09,0,.19.02.27.07.24.16.09.55.21.82.16.36.71.3,1.01.05s.49-.62.81-.83c.73-.47,1.75.17,2,1s-.02,1.71-.3,2.53c-.1.3-.21.61-.44.82-.29.27-.72.33-1.11.37-.6.06-1.2.13-1.81.19-.44.05-.9.1-1.28.34s-.64.72-.49,1.13c.12.33.45.52.72.74s.52.57.39.9c-.05.13-.16.24-.21.37-.16.4.23.82.65.94s.86.06,1.27.19c.88.27,1.28,1.26,1.88,1.96.11.13.25.26.42.3.2.05.41-.04.6-.11.77-.25,1.64-.15,2.33.27.12.07.25.18.23.32,0,.1-.08.17-.16.23-.72.6-1.74.82-2.64.57-.45-.13-.92-.36-1.36-.19-.36.14-.55.51-.76.83-.68,1.03-1.77,1.78-2.97,2.04-.41.09-.85.13-1.2.35-.85.52-1.13,1.96-2.12,1.94-.69-.02-1.09-.79-1.25-1.46s-.31-1.45-.91-1.79c-.33-.18-.74-.18-1.1-.31-.65-.22-1.11-.81-1.33-1.46S.03,44.72,0,44.03c0-.2,0-.41.12-.57.21-.26.61-.19.94-.18.71.02,1.42-.37,1.77-.98s.36-1.42,0-2.03c-.27-.46-.72-.78-1.09-1.17s-.69-.89-.61-1.42c.08-.52.53-.91.66-1.42.29-1.13-1.07-2.22-.75-3.34.27-.04.56.1.7.34"/>
    <path class="cls-3" d="m28.05,31.54c-.38-.07-.79.14-.95.48s-.07.8.22,1.04c.4.34,1.07.3,1.37.72.25.34.13.82.04,1.23s-.09.93.27,1.16c.16.1.35.11.53.13.62.04,1.24.08,1.85.13.22.01.46.04.63.18.44.37.1,1.2.51,1.6.28.28.8.17,1.04-.15s.25-.75.16-1.13-.28-.74-.41-1.11c-.2-.57-.29-1.25-.8-1.59-.39-.26-.89-.22-1.36-.23s-1-.15-1.19-.58c-.13-.3-.04-.64-.06-.97s-.23-.71-.56-.67"/>
    <path class="cls-3" d="m26.97,58.29c-.65-.11-.82-.96-.76-1.62s.16-1.43-.35-1.85c-.22-.18-.53-.25-.75-.43-.25-.2-.38-.5-.56-.77-.37-.56-.97-.95-1.63-1.07.77-.43,1.75.27,2.59.02.59-.18,1.04-.8,1.65-.76.51.03.87.52,1.05,1s.27,1,.58,1.41c.4.51,1.12.76,1.38,1.35.29.65-.08,1.49.32,2.08.49.71,1.59.4,2.43.63.55.15.98.54,1.4.93.86.79,1.71,1.57,2.57,2.36.36.33.73.7.78,1.18-1.8-.16-3.55-.83-5-1.91-.87-.65-1.64-1.44-2.63-1.89-.78-.35-1.66-.46-2.49-.31-.49.09-1.19.13-1.28-.35"/>
    <path class="cls-3" d="m204.12,8.17c-1.27-.12-2.52.5-3.45,1.36s-1.62,1.96-2.32,3.03c-1.98,2.98-4.22,5.77-6.7,8.34-.9.93-1.85,1.85-3,2.44-1.13.58-2.39.82-3.59,1.24-3.63,1.29-6.41,4.23-9.71,6.23-2.93,1.77-6.44,2.91-8.44,5.69-.53.73-.93,1.57-1,2.47-.08,1.05.3,2.08.46,3.12.37,2.38-.44,4.79-1.53,6.94-.45.88-.97,1.84-.74,2.8.11.45.37.84.53,1.27.39,1.02.21,2.24-.47,3.1.57-1.08.03-2.39.08-3.61.06-1.5,1-2.8,1.65-4.16.78-1.63,1.16-3.44,1.11-5.24-.05-1.68-.47-3.41.01-5.02.66-2.2,2.77-3.57,4.74-4.75,4.5-2.71,9-5.42,13.5-8.12.83-.5,1.67-1,2.61-1.25.78-.2,1.6-.22,2.34-.54,1.07-.46,1.78-1.48,2.48-2.42,3.36-4.5,7.79-8.21,10.62-13.07"/>
    <path class="cls-3" d="m164.18,55.31c-.36.83.58,1.78.29,2.63-.18.55-.84,1.08-.53,1.57.09.15.25.24.36.37.25.32.13.78,0,1.17-.4,1.1-.84,2.19-1.32,3.26-.1.21-.2.44-.16.68.09.5.71.66,1.11.98.78.63.6,1.83.72,2.82.02.16.06.33.2.41.17.1.4-.02.48-.2s.07-.38.03-.57c-.18-1.07-.73-2.11-.56-3.18.12-.79.62-1.47.93-2.21.63-1.53.41-3.27.07-4.9-.16-.75-.34-1.5-.52-2.24-.14-.57-.27-1.13-.41-1.7"/>
    <path class="cls-3" d="m218.34,59.94c-.85-.1-1.79-.19-2.47.33-.39.29-.63.74-.97,1.09-.45.46-1.1.74-1.74.67s-1.24-.51-1.43-1.13c-.29-.96.41-1.92.57-2.91-.62-.41-1.45-.16-2.16.07s-1.6.36-2.11-.19c-.18-.2-.32-.48-.58-.51-.17-.02-.33.09-.48.19-.57.43-1.09.92-1.54,1.47-.2.24-.39.52-.4.83-.02.48.39.87.82,1.09,1.03.53,2.42.55,3.05,1.53.37.57.4,1.39.96,1.77.62.43,1.54.07,2.17.49.44.3.6.9,1.04,1.18.79.51,1.83-.28,2.76-.11.39.07.75.32,1.15.32.48,0,.89-.37,1.09-.81s.23-.92.26-1.4c.07-1.3.15-2.61.22-3.91"/>
    <path class="cls-3" d="m211.01,115.88c-.38-.68.04-1.67.79-1.88.81-.23,1.7.35,2.49.07.42-.15.74-.53,1.18-.61.47-.1.94.16,1.41.14.71-.03,1.28-.64,1.98-.71.59-.05,1.14.29,1.63.62.47.31.94.63,1.41.94.2.13.41.28.5.49.22.49-.23,1-.41,1.5-.14.37-.14.81-.39,1.12-.35.42-1.03.39-1.5.12s-.81-.73-1.2-1.11-.89-.72-1.44-.67c-.7.08-1.15.76-1.65,1.26-.65.65-1.51,1.06-2.34,1.45-.84.4-1.69.79-2.53,1.19-.38.18-.95.3-1.12-.09-.15-.34.21-.69.55-.82,1-.38,2.26-.1,3.04-.83.43-.4.58-1,.71-1.57.03-.12.05-.24,0-.35-.08-.21-.35-.25-.57-.26-.95-.05-1.91-.07-2.86-.07"/>
    <path class="cls-3" d="m223.58,152.69c-1.4,1.86-1.67,4.51-.67,6.62.33-.04.48-.42.57-.74.16-.56.31-1.11.47-1.67.26-.91.63-1.95,1.54-2.23.38-.12.79-.07,1.18-.18,1.06-.28,1.5-1.51,1.79-2.57.04-.15.08-.31.03-.45-.04-.12-.15-.22-.25-.29-.45-.34-1.01-.56-1.34-1.02-.2-.28-.31-.63-.55-.87-.17-.17-.39-.27-.63-.32-.67-.14-1.41.17-1.77.75-.52.84-.22,1.98-.65,2.86"/>
    <path class="cls-3" d="m219.34,86.68c-.33.08-1,.05-1.33.13-.1.02-.2.06-.27.14-.11.14-.07.35.01.51.28.57.86.93,1.21,1.46.3.45.41.99.62,1.48.28.67.72,1.26.96,1.95.45,1.33-.02,2.93-1.13,3.79-.5.39-1.11.65-1.5,1.15.18.2.54.11.72-.09s.26-.48.4-.71c.51-.9,1.78-1.18,2.27-2.1.27-.51.24-1.13.16-1.7-.18-1.28-.58-2.53-1.18-3.68"/>
    <path class="cls-3" d="m201.91,104.12c.62-.03,1.25.23,1.67.69s.62,1.11.53,1.73c-.01.09-.03.18-.09.24-.16.2-.49.08-.7-.07s-.51-.3-.71-.14c-.13.1-.15.29-.28.39-.15.12-.38.05-.51-.08s-.18-.33-.23-.51c-.09-.33-.18-.67-.27-1-.07-.24-.13-.5-.11-.75s.17-.51.4-.6"/>
    <path class="cls-3" d="m210.57,99.81c.32-1.22.15-2.56-.46-3.66-.26-.48-.61-.91-.8-1.42-.07-.18-.12-.37-.25-.51-.13-.14-.31-.21-.49-.27-.74-.24-1.61-.35-2.06-.98-.26-.36-.34-.84-.67-1.13-.18-.15-.41-.23-.58-.4-.48-.48-.11-1.34.47-1.69.77-.48,1.85-.39,2.53.21.66.57,1.1,1.6,1.97,1.57.57-.02,1.28-.47,1.6,0,.23.34-.08.79-.37,1.09-.45.47-.89.98-1.11,1.59s-.2,1.35.2,1.86c.28.35.72.57.98.94.43.61.27,1.48.64,2.13.33.59,1.03.88,1.43,1.43.69.94.07,2.52-1.08,2.75-.34.07-.7.04-1,.21-.21.12-.46.35-.65.19-.07-.06-.09-.15-.11-.24-.15-.65-.29-1.3-.44-1.95-.12-.53-.21-1.15.16-1.54"/>
    <path class="cls-3" d="m220.41,140.42c-.22.45.19,1.06.69,1.02.38-.03.66-.35.91-.63.12-.14.27-.29.46-.29.25,0,.42.24.53.46.46.91.75,1.92.83,2.94.05.6.09,1.3.59,1.62.4-1.12-.35-2.46.18-3.53.13-.26.33-.49.35-.77.03-.29-.14-.58-.36-.76s-.5-.3-.77-.41c-.44-.17-.88-.35-1.32-.52-.31-.12-.62-.24-.95-.23-.64.03-1.19.67-1.11,1.31"/>
    <path class="cls-3" d="m168.54,102.46c-.33.06-.65.14-.97.22-.18.05-.38.11-.46.27-.1.19,0,.44.2.55s.42.1.63.05c.73-.2,1.21-.9,1.9-1.23.6-.28,1.3-.25,1.95-.4.14-.03.32-.15.24-.28-.02-.04-.07-.07-.12-.09-.41-.16-.86-.13-1.3-.15s-.91-.12-1.19-.45c-.06-.07-.12-.16-.21-.16-.13,0-.2.15-.23.28-.14.55-.28,1.1-.42,1.65"/>
    <path class="cls-3" d="m149.65,58.81c-.06-.6-.03-1.21.09-1.8.04-.18.09-.38.22-.51s.36-.19.51-.07c.08.07.12.17.15.27.15.45.31.89.46,1.34.05.15.14.32.3.32.08,0,.14-.06.2-.11.25-.24.43-.55.73-.73s.79-.08.83.27c.02.13-.04.25-.1.36-.64,1.17-2.35,1.51-2.82,2.76-.12.31-.14.65-.24.97s-.28.64-.59.77c-.14.05-.31.06-.41-.06-.04-.05-.06-.1-.08-.16-.18-.67.19-1.35.49-1.98s.54-1.41.13-1.98"/>
    <path class="cls-3" d="m159.58,70.32c-1.13.48-2.05,1.45-2.47,2.61.21.22.57,0,.81-.2s.69-.31.78-.02c.03.09,0,.19-.03.29-.16.52-.33,1.05-.49,1.57.35,0,.65-.22.91-.45s.52-.47.85-.58.76-.01.9.31c.14.32-.06.72.11,1.03.1.18.31.3.31.5,0,.19-.18.33-.35.43-.23.14-.46.28-.69.42-.15.09-.32.26-.23.4.09.14.31.08.46,0,.47-.26.94-.54,1.26-.97s.43-1.06.12-1.5c-.19-.27-.51-.42-.76-.64s-.42-.61-.23-.88c.09-.12.23-.19.37-.25.47-.18.99-.24,1.47-.42.73-.28,1.33-.86,1.63-1.58.12-.28.18-.61.03-.87-.12-.19-.34-.29-.55-.35-.68-.17-1.42.05-1.99.46-.41.29-.83.69-1.33.62-.22-.03-.42-.16-.64-.15s-.45.26-.31.43"/>
    <path class="cls-3" d="m140.92,48.71c-.12.34-.18.7-.18,1.06,0,.23.04.5.22.64.19.15.47.11.68-.02s.36-.32.53-.49c.33-.32.75-.56,1.2-.68.13-.04.28-.06.41,0,.4.16.28.87.67,1.04.33.14.63-.21.87-.48.51-.59,1.32-.95,2.08-.78.55.12,1.01.49,1.51.76.09.05.2.1.3.06.22-.08.13-.41,0-.6-.56-.78-1.3-1.55-2.26-1.64-.89-.09-1.76.43-2.65.33-.64-.07-1.23-.46-1.88-.46-.75,0-1.46.6-1.59,1.34"/>
    <path class="cls-3" d="m107.71,37.68c.5.05,1.05.09,1.48-.18.4-.25.6-.72.89-1.09.25-.32.56-.59.92-.78.18-.09.38-.18.45-.37.07-.18,0-.39-.14-.53s-.32-.22-.49-.29c-.28-.12-.57-.25-.85-.37-.19-.08-.4-.17-.61-.15-.38.04-.63.42-.75.79s-.16.76-.39,1.07c-.28.38-.79.58-.96,1.02-.16.4.09.91.51,1.04"/>
    <path class="cls-3" d="m113.55,18.49c-.21-.15-.53.05-.56.3s.17.49.4.59.5.09.76.07.51-.05.76,0,.49.23.55.48c.04.18.04.43.22.45.09.01.16-.05.22-.12.33-.38.35-.99.04-1.39-.29-.37-.83-.57-.91-1.03-.06-.34.15-.78-.13-.99-.14-.1-.35-.07-.49.03s-.24.26-.33.41c-.24.4-.48.8-.71,1.2"/>
    <path class="cls-3" d="m103.1,1.03c.48,1.08,1.23,2.04,2.16,2.76-1.02.54-2.31,0-3.4.4-.28.1-.55.27-.85.32-1.08.18-1.91-1.18-3.01-1.12.72,1.26,2.28,1.97,3.7,1.67.5-.1.97-.32,1.46-.45.96-.26,1.97-.21,2.96-.16.38.02.88.17.84.55-.02.19-.19.33-.36.43-.56.31-1.31.44-1.57,1.03.42.4,1.09,0,1.53-.37.51-.45,1.01-.89,1.52-1.34.14-.12.29-.27.28-.46,0-.12-.09-.23-.18-.32-.78-.77-2.15-.65-2.91-1.44-.31-.32-.47-.76-.8-1.07-.36-.35-.91-.49-1.39-.35"/>
    <path class="cls-3" d="m60,34.26c-.64.02-1.27.35-1.66.87.6.01,1.2.03,1.79.04.28,0,.59.03.77.23s.05.64-.22.6c.2.24.4.48.6.72-.34.22-.45.73-.23,1.08-.41.4-1.37.26-1.41.84-.03.36.42.58.78.53s.67-.26,1.03-.34c.56-.12,1.13.12,1.64.39.14.07.29.15.45.14.28-.01.47-.26.67-.46.47-.47,1.17-.7,1.82-.6.03-.43-.38-.78-.8-.9s-.87-.11-1.28-.26c-1.09-.4-1.49-1.8-2.5-2.38.54-.29,1.17-.31,1.75-.47,1.38-.36,2.47-1.4,3.49-2.4.53-.51,1.08-1.08,1.18-1.81.02-.13.02-.28-.07-.38-.21-.25-.6.02-.78.28s-.51.58-.77.39c-.33-.24.02-.92-.34-1.11-.2-.11-.44.06-.58.23-.63.78-.67,1.95-1.38,2.65-1.06,1.04-3.19.64-3.88,1.96"/>
    <path class="cls-3" d="m71.52,20.19c-.49.44-.97.9-1.43,1.37-.21.21-.42.44-.49.73-.05.24,0,.49,0,.74,0,.44-.19.87-.51,1.17-.19.18-.42.3-.62.47s-.37.39-.39.65.19.54.44.52c.14,0,.26-.09.36-.18.34-.3.57-.7.8-1.09.41-.67.86-1.32,1.4-1.88.54-.56,1.19-1.06,1.5-1.78-.09-.12-.28-.11-.42-.05s-.27.15-.42.16c-.2.02-.39-.13-.44-.32s.07-.41.25-.48"/>
    <path class="cls-3" d="m58.96,7.85c-.04.52-.07,1.06.07,1.56s.5.98,1.01,1.12c.51.14,1.11-.07,1.55.22.19.13.33.34.53.45.28.15.62.06.93-.03.96-.28,1.95-.57,2.74-1.18.59-.46,1.09-1.11,1.83-1.27.41-.09.85,0,1.24-.14.52-.18.88-.72,1.42-.86.82-.21,1.53.55,2.03,1.24.11.15.23.32.24.51.01.15-.04.29-.06.44-.12,1.13,1.88,1.76,1.55,2.86-.13.43-.6.7-.7,1.14-.12.5.29.96.66,1.32-.97.12-1.9.46-2.72.99-.23-1.25,1.59-2.22,1.31-3.45-.08-.36-.34-.65-.59-.91-.57-.58-1.21-1.09-1.9-1.52-.16-.1-.33-.19-.51-.19-.23,0-.42.17-.59.31-.63.54-1.35,1.07-2.17,1.06-.58,0-1.16-.27-1.72-.1-.28.09-.51.27-.77.39-.37.17-.79.19-1.2.2-1.29.05-2.59.11-3.88.16-.34.01-.83-.14-.74-.47.53.06,1.07.12,1.6.18.14.02.3.02.39-.09.12-.16-.04-.38-.2-.51-.51-.44-1.04-.89-1.37-1.47s-.43-1.35-.07-1.93"/>
    <path class="cls-3" d="m66.59,58.49c-.41-.44-1.04-.65-1.64-.56-.23.03-.49.1-.67-.05-.11-.09-.14-.24-.25-.34-.13-.11-.31-.11-.47-.16-.51-.19-.51-.91-.42-1.45.09-.52.18-1.05.42-1.52s.65-.88,1.16-.99c-.07.62.37,1.25.97,1.41.2.05.41.06.6.14.3.13.5.42.75.64s.66.33.89.1c.1-.1.14-.25.19-.38.15-.36.47-.65.85-.7s.8.19.89.56c.11.48-.29.91-.67,1.21s-.84.64-.87,1.13c-.02.26.09.51.1.77,0,.69-.74,1.19-.83,1.88-.01.11,0,.24.06.33.1.15.31.18.49.2,1.17.13,2.4.46,3.18,1.35.16.18.3.44.19.66-.18.34-.69.17-1.02-.03-.96-.55-2.05-.87-3.16-.91-.11,0-.23,0-.32.07-.2.17.02.48.17.69.58.83.08,2.08.63,2.93.3.46.9.92.65,1.41-.68-.22-1.14-.86-1.4-1.52s-.37-1.38-.61-2.05c-.03-.08-.06-.16-.13-.22-.28-.22-.57.29-.9.43-.35.15-.75-.23-.75-.61s.27-.71.57-.95.65-.41.91-.69c.75-.78.6-2.04.39-3.1"/>
  </g>
  <g id="Labels">
    <g>
      <path class="cls-2" d="m113.66,31.7c-.98,0-1.83-.18-2.57-.54-.74-.36-1.31-.86-1.72-1.51-.41-.65-.61-1.4-.61-2.26s.2-1.61.61-2.26c.41-.65.98-1.15,1.72-1.51.74-.36,1.59-.54,2.57-.54s1.84.18,2.58.54c.73.36,1.31.86,1.72,1.51.41.65.62,1.4.62,2.26s-.21,1.61-.62,2.26c-.41.65-.98,1.15-1.72,1.51-.73.36-1.59.54-2.58.54Zm0-2.03c.54,0,1-.09,1.39-.28.39-.18.69-.44.9-.78.21-.34.31-.74.31-1.21s-.1-.87-.31-1.21c-.21-.34-.51-.6-.9-.78-.39-.18-.85-.27-1.39-.27s-.99.09-1.38.27-.69.44-.9.78c-.21.34-.32.74-.32,1.21s.11.87.32,1.21c.21.34.51.6.9.78.39.18.85.28,1.38.28Z"/>
      <path class="cls-2" d="m127.39,29.93l-.7.14v-6.8h2.21v8.25h-2.87l-4.76-6.79.69-.14v6.93h-2.21v-8.25h2.95l4.7,6.66Z"/>
      <path class="cls-2" d="m129.88,23.27h8.58v2.02h-8.58v-2.02Zm3.15,1h2.29v7.25h-2.29v-7.25Z"/>
      <path class="cls-2" d="m144.12,23.27l3.75,8.25h-2.43l-3.15-7.28h.66l-3.16,7.28h-2.43l3.75-8.25h3Zm-4.39,6.67v-1.84h5.69v1.84h-5.69Z"/>
      <path class="cls-2" d="m150.22,26.88h3c.37,0,.65-.08.86-.25s.31-.4.31-.7-.1-.54-.31-.71c-.21-.16-.49-.25-.86-.25h-3.32l1.02-1.09v7.65h-2.28v-8.25h4.9c.63,0,1.18.11,1.65.34.47.22.84.53,1.1.92.26.39.4.86.4,1.39s-.13.98-.4,1.38c-.26.4-.63.7-1.1.92-.47.22-1.02.33-1.65.33h-3.32v-1.67Zm1.23.78h2.56l2.96,3.86h-2.64l-2.88-3.86Z"/>
      <path class="cls-2" d="m158,23.27h2.28v8.25h-2.28v-8.25Z"/>
      <path class="cls-2" d="m166.35,31.7c-.98,0-1.83-.18-2.57-.54-.74-.36-1.31-.86-1.72-1.51-.41-.65-.61-1.4-.61-2.26s.2-1.61.61-2.26c.41-.65.98-1.15,1.72-1.51.74-.36,1.59-.54,2.57-.54s1.84.18,2.58.54c.73.36,1.31.86,1.72,1.51.41.65.62,1.4.62,2.26s-.21,1.61-.62,2.26c-.41.65-.98,1.15-1.72,1.51-.73.36-1.59.54-2.58.54Zm0-2.03c.54,0,1-.09,1.39-.28.39-.18.69-.44.9-.78.21-.34.31-.74.31-1.21s-.1-.87-.31-1.21c-.21-.34-.51-.6-.9-.78-.39-.18-.85-.27-1.39-.27s-.99.09-1.38.27-.69.44-.9.78c-.21.34-.32.74-.32,1.21s.11.87.32,1.21c.21.34.51.6.9.78.39.18.85.28,1.38.28Z"/>
    </g>
    <g>
      <path class="cls-2" d="m102.45,81.28v1.8l-.25-.25h1.54v.5h-1.85v-2.05h.57Z"/>
      <path class="cls-2" d="m105.44,82.55c-.03.16-.08.31-.15.43s-.17.22-.29.29c-.12.07-.25.1-.4.1s-.29-.03-.4-.1c-.12-.07-.21-.17-.27-.29s-.1-.27-.1-.43.03-.31.1-.44.16-.22.27-.29c.12-.07.25-.1.4-.1s.28.03.4.1.21.16.29.29c.08.12.13.27.15.44Zm-1.04,0c0,.08.02.15.05.21s.08.11.13.14c.06.03.12.05.19.05s.15-.02.22-.05c.07-.03.13-.08.18-.14s.09-.13.12-.21c-.03-.08-.06-.15-.12-.21s-.11-.11-.18-.14c-.07-.04-.14-.05-.22-.05s-.14.02-.19.05c-.06.03-.1.08-.13.14s-.05.13-.05.21Zm.91.78l-.07-.56.07-.22-.07-.22.07-.57h.58l-.1.78.1.78h-.58Z"/>
      <path class="cls-2" d="m106.71,82.88l-.15-.05.86-1.07h.59l-1.36,1.56h-.5v-2.11h.56v1.66Zm.27-.32l.42-.3.65,1.06h-.63l-.45-.76Z"/>
      <path class="cls-2" d="m109.01,83.37c-.19,0-.36-.03-.51-.1-.15-.07-.27-.17-.35-.29-.09-.12-.13-.27-.13-.44s.04-.31.12-.43.19-.22.34-.29c.14-.07.3-.1.49-.1s.35.04.48.12c.13.08.23.2.31.34s.11.32.11.52h-1.39v-.34h1.08l-.18.12c0-.08-.03-.15-.06-.2s-.08-.1-.13-.13c-.05-.03-.12-.04-.19-.04-.08,0-.15.02-.21.05-.06.03-.1.08-.14.14s-.05.13-.05.2c0,.1.02.18.07.25.04.07.11.12.2.16.09.04.19.06.32.06.12,0,.23-.02.34-.05.11-.03.22-.07.31-.13v.36c-.11.07-.23.13-.37.17s-.29.06-.44.06Z"/>
      <path class="cls-2" d="m98.93,85.94h.58c0,.06.04.11.08.15s.1.07.18.1.16.03.26.03c.14,0,.25-.02.33-.05s.12-.09.12-.16c0-.05-.02-.09-.07-.12-.05-.03-.13-.05-.26-.06l-.38-.04c-.28-.03-.49-.09-.62-.19s-.19-.24-.19-.42c0-.14.04-.26.12-.36.08-.1.2-.17.35-.22.15-.05.33-.08.53-.08s.37.03.53.08c.15.06.28.13.37.24s.14.22.15.36h-.58s-.03-.09-.07-.13-.09-.06-.16-.08c-.07-.02-.15-.03-.24-.03-.13,0-.23.02-.3.05s-.11.08-.11.15c0,.05.02.09.07.12.04.03.13.05.24.06l.41.04c.2.02.35.05.47.09.12.04.2.11.25.18.05.08.08.18.08.29,0,.14-.04.27-.13.38s-.21.19-.36.25-.34.09-.54.09-.4-.03-.56-.09-.29-.14-.38-.25c-.09-.11-.14-.23-.15-.38Z"/>
      <path class="cls-2" d="m101.96,86.66c-.15,0-.27-.03-.37-.09s-.18-.15-.24-.26-.08-.24-.08-.39v-.87h.56v.79c0,.12.03.2.08.27s.14.09.24.09c.08,0,.14-.02.2-.05.05-.03.09-.08.12-.14.03-.06.04-.13.04-.22l.17.09c-.02.17-.07.31-.14.42-.07.11-.16.2-.26.26s-.21.09-.34.09Zm.66-.04l-.1-.63v-.94h.56v1.02l.1.54h-.56Z"/>
      <path class="cls-2" d="m103.41,85.05h.56v.45l-.02.07v.44l.02.13v.93h-.56v-2.01Zm.38.78c.02-.17.07-.32.15-.44s.17-.22.29-.29.25-.1.4-.1.29.03.4.1c.12.07.21.17.27.29.06.12.1.27.1.44s-.03.31-.1.43c-.06.13-.16.22-.27.29-.12.07-.25.1-.4.1s-.28-.03-.4-.1c-.12-.07-.21-.16-.29-.29-.07-.12-.13-.27-.15-.43Zm1.04,0c0-.08-.02-.15-.05-.21s-.08-.11-.13-.14c-.06-.04-.12-.05-.2-.05s-.15.02-.21.05c-.07.03-.13.08-.18.14s-.09.13-.12.21c.03.08.07.15.12.21s.11.11.18.14c.07.03.14.05.21.05s.14-.02.2-.05c.06-.03.1-.08.13-.14s.05-.13.05-.21Z"/>
      <path class="cls-2" d="m106.56,86.66c-.19,0-.36-.03-.51-.1-.15-.07-.27-.17-.35-.29-.09-.12-.13-.27-.13-.44s.04-.31.12-.43.19-.22.34-.29c.14-.07.3-.1.49-.1s.35.04.48.12c.13.08.23.2.31.34s.11.32.11.52h-1.39v-.34h1.08l-.18.12c0-.08-.03-.15-.06-.2s-.08-.1-.13-.13c-.05-.03-.12-.04-.19-.04-.08,0-.15.02-.21.05-.06.03-.1.08-.14.14s-.05.13-.05.2c0,.1.02.18.07.25.04.07.11.12.2.16.09.04.19.06.32.06.12,0,.23-.02.34-.05.11-.03.22-.07.31-.13v.36c-.11.07-.23.13-.37.17s-.29.06-.44.06Z"/>
      <path class="cls-2" d="m107.57,85.05h.57l.09.56v1.01h-.56v-1.04l-.1-.53Zm1.4-.02v.48c-.05-.01-.11-.02-.15-.02-.05,0-.09,0-.13,0-.08,0-.15.02-.22.05-.07.03-.12.08-.16.16-.04.07-.06.17-.06.29l-.11-.13c.01-.11.04-.22.07-.32.03-.1.07-.19.12-.27s.11-.14.19-.18.17-.07.27-.07c.03,0,.06,0,.1,0,.03,0,.07,0,.1.02Z"/>
      <path class="cls-2" d="m109.44,84.9c-.1,0-.18-.02-.24-.07-.06-.05-.09-.11-.09-.2s.03-.15.09-.2c.06-.05.14-.07.24-.07s.18.02.24.07c.06.05.09.12.09.2s-.03.15-.09.2c-.06.05-.14.07-.24.07Zm-.28.13l.28.05.28-.05v1.59h-.56v-1.59Z"/>
      <path class="cls-2" d="m110.96,86.66c-.2,0-.38-.03-.53-.1-.15-.07-.27-.17-.35-.29s-.13-.27-.13-.43.04-.31.13-.44.2-.22.35-.29c.15-.07.32-.1.53-.1s.37.03.52.1c.15.07.27.17.35.29s.13.27.13.43-.04.31-.13.43-.2.22-.35.29c-.15.07-.33.1-.52.1Zm0-.41c.09,0,.17-.02.23-.05.06-.03.11-.08.15-.14.03-.06.05-.13.05-.22s-.02-.16-.05-.22c-.03-.06-.08-.11-.15-.14-.06-.03-.14-.05-.23-.05s-.17.02-.24.05c-.07.03-.12.08-.15.14-.03.06-.05.13-.05.22s.02.16.05.22c.03.06.08.11.15.14.07.03.14.05.24.05Z"/>
      <path class="cls-2" d="m112.11,85.05h.57l.09.56v1.01h-.56v-1.04l-.1-.53Zm1.4-.02v.48c-.05-.01-.11-.02-.15-.02-.05,0-.09,0-.13,0-.08,0-.15.02-.22.05-.07.03-.12.08-.16.16-.04.07-.06.17-.06.29l-.11-.13c.01-.11.04-.22.07-.32.03-.1.07-.19.12-.27s.11-.14.19-.18.17-.07.27-.07c.03,0,.06,0,.1,0,.03,0,.07,0,.1.02Z"/>
    </g>
    <g>
      <path class="cls-2" d="m175.66,143.49v1.8l-.25-.25h1.54v.5h-1.85v-2.05h.57Z"/>
      <path class="cls-2" d="m178.65,144.76c-.03.16-.08.31-.15.43s-.17.22-.29.29c-.12.07-.25.1-.4.1s-.29-.03-.4-.1c-.12-.07-.21-.17-.27-.29s-.1-.27-.1-.43.03-.31.1-.44.16-.22.27-.29c.12-.07.25-.1.4-.1s.28.03.4.1.21.16.29.29c.08.12.13.27.15.44Zm-1.04,0c0,.08.02.15.05.21s.08.11.13.14c.06.03.12.05.19.05s.15-.02.22-.05c.07-.03.13-.08.18-.14s.09-.13.12-.21c-.03-.08-.06-.15-.12-.21s-.11-.11-.18-.14c-.07-.04-.14-.05-.22-.05s-.14.02-.19.05c-.06.03-.1.08-.13.14s-.05.13-.05.21Zm.91.78l-.07-.56.07-.22-.07-.22.07-.57h.58l-.1.78.1.78h-.58Z"/>
      <path class="cls-2" d="m179.93,145.09l-.15-.05.86-1.07h.59l-1.36,1.56h-.5v-2.11h.56v1.66Zm.27-.32l.42-.3.65,1.06h-.63l-.45-.76Z"/>
      <path class="cls-2" d="m182.22,145.58c-.19,0-.36-.03-.51-.1-.15-.07-.27-.17-.35-.29-.09-.12-.13-.27-.13-.44s.04-.31.12-.43.19-.22.34-.29c.14-.07.3-.1.49-.1s.35.04.48.12c.13.08.23.2.31.34s.11.32.11.52h-1.39v-.34h1.08l-.18.12c0-.08-.03-.15-.06-.2s-.08-.1-.13-.13c-.05-.03-.12-.04-.19-.04-.08,0-.15.02-.21.05-.06.03-.1.08-.14.14s-.05.13-.05.2c0,.1.02.18.07.25.04.07.11.12.2.16.09.04.19.06.32.06.12,0,.23-.02.34-.05.11-.03.22-.07.31-.13v.36c-.11.07-.23.13-.37.17s-.29.06-.44.06Z"/>
      <path class="cls-2" d="m174.33,146.77h.57v2.05h-.57v-2.05Zm.32.76h1.53v.5h-1.53v-.5Zm1.3-.76h.57v2.05h-.57v-2.05Z"/>
      <path class="cls-2" d="m177.51,148.87c-.15,0-.27-.03-.37-.09s-.18-.15-.24-.26-.08-.24-.08-.39v-.87h.56v.79c0,.12.03.2.08.27s.14.09.24.09c.08,0,.14-.02.2-.05.05-.03.09-.08.12-.14.03-.06.04-.13.04-.22l.17.09c-.02.17-.07.31-.14.42-.07.11-.16.2-.26.26s-.21.09-.34.09Zm.66-.04l-.1-.63v-.94h.56v1.02l.1.54h-.56Z"/>
      <path class="cls-2" d="m178.89,147.26h.57l.09.56v1.01h-.56v-1.04l-.1-.53Zm1.4-.02v.48c-.05-.01-.11-.02-.15-.02-.05,0-.09,0-.13,0-.08,0-.15.02-.22.05-.07.03-.12.08-.16.16-.04.07-.06.17-.06.29l-.11-.13c.01-.11.04-.22.07-.32.03-.1.07-.19.12-.27s.11-.14.19-.18.17-.07.27-.07c.03,0,.06,0,.1,0,.03,0,.07,0,.1.02Z"/>
      <path class="cls-2" d="m181.37,148.87c-.2,0-.38-.03-.53-.1-.15-.07-.27-.17-.35-.29s-.13-.27-.13-.43.04-.31.13-.44.2-.22.35-.29c.15-.07.32-.1.53-.1s.37.03.52.1c.15.07.27.17.35.29s.13.27.13.43-.04.31-.13.43-.2.22-.35.29c-.15.07-.33.1-.52.1Zm0-.41c.09,0,.17-.02.23-.05.06-.03.11-.08.15-.14.03-.06.05-.13.05-.22s-.02-.16-.05-.22c-.03-.06-.08-.11-.15-.14-.06-.03-.14-.05-.23-.05s-.17.02-.24.05c-.07.03-.12.08-.15.14-.03.06-.05.13-.05.22s.02.16.05.22c.03.06.08.11.15.14.07.03.14.05.24.05Z"/>
      <path class="cls-2" d="m182.52,147.26h.56l.1.62v.94h-.56v-1.02l-.1-.54Zm1.24-.05c.15,0,.28.03.38.09s.19.15.24.25c.06.11.08.24.08.39v.88h-.56v-.79c0-.12-.03-.21-.09-.27s-.14-.09-.26-.09c-.08,0-.14.02-.2.05-.06.03-.1.08-.13.14-.03.06-.05.13-.05.21l-.17-.09c.02-.17.07-.31.14-.42.07-.11.16-.2.26-.26.1-.06.22-.09.35-.09Z"/>
    </g>
    <g>
      <path class="cls-2" d="m199.81,139.99c0,.12-.03.24-.08.35-.04.11-.11.21-.19.3-.08.09-.19.16-.32.21-.13.05-.27.07-.44.07s-.31-.02-.45-.07c-.14-.05-.26-.12-.37-.21-.11-.09-.19-.2-.25-.34-.06-.13-.09-.29-.09-.46s.03-.32.09-.46c.06-.13.14-.25.25-.34.11-.09.23-.16.38-.21.14-.05.3-.07.47-.07.23,0,.42.03.59.1.16.07.3.16.4.28.1.12.17.26.19.42h-.57c-.02-.07-.06-.13-.11-.18-.06-.05-.12-.09-.21-.11s-.18-.04-.28-.04c-.13,0-.24.02-.33.07-.09.04-.17.11-.22.2s-.08.2-.08.33.03.25.08.34c.05.09.13.16.23.21.1.05.22.07.36.07s.25-.02.35-.06.18-.09.24-.17c.06-.07.1-.16.11-.26h.24Zm-.89.24v-.4h1.09v1.06h-.4l-.08-.81.11.15h-.71Z"/>
      <path class="cls-2" d="m201.21,140.93c-.19,0-.36-.03-.51-.1-.15-.07-.27-.17-.35-.29-.09-.12-.13-.27-.13-.44s.04-.31.12-.43.19-.22.34-.29c.14-.07.3-.1.49-.1s.35.04.48.12c.13.08.23.2.31.34s.11.32.11.52h-1.39v-.34h1.08l-.18.12c0-.08-.03-.15-.06-.2s-.08-.1-.13-.13c-.05-.03-.12-.04-.19-.04-.08,0-.15.02-.21.05-.06.03-.1.08-.14.14s-.05.13-.05.2c0,.1.02.18.07.25.04.07.11.12.2.16.09.04.19.06.32.06.12,0,.23-.02.34-.05.11-.03.22-.07.31-.13v.36c-.11.07-.23.13-.37.17s-.29.06-.44.06Z"/>
      <path class="cls-2" d="m203.23,140.93c-.2,0-.38-.03-.53-.1-.15-.07-.27-.17-.35-.29s-.13-.27-.13-.43.04-.31.13-.44.2-.22.35-.29c.15-.07.32-.1.53-.1s.37.03.52.1c.15.07.27.17.35.29s.13.27.13.43-.04.31-.13.43-.2.22-.35.29c-.15.07-.33.1-.52.1Zm0-.41c.09,0,.17-.02.23-.05.06-.03.11-.08.15-.14.03-.06.05-.13.05-.22s-.02-.16-.05-.22c-.03-.06-.08-.11-.15-.14-.06-.03-.14-.05-.23-.05s-.17.02-.24.05c-.07.03-.12.08-.15.14-.03.06-.05.13-.05.22s.02.16.05.22c.03.06.08.11.15.14.07.03.14.05.24.05Z"/>
      <path class="cls-2" d="m204.39,139.32h.57l.09.56v1.01h-.56v-1.04l-.1-.53Zm1.4-.02v.48c-.05-.01-.11-.02-.15-.02-.05,0-.09,0-.13,0-.08,0-.15.02-.22.05-.07.03-.12.08-.16.16-.04.07-.06.17-.06.29l-.11-.13c.01-.11.04-.22.07-.32.03-.1.07-.19.12-.27s.11-.14.19-.18.17-.07.27-.07c.03,0,.06,0,.1,0,.03,0,.07,0,.1.02Z"/>
      <path class="cls-2" d="m206.64,140.72c-.15,0-.28-.03-.39-.09s-.21-.14-.27-.25c-.07-.11-.1-.23-.1-.38s.03-.27.1-.38c.07-.11.16-.19.27-.25s.25-.09.39-.09c.11,0,.21.02.3.05.09.03.17.08.24.13.07.06.13.12.18.18.05.06.09.13.11.19.03.06.04.12.04.17,0,.07-.02.14-.06.23-.04.08-.1.16-.17.23-.07.08-.17.14-.27.19-.11.05-.23.07-.37.07Zm.67-.23v-.27l.02-.07v-.38l-.02-.06v-.4h.56v1.15c0,.19-.04.36-.13.49-.09.14-.21.24-.37.31-.16.07-.35.11-.57.11-.14,0-.28-.02-.4-.06s-.25-.09-.37-.17v-.42c.11.08.23.15.36.18s.25.06.38.06c.18,0,.31-.04.41-.12s.14-.2.14-.37Zm-.48-.15c.11,0,.2-.03.29-.08.08-.06.16-.14.21-.26-.06-.12-.13-.2-.22-.26-.08-.06-.18-.08-.28-.08-.08,0-.15.01-.21.04-.06.03-.1.07-.14.12-.03.05-.05.11-.05.18s.02.13.05.18c.03.05.08.09.13.12.06.03.13.04.21.04Z"/>
      <path class="cls-2" d="m208.45,139.17c-.1,0-.18-.02-.24-.07-.06-.05-.09-.11-.09-.2s.03-.15.09-.2c.06-.05.14-.07.24-.07s.18.02.24.07c.06.05.09.12.09.2s-.03.15-.09.2c-.06.05-.14.07-.24.07Zm-.28.13l.28.05.28-.05v1.59h-.56v-1.59Z"/>
      <path class="cls-2" d="m210.58,140.1c-.03.16-.08.31-.15.43s-.17.22-.29.29c-.12.07-.25.1-.4.1s-.29-.03-.4-.1c-.12-.07-.21-.17-.27-.29s-.1-.27-.1-.43.03-.31.1-.44.16-.22.27-.29c.12-.07.25-.1.4-.1s.28.03.4.1.21.16.29.29c.08.12.13.27.15.44Zm-1.04,0c0,.08.02.15.05.21s.08.11.13.14c.06.03.12.05.19.05s.15-.02.22-.05c.07-.03.13-.08.18-.14s.09-.13.12-.21c-.03-.08-.06-.15-.12-.21s-.11-.11-.18-.14c-.07-.04-.14-.05-.22-.05s-.14.02-.19.05c-.06.03-.1.08-.13.14s-.05.13-.05.21Zm.91.78l-.07-.56.07-.22-.07-.22.07-.57h.58l-.1.78.1.78h-.58Z"/>
      <path class="cls-2" d="m211.22,139.32h.56l.1.62v.94h-.56v-1.02l-.1-.54Zm1.24-.05c.15,0,.28.03.38.09s.19.15.24.25c.06.11.08.24.08.39v.88h-.56v-.79c0-.12-.03-.21-.09-.27s-.14-.09-.26-.09c-.08,0-.14.02-.2.05-.06.03-.1.08-.13.14-.03.06-.05.13-.05.21l-.17-.09c.02-.17.07-.31.14-.42.07-.11.16-.2.26-.26.1-.06.22-.09.35-.09Z"/>
      <path class="cls-2" d="m203.97,143.16l.05-.11c.16,0,.29.03.39.07.1.04.18.11.23.19.05.08.08.17.08.27,0,.11-.03.21-.08.3s-.13.16-.23.21c-.1.05-.23.08-.38.08h-1.52l.16-1.05-.16-1h1.46c.19,0,.34.04.44.13s.16.21.16.37c0,.09-.02.17-.06.25s-.1.15-.19.2c-.09.05-.21.09-.36.1Zm-.89.87l-.22-.27h1.02c.08,0,.15-.02.19-.06.05-.04.07-.1.07-.17s-.02-.13-.07-.17-.12-.06-.22-.06h-.84v-.39h.77c.07,0,.12-.02.17-.06.04-.04.07-.09.07-.16,0-.06-.02-.1-.06-.14-.04-.04-.09-.05-.16-.05h-.92l.22-.27.14.87-.14.92Z"/>
      <path class="cls-2" d="m206.49,143.39c-.03.16-.08.31-.15.43s-.17.22-.29.29c-.12.07-.25.1-.4.1s-.29-.03-.4-.1c-.12-.07-.21-.17-.27-.29s-.1-.27-.1-.43.03-.31.1-.44.16-.22.27-.29c.12-.07.25-.1.4-.1s.28.03.4.1.21.16.29.29c.08.12.13.27.15.44Zm-1.04,0c0,.08.02.15.05.21s.08.11.13.14c.06.03.12.05.19.05s.15-.02.22-.05c.07-.03.13-.08.18-.14s.09-.13.12-.21c-.03-.08-.06-.15-.12-.21s-.11-.11-.18-.14c-.07-.04-.14-.05-.22-.05s-.14.02-.19.05c-.06.03-.1.08-.13.14s-.05.13-.05.21Zm.91.78l-.07-.56.07-.22-.07-.22.07-.57h.58l-.1.78.1.78h-.58Z"/>
      <path class="cls-2" d="m207.75,144.02l-.67-1.42h.62l.59,1.42h-.54Zm-.02.64c-.12,0-.22-.01-.31-.04-.09-.03-.18-.07-.26-.13v-.39c.09.06.17.09.24.12.07.02.16.04.25.04.07,0,.14-.02.2-.05.06-.03.11-.09.14-.18l.6-1.42h.59l-.75,1.59c-.05.11-.12.21-.19.27-.08.07-.16.12-.24.15-.09.03-.18.04-.27.04Z"/>
    </g>
    <g>
      <path class="cls-2" d="m244.16,166.35v1.8l-.25-.25h1.54v.5h-1.85v-2.05h.57Z"/>
      <path class="cls-2" d="m247.15,167.62c-.03.16-.08.31-.15.43s-.17.22-.29.29c-.12.07-.25.1-.4.1s-.29-.03-.4-.1c-.12-.07-.21-.17-.27-.29s-.1-.27-.1-.43.03-.31.1-.44.16-.22.27-.29c.12-.07.25-.1.4-.1s.28.03.4.1.21.16.29.29c.08.12.13.27.15.44Zm-1.04,0c0,.08.02.15.05.21s.08.11.13.14c.06.03.12.05.19.05s.15-.02.22-.05c.07-.03.13-.08.18-.14s.09-.13.12-.21c-.03-.08-.06-.15-.12-.21s-.11-.11-.18-.14c-.07-.04-.14-.05-.22-.05s-.14.02-.19.05c-.06.03-.1.08-.13.14s-.05.13-.05.21Zm.91.78l-.07-.56.07-.22-.07-.22.07-.57h.58l-.1.78.1.78h-.58Z"/>
      <path class="cls-2" d="m248.43,167.96l-.15-.05.86-1.07h.59l-1.36,1.56h-.5v-2.11h.56v1.66Zm.27-.32l.42-.3.65,1.06h-.63l-.45-.76Z"/>
      <path class="cls-2" d="m250.72,168.45c-.19,0-.36-.03-.51-.1-.15-.07-.27-.17-.35-.29-.09-.12-.13-.27-.13-.44s.04-.31.12-.43.19-.22.34-.29c.14-.07.3-.1.49-.1s.35.04.48.12c.13.08.23.2.31.34s.11.32.11.52h-1.39v-.34h1.08l-.18.12c0-.08-.03-.15-.06-.2s-.08-.1-.13-.13c-.05-.03-.12-.04-.19-.04-.08,0-.15.02-.21.05-.06.03-.1.08-.14.14s-.05.13-.05.2c0,.1.02.18.07.25.04.07.11.12.2.16.09.04.19.06.32.06.12,0,.23-.02.34-.05.11-.03.22-.07.31-.13v.36c-.11.07-.23.13-.37.17s-.29.06-.44.06Z"/>
      <path class="cls-2" d="m253.66,168.45c-.24,0-.46-.04-.64-.13-.18-.09-.33-.21-.43-.38-.1-.16-.15-.35-.15-.56s.05-.4.15-.56c.1-.16.24-.29.43-.38.18-.09.4-.13.64-.13s.46.04.64.13c.18.09.32.21.43.38.1.16.15.35.15.56s-.05.4-.15.56c-.1.16-.24.29-.43.38-.18.09-.4.13-.64.13Zm0-.51c.13,0,.25-.02.35-.07.1-.05.17-.11.22-.19s.08-.18.08-.3-.03-.22-.08-.3-.13-.15-.22-.19c-.1-.04-.21-.07-.35-.07s-.25.02-.34.07c-.1.05-.17.11-.22.19s-.08.18-.08.3.03.22.08.3.13.15.22.19c.1.04.21.07.34.07Z"/>
      <path class="cls-2" d="m255.05,166.84h.56l.1.62v.94h-.56v-1.02l-.1-.54Zm1.24-.05c.15,0,.28.03.38.09s.19.15.24.25c.06.11.08.24.08.39v.88h-.56v-.79c0-.12-.03-.21-.09-.27s-.14-.09-.26-.09c-.08,0-.14.02-.2.05-.06.03-.1.08-.13.14-.03.06-.05.13-.05.21l-.17-.09c.02-.17.07-.31.14-.42.07-.11.16-.2.26-.26.1-.06.22-.09.35-.09Z"/>
      <path class="cls-2" d="m257.12,167.25v-.24l.32-.13.24-.46h.32v.42h.66v.41h-.66v.46c0,.11.02.19.07.24.05.05.13.07.25.07.08,0,.14,0,.2-.02.06-.01.11-.03.16-.05v.42c-.05.02-.13.04-.22.05-.09.02-.18.02-.28.02-.17,0-.31-.03-.43-.08-.11-.05-.19-.13-.25-.23s-.08-.22-.08-.35v-.54h-.32Z"/>
      <path class="cls-2" d="m260.41,167.62c-.03.16-.08.31-.15.43s-.17.22-.29.29c-.12.07-.25.1-.4.1s-.29-.03-.4-.1c-.12-.07-.21-.17-.27-.29s-.1-.27-.1-.43.03-.31.1-.44.16-.22.27-.29c.12-.07.25-.1.4-.1s.28.03.4.1.21.16.29.29c.08.12.13.27.15.44Zm-1.04,0c0,.08.02.15.05.21s.08.11.13.14c.06.03.12.05.19.05s.15-.02.22-.05c.07-.03.13-.08.18-.14s.09-.13.12-.21c-.03-.08-.06-.15-.12-.21s-.11-.11-.18-.14c-.07-.04-.14-.05-.22-.05s-.14.02-.19.05c-.06.03-.1.08-.13.14s-.05.13-.05.21Zm.91.78l-.07-.56.07-.22-.07-.22.07-.57h.58l-.1.78.1.78h-.58Z"/>
      <path class="cls-2" d="m261.06,166.84h.57l.09.56v1.01h-.56v-1.04l-.1-.53Zm1.4-.02v.48c-.05-.01-.11-.02-.15-.02-.05,0-.09,0-.13,0-.08,0-.15.02-.22.05-.07.03-.12.08-.16.16-.04.07-.06.17-.06.29l-.11-.13c.01-.11.04-.22.07-.32.03-.1.07-.19.12-.27s.11-.14.19-.18.17-.07.27-.07c.03,0,.06,0,.1,0,.03,0,.07,0,.1.02Z"/>
      <path class="cls-2" d="m262.92,166.69c-.1,0-.18-.02-.24-.07-.06-.05-.09-.11-.09-.2s.03-.15.09-.2c.06-.05.14-.07.24-.07s.18.02.24.07c.06.05.09.12.09.2s-.03.15-.09.2c-.06.05-.14.07-.24.07Zm-.28.13l.28.05.28-.05v1.59h-.56v-1.59Z"/>
      <path class="cls-2" d="m264.44,168.45c-.2,0-.38-.03-.53-.1-.15-.07-.27-.17-.35-.29s-.13-.27-.13-.43.04-.31.13-.44.2-.22.35-.29c.15-.07.32-.1.53-.1s.37.03.52.1c.15.07.27.17.35.29s.13.27.13.43-.04.31-.13.43-.2.22-.35.29c-.15.07-.33.1-.52.1Zm0-.41c.09,0,.17-.02.23-.05.06-.03.11-.08.15-.14.03-.06.05-.13.05-.22s-.02-.16-.05-.22c-.03-.06-.08-.11-.15-.14-.06-.03-.14-.05-.23-.05s-.17.02-.24.05c-.07.03-.12.08-.15.14-.03.06-.05.13-.05.22s.02.16.05.22c.03.06.08.11.15.14.07.03.14.05.24.05Z"/>
    </g>
    <g>
      <path class="cls-2" d="m194.87,196.56v1.8l-.25-.25h1.54v.5h-1.85v-2.05h.57Z"/>
      <path class="cls-2" d="m197.86,197.84c-.03.16-.08.31-.15.43s-.17.22-.29.29c-.12.07-.25.1-.4.1s-.29-.03-.4-.1c-.12-.07-.21-.17-.27-.29s-.1-.27-.1-.43.03-.31.1-.44.16-.22.27-.29c.12-.07.25-.1.4-.1s.28.03.4.1.21.16.29.29c.08.12.13.27.15.44Zm-1.04,0c0,.08.02.15.05.21s.08.11.13.14c.06.03.12.05.19.05s.15-.02.22-.05c.07-.03.13-.08.18-.14s.09-.13.12-.21c-.03-.08-.06-.15-.12-.21s-.11-.11-.18-.14c-.07-.04-.14-.05-.22-.05s-.14.02-.19.05c-.06.03-.1.08-.13.14s-.05.13-.05.21Zm.91.78l-.07-.56.07-.22-.07-.22.07-.57h.58l-.1.78.1.78h-.58Z"/>
      <path class="cls-2" d="m199.14,198.17l-.15-.05.86-1.07h.59l-1.36,1.56h-.5v-2.11h.56v1.66Zm.27-.32l.42-.3.65,1.06h-.63l-.45-.76Z"/>
      <path class="cls-2" d="m201.43,198.66c-.19,0-.36-.03-.51-.1-.15-.07-.27-.17-.35-.29-.09-.12-.13-.27-.13-.44s.04-.31.12-.43.19-.22.34-.29c.14-.07.3-.1.49-.1s.35.04.48.12c.13.08.23.2.31.34s.11.32.11.52h-1.39v-.34h1.08l-.18.12c0-.08-.03-.15-.06-.2s-.08-.1-.13-.13c-.05-.03-.12-.04-.19-.04-.08,0-.15.02-.21.05-.06.03-.1.08-.14.14s-.05.13-.05.2c0,.1.02.18.07.25.04.07.11.12.2.16.09.04.19.06.32.06.12,0,.23-.02.34-.05.11-.03.22-.07.31-.13v.36c-.11.07-.23.13-.37.17s-.29.06-.44.06Z"/>
      <path class="cls-2" d="m203.88,197.59l-.13.82-.23-.26h1.57v.46h-1.91l.16-1.03-.16-1.03h1.89v.46h-1.56l.23-.26.13.82Zm1.12-.21v.41h-1.5v-.41h1.5Z"/>
      <path class="cls-2" d="m205.29,197.05h.57l.09.56v1.01h-.56v-1.04l-.1-.53Zm1.4-.02v.48c-.05-.01-.11-.02-.15-.02-.05,0-.09,0-.13,0-.08,0-.15.02-.22.05-.07.03-.12.08-.16.16-.04.07-.06.17-.06.29l-.11-.13c.01-.11.04-.22.07-.32.03-.1.07-.19.12-.27s.11-.14.19-.18.17-.07.27-.07c.03,0,.06,0,.1,0,.03,0,.07,0,.1.02Z"/>
      <path class="cls-2" d="m207.15,196.9c-.1,0-.18-.02-.24-.07-.06-.05-.09-.11-.09-.2s.03-.15.09-.2c.06-.05.14-.07.24-.07s.18.02.24.07c.06.05.09.12.09.2s-.03.15-.09.2c-.06.05-.14.07-.24.07Zm-.28.13l.28.05.28-.05v1.59h-.56v-1.59Z"/>
      <path class="cls-2" d="m208.66,198.66c-.19,0-.36-.03-.51-.1-.15-.07-.27-.17-.35-.29-.09-.12-.13-.27-.13-.44s.04-.31.12-.43.19-.22.34-.29c.14-.07.3-.1.49-.1s.35.04.48.12c.13.08.23.2.31.34s.11.32.11.52h-1.39v-.34h1.08l-.18.12c0-.08-.03-.15-.06-.2s-.08-.1-.13-.13c-.05-.03-.12-.04-.19-.04-.08,0-.15.02-.21.05-.06.03-.1.08-.14.14s-.05.13-.05.2c0,.1.02.18.07.25.04.07.11.12.2.16.09.04.19.06.32.06.12,0,.23-.02.34-.05.11-.03.22-.07.31-.13v.36c-.11.07-.23.13-.37.17s-.29.06-.44.06Z"/>
    </g>
    <circle class="cls-1" cx="75.34" cy="56.01" r="2.08"/>
    <circle class="cls-7" cx="75.34" cy="56.01" r="2.81"/>
    <circle class="cls-1" cx="143.98" cy="87.07" r="2.08"/>
    <circle class="cls-7" cx="143.98" cy="87.07" r="2.81"/>
    <circle class="cls-1" cx="147.98" cy="101.43" r="2.08"/>
    <circle class="cls-7" cx="147.98" cy="101.43" r="2.81"/>
    <circle class="cls-1" cx="192.9" cy="119.97" r="2.08"/>
    <circle class="cls-7" cx="192.9" cy="119.97" r="2.81"/>
    <circle class="cls-1" cx="192.17" cy="138.19" r="2.08"/>
    <circle class="cls-7" cx="192.17" cy="138.19" r="2.81"/>
    <circle class="cls-1" cx="211.35" cy="133.79" r="2.08"/>
    <circle class="cls-7" cx="211.35" cy="133.79" r="2.81"/>
    <circle class="cls-1" cx="222.65" cy="158.84" r="2.08"/>
    <circle class="cls-7" cx="222.65" cy="158.84" r="2.81"/>
    <circle class="cls-1" cx="237.86" cy="122.84" r="2.08"/>
    <circle class="cls-7" cx="237.86" cy="122.84" r="2.81"/>
    <circle class="cls-1" cx="261.91" cy="142.61" r="2.08"/>
    <circle class="cls-7" cx="261.91" cy="142.61" r="2.81"/>
    <circle class="cls-1" cx="185.88" cy="183.87" r="2.08"/>
    <circle class="cls-7" cx="185.88" cy="183.87" r="2.81"/>
  </g>
</svg>